<?xml version="1.0" encoding="UTF-8"?>
<svg width="602px" height="353px" viewBox="0 0 602 353" version="1.1" xmlns="http://www.w3.org/2000/svg" xmlns:xlink="http://www.w3.org/1999/xlink">
    <title>Group</title>
    <g id="Page-1" stroke="none" stroke-width="1" fill="none" fill-rule="evenodd">
        <g id="footer-logo" fill="#006A34" fill-rule="nonzero">
            <g id="Group">
                <path d="M511.93,129.92 L509.72,130.84 L506.76,131.77 L503.62,132.87 L499.57,134.17 L493.29,136.02 L487.01,137.49 L481.66,138.6 L477.05,139.52 L471.32,140.26 L465.6,141.37 L459.69,142.29 L454.16,143.21 L448.25,144.13 L446.29,144.42 C453.36,132.06 457.27,118.49 457.27,104.27 C457.27,104.13 457.25,103.98 457.25,103.84 L475.42,105.66 L476.66,103.91 L477.26,101.97 L477.26,99.71 L476.93,97.4 L475.64,95.41 L456.5,93.47 C449.11,41.14 388.72,0.2 315.54,0.2 C237.39,0.2 173.82,46.89 173.82,104.27 C173.82,140.34 198.95,172.18 237.02,190.85 L231.75,192.49 L219.75,195.07 L214.49,195.81 L208.49,196.18 L201.66,195.99 L195.57,195.62 L189.3,194.51 L183.39,193.22 L177.48,190.82 L173.61,187.68 L169.73,182.51 L167.89,177.34 L166.96,171.25 L163.92,173.37 L162.17,176.24 L161.42,181.04 L161.8,185.47 L163.46,190.64 L165.12,194.89 L166.96,199.87 L168.99,204.49 L169.26,206.8 L167.88,207.63 L165.48,207.44 L162.89,206.15 L160.13,203.19 L157.73,200.06 L156.26,196.18 L154.79,190.64 L154.42,195.63 L154.04,200.61 L154.04,205.96 L155.15,210.2 L157,214.82 L160.5,219.16 L165.3,222.02 L173.97,224.24 L182.83,224.61 L192.43,224.42 L201.48,224.24 L210.71,223.87 L218.64,223.5 L225.28,223.13 L233.21,222.39 L241.7,221.84 L249.83,221.29 L257.02,220.74 L265.51,220 L273.82,219.07 L282.31,217.96 L291.54,216.67 L302.43,215.19 L312.21,213.9 L321.62,212.43 L330.66,210.95 L339.33,209.47 L348.74,207.44 L359.63,205.05 L370.89,202.64 L381.78,200.06 L393.59,197.47 L405.77,193.97 L419.6,190.46 L430.86,187.14 L441.56,183.64 L454.11,179.76 L464.26,176.07 L473.67,172.56 L483.83,168.87 L491.21,165.73 L498.04,163.33 L503.21,161.39 L507.08,158.16 L509.11,153.72 L510.03,148.19 L510.76,141.72 L511.31,136.74 L512.05,133.23 L512.79,130.83 L513.9,128.99 L511.93,129.92 Z M452.16,104.26 C452.16,118.99 447.66,132.96 439.66,145.54 L438.47,145.79 L433.49,147.64 L428.32,149.3 L422.97,150.78 L416.5,152.25 L410.97,152.81 L404.69,153.36 L397.68,153.91 L389.56,154.09 L381.07,153.72 L373.87,153.54 L365.01,153.72 L356.7,153.72 L348.58,154.28 L345.26,134.53 L346.55,130.29 L348.4,126.23 L350.99,121.8 L353.76,116.45 L356.53,110.54 L357.64,105.37 L356.35,100.39 L353.77,97.44 L350.08,94.3 L349.34,93.01 L452.13,103.32 C452.13,103.63 452.16,103.95 452.16,104.26 Z M300.17,171.53 L301.84,169.33 L308.7,167.31 L308.7,174.39 L300.17,171.53 Z M317.59,90.72 L302.62,96.45 L298.67,95.95 L317.59,90.72 Z M299.71,92.41 L301.37,91.23 L306.98,88.03 L311.76,88.7 L307.6,90.22 L303.86,91.57 L299.71,92.41 Z M302.83,99.67 L308.65,97.81 L314.26,95.78 L319.04,94.27 L323.4,93.59 L328.59,93.59 L324.64,95.11 C324.64,95.11 321.73,96.12 320.9,96.29 C320.07,96.46 316.54,97.81 316.54,97.81 L310.71,99.5 L305.31,100.85 L300.32,101.86 L295.75,102.03 L289.72,101.35 L295.75,101.18 L302.83,99.67 Z M334.02,109.27 L334.43,105.56 L335.31,102.12 L337.34,101.18 L339.43,102.36 L341.51,103.54 L344,105.57 L344.57,107.75 L341.84,112.97 L338.03,115.83 L336.09,115.01 L334.22,113.16 L334.02,109.27 Z M349.87,159.44 L356.53,159.44 L358.61,160.62 L351.13,166.69 L349.87,159.44 Z M178.97,104.26 C178.97,49.7 240.25,5.31 315.57,5.31 C385.59,5.31 443.45,43.68 451.24,92.91 L337.72,81.37 L339.38,79.9 L342.15,76.57 L346.2,72.52 L350.73,68.28 L351.74,66.62 L351.19,64.22 L349.16,62.93 L346.2,61.82 L343.99,63.3 L341.59,66.44 L338.64,69.94 L336.05,72.53 L333.28,75.3 L330.33,77.32 L328.58,76.22 L331.72,71.24 L334.21,67.36 L337.16,63.85 L340.3,59.79 L342.51,56.65 L343.81,54.71 L342.88,51.85 L341.77,50.93 L338.26,51.48 L336.05,54.98 L333.46,59.04 L331.25,62.73 L328.84,66.61 L326.45,70.11 L324.23,72.69 L322.39,75.09 L321.1,72.97 L321.65,70.75 L323.67,66.97 L325.71,63.28 L326.81,60.7 L329.03,57.01 L331.62,54.05 L333.65,50.73 L334.76,47.41 L334.39,44.83 L333.1,43.54 L330.33,43.72 L328.39,44.64 L326.64,47.41 L324.61,50.92 L321.66,55.35 L319.07,59.59 L317.23,63.65 L314.82,69 L313.9,74.17 L313.17,77.67 L207.05,66.42 L203.91,69.74 L208.71,73.43 L213.88,76.39 L221.07,80.63 L227.9,83.77 L232.14,85.8 L228.45,77.49 L294.15,85.43 L268.5,110.53 L303.2,109.05 L301.9,111.64 L301.54,114.59 L302.09,117.35 L304.3,119.94 L307.44,123.08 L310.2,125.85 L311.68,128.62 L311.87,131.94 L310.77,134.52 L307.44,136.92 L303.75,138.21 L299.13,139.5 L294.33,140.06 L288.98,140.24 L284.36,139.87 L279.74,139.68 L273.28,139.13 L268.29,138.39 L263.12,138.02 L258.14,138.02 L253.34,138.02 L250.2,138.39 L246.88,140.24 L244.29,142.64 L241.15,145.96 L238.94,149.1 L238.01,153.44 L238.94,155.93 L241.7,157.03 L246.14,157.4 L250.38,156.29 L253.33,153.7 L256.47,151.86 L260.53,151.49 L266.8,151.86 L271.79,152.79 L277.88,154.08 L284.89,154.63 L290.98,155.55 L297.25,156.84 L302.78,158.13 L307.02,159.05 L308.13,159.24 L308.13,161.64 L305.18,163.48 L299.82,166.06 L293.91,168.83 L286.35,172.15 L278.97,175.29 L271.77,178.06 L263.09,181.75 L253.5,185.25 L244.46,188.21 L243.85,188.42 C204.97,171 178.97,139.79 178.97,104.26 Z" id="Shape"></path>
                <g transform="translate(0.000000, 200.000000)">
                    <path d="M96.88,35.91 C97.04,36.39 97.2,36.71 97.2,37.03 C97.2,37.83 96.56,38.62 95.77,38.62 C94.81,38.62 94.18,37.82 92.58,35.11 C89.39,29.69 83.33,23.15 76.48,17.89 C69.15,12.31 61.97,9.92 52.57,9.92 C28.66,9.92 16.7,28.89 16.7,66.68 C16.7,85.49 20.69,97.77 29.61,105.58 C36.63,111.96 46.67,115.3 58.47,115.3 C70.27,115.3 80.15,111.79 87.33,105.1 C91.95,100.95 96.1,94.74 98.17,89.64 C98.81,87.57 99.6,86.77 100.72,86.77 C102,86.77 102.79,87.73 102.79,89.16 C102.63,93.46 98.17,100.8 92.75,106.22 C83.98,114.67 72.66,118.97 59.11,118.97 C24.83,118.97 0.76,95.69 0.76,62.37 C0.76,45.47 6.66,30.8 17.18,20.6 C26.43,11.83 40.3,6.25 52.41,6.25 C56.4,6.25 60.86,6.89 67.4,8.16 C69.47,8.64 70.59,8.8 71.54,8.8 C75.84,8.8 79.35,6.25 79.83,2.58 C79.99,0.98 80.31,0.51 81.42,0.51 C82.06,0.51 82.54,0.99 83.01,2.26 L96.88,35.91 Z" id="Path"></path>
                    <path d="M108.99,115.94 C106.44,115.94 105.8,115.62 105.8,114.51 C105.8,113.07 106.6,112.75 109.31,112.75 L111.22,112.75 C115.2,112.75 118.23,111.32 119.83,108.61 C121.27,106.38 121.74,101.91 121.74,91.07 L121.74,46.27 L121.74,28.1 C121.74,19.33 118.39,16.62 107.39,16.46 C103.41,16.3 102.61,16.14 102.61,14.87 C102.61,13.75 103.41,13.28 105.16,13.28 C115.36,13.28 123.65,10.57 130.99,5.31 C131.63,4.83 132.42,4.51 132.74,4.51 C133.7,4.51 134.17,5.31 134.17,7.06 L134.17,8.34 C134.17,12.8 133.53,25.88 133.53,30.5 L133.53,61.43 C139.59,57.29 142.78,55.53 150.27,51.55 C157.92,47.56 161.27,46.45 165.41,46.45 C171.31,46.45 176.57,49.64 178.16,53.94 C179.12,56.49 179.12,56.49 179.12,68.29 L179.12,91.09 C179.12,103.05 179.6,107.03 181.51,109.42 C183.26,111.65 186.13,112.77 189.64,112.77 L191.55,112.77 C194.26,112.77 195.06,113.09 195.06,114.53 C195.06,115.81 194.26,116.12 191.23,115.96 C187.24,115.8 187.24,115.8 175.29,115.8 L171.14,115.8 C160.46,115.8 160.46,115.8 156.63,115.96 C154.72,116.12 153.6,115.48 153.6,114.37 C153.6,113.25 154.72,112.62 156.95,112.62 C160.3,112.78 163.01,111.82 164.6,110.23 C166.83,107.84 167.31,104.01 167.31,89.66 L167.31,70.37 C167.31,61.12 166.83,57.77 165.24,55.86 C163.65,54.11 160.93,52.99 158.07,52.99 C152.97,52.99 143.24,57.45 133.52,64.31 L133.52,87.27 C133.52,97.15 133.68,102.89 133.84,104.49 C135.12,110.71 137.99,112.78 145.48,112.62 C147.07,112.78 147.87,113.25 147.87,114.37 C147.87,115.65 146.92,116.12 145,115.96 C144.04,115.8 142.13,115.8 139.1,115.8 L129.69,115.8 L125.55,115.8 L108.99,115.94 Z" id="Path"></path>
                    <path d="M280.2,112.75 C282.91,112.75 283.71,113.07 283.71,114.35 C283.71,115.47 282.75,115.94 280.04,115.94 C278.76,115.94 276.85,115.94 274.3,115.78 C271.27,115.62 268.88,115.62 266.81,115.62 C265.06,115.62 263.14,115.62 261.55,115.78 C259.96,115.94 258.36,115.94 257.72,115.94 C256.13,115.94 255.65,115.46 255.65,113.39 C255.65,113.07 255.65,112.91 255.97,102.55 C239.23,113.23 228.55,118.17 222.17,118.17 C216.11,118.17 211.01,114.82 209.1,109.56 C208.3,107.33 208.3,107.33 208.3,88.68 L208.3,77.52 C208.3,66.2 207.66,63.01 205.11,61.1 C202.88,59.19 200.49,58.71 193.79,58.71 C192.19,58.71 191.4,58.23 191.4,57.27 C191.4,56.31 192.2,55.83 193.79,55.68 C201.44,55.04 209.09,52.49 215.31,48.35 C217.86,46.6 218.18,46.44 218.82,46.44 C219.46,46.44 219.94,46.92 219.94,47.87 C220.1,48.51 220.1,48.51 220.1,76.25 L220.1,89.32 C220.1,103.51 220.1,104.15 221.38,106.7 C222.97,109.57 226,111.32 229.83,111.32 C235.09,111.32 246.09,106.38 255.97,99.36 L255.97,77.52 C255.97,66.2 255.33,63.01 252.78,61.1 C250.55,59.19 248.32,58.71 241.62,58.71 C240.03,58.71 239.23,58.23 239.23,57.27 C239.23,56.31 240.03,55.83 241.62,55.68 C249.11,55.04 256.77,52.49 262.98,48.35 C265.53,46.6 265.85,46.44 266.49,46.44 C267.13,46.44 267.61,46.92 267.61,47.87 C267.77,48.51 267.77,48.51 267.77,76.25 L267.77,91.08 C267.77,103.04 268.25,107.02 270.16,109.41 C271.91,111.64 274.78,112.76 278.29,112.76 L280.2,112.76 L280.2,112.75 Z" id="Path"></path>
                    <path d="M299.48,97.76 C302.03,96.32 304.1,95.53 309.36,94.73 C304.74,93.3 302.51,92.02 299.95,89.47 C295.65,85.01 292.94,78.47 292.94,72.41 C292.94,58.06 306.01,46.42 322.27,46.42 C325.94,46.42 328.65,46.9 332.47,48.17 C339.01,41.95 346.82,38.29 352.72,38.29 C357.98,38.29 361.65,41 361.65,44.83 C361.65,48.81 358.3,51.69 353.84,51.69 C350.49,51.69 347.62,50.09 344.75,46.91 C343.64,45.63 343,45.16 341.88,45.16 C340.13,45.16 338.21,46.44 335.34,49.31 C346.02,53.93 351.44,61.74 351.44,72.43 C351.44,87.26 339,98.42 322.74,98.42 C320.67,98.42 318.44,98.26 316.05,97.78 C313.66,97.46 311.43,97.14 310.47,97.14 C305.53,97.14 301.38,100.33 301.38,104 C301.38,106.07 302.65,107.67 305.05,108.62 C307.44,109.74 312.38,110.06 328.64,110.54 C343.31,111.02 348.09,111.81 353.35,115.16 C357.82,117.87 360.52,123.13 360.52,128.55 C360.52,143.06 345.06,152.78 321.94,152.78 C302.49,152.78 288.14,145.45 288.14,135.56 C288.14,129.66 292.6,125.68 299.14,125.68 C300.26,125.68 300.57,125.68 301.21,126.16 C298.02,128.71 296.75,131.42 296.75,135.25 C296.75,144.5 306.31,149.92 322.73,149.92 C340.11,149.92 351.11,143.86 351.11,134.14 C351.11,130 348.88,126.81 344.89,125.37 C341.06,123.94 335.96,123.46 324.64,123.14 C307.9,122.66 304.23,122.18 299.13,119.95 C295.14,118.04 292.59,114.21 292.59,109.75 C292.63,104.94 295.34,100.15 299.48,97.76 Z M339.18,72.26 C339.18,56 334.08,49.3 321.96,49.3 C310.64,49.3 305.22,57.11 305.22,73.53 C305.22,88.51 310.8,95.53 322.44,95.53 C333.76,95.53 339.18,88.04 339.18,72.26 Z" id="Shape"></path>
                    <path d="M420.96,96.65 C420.96,105.26 421.12,106.53 422.24,108.29 C423.51,110.05 425.59,111 427.98,111 C431.65,111 434.2,108.77 435.47,104.94 C435.79,103.67 436.27,103.19 436.75,103.19 C437.39,103.19 437.87,103.83 437.87,104.62 C437.87,111 430.22,117.37 422.56,117.37 C418.26,117.37 414.75,115.93 412.68,113.54 C410.13,110.51 409.81,109.4 409.33,102.38 C409.33,102.06 409.33,101.42 409.17,100.47 C403.27,111.79 393.7,118.17 382.86,118.17 C371.38,118.17 363.09,110.52 363.09,100.15 C363.09,89.63 370.58,82.29 385.09,78.31 C391.15,76.56 397.21,75.76 409.17,75.12 L409.17,70.02 C409.17,60.62 408.85,58.54 406.78,55.19 C404.55,51.68 399.61,49.29 394.35,49.29 C385.26,49.29 378.89,52.8 378.89,57.9 C378.89,59.02 378.89,59.02 380.16,61.72 C380.48,62.2 380.64,63 380.64,63.95 C380.64,68.09 377.29,71.44 372.99,71.44 C369,71.44 366.29,68.25 366.29,63.79 C366.29,54.7 380,46.41 395.15,46.41 C404.4,46.41 412.37,49.28 417.31,54.54 C420.02,57.41 421.3,60.6 421.14,66.18 L420.98,71.12 L420.98,96.65 L420.96,96.65 Z M409.16,77.84 C387.8,78 375.68,85.01 375.68,97.13 C375.68,104.94 381.58,110.84 389.39,110.84 C400.71,110.84 409.16,101.12 409.16,88.04 L409.16,77.84 Z" id="Shape"></path>
                    <path d="M484.56,111.79 C493.97,111.79 501.3,108.6 508.95,101.11 C510.07,100.15 510.7,99.68 511.18,99.68 C511.82,99.68 512.3,100.16 512.3,100.64 C512.3,102.39 509.43,105.43 504.17,109.25 C495.72,115.47 487.75,118.18 477.07,118.18 C456.34,118.18 442,104.79 442,85.5 C442,62.86 459.22,46.44 482.81,46.44 C496.84,46.44 507.68,52.5 507.68,60.31 C507.68,64.29 504.17,67.32 499.55,67.32 C494.45,67.32 491.74,64.13 491.58,58.07 C491.58,52.33 487.6,49.3 479.94,49.3 C464.48,49.3 454.11,60.3 454.11,76.88 C454.11,85.33 457.14,94.42 462.24,101.11 C467.5,108.12 475.32,111.79 484.56,111.79 Z" id="Path"></path>
                    <path d="M515.17,115.94 C512.62,115.94 511.98,115.62 511.98,114.51 C511.98,113.07 512.78,112.75 515.49,112.75 L517.4,112.75 C521.38,112.75 524.41,111.32 526.01,108.61 C527.44,106.38 527.92,101.91 527.92,91.07 L527.92,46.27 L527.92,28.1 C527.92,19.33 524.57,16.62 513.57,16.46 C509.58,16.3 508.79,16.14 508.79,14.87 C508.79,13.75 509.59,13.28 511.34,13.28 C521.54,13.28 529.83,10.57 537.17,5.31 C537.81,4.83 538.61,4.51 538.92,4.51 C539.88,4.51 540.35,5.31 540.35,7.06 L540.35,8.34 C540.35,12.8 539.71,25.88 539.71,30.5 L539.71,61.43 C545.77,57.29 548.96,55.53 556.45,51.55 C564.1,47.56 567.45,46.45 571.6,46.45 C577.5,46.45 582.76,49.64 584.35,53.94 C585.31,56.49 585.31,56.49 585.31,68.29 L585.31,91.09 C585.31,103.05 585.79,107.03 587.7,109.42 C589.45,111.65 592.32,112.77 595.83,112.77 L597.74,112.77 C600.45,112.77 601.25,113.09 601.25,114.53 C601.25,115.81 600.45,116.12 597.42,115.96 C593.43,115.8 593.43,115.8 581.48,115.8 L577.34,115.8 C566.66,115.8 566.66,115.8 562.83,115.96 C560.92,116.12 559.8,115.48 559.8,114.37 C559.8,113.25 560.92,112.62 563.15,112.62 C566.5,112.78 569.21,111.82 570.8,110.23 C573.03,107.84 573.51,104.01 573.51,89.66 L573.51,70.37 C573.51,61.12 573.03,57.77 571.44,55.86 C569.85,54.11 567.14,52.99 564.27,52.99 C559.17,52.99 549.44,57.45 539.72,64.31 L539.72,87.27 C539.72,97.15 539.88,102.89 540.04,104.49 C541.32,110.71 544.18,112.78 551.68,112.62 C553.27,112.78 554.07,113.25 554.07,114.37 C554.07,115.65 553.11,116.12 551.2,115.96 C550.24,115.8 548.33,115.8 545.3,115.8 L535.89,115.8 L531.75,115.8 L515.17,115.94 Z" id="Path"></path>
                </g>
            </g>
        </g>
    </g>
</svg>