<?xml version="1.0" encoding="UTF-8"?>
<svg width="49px" height="42px" viewBox="0 0 49 42" version="1.1" xmlns="http://www.w3.org/2000/svg" xmlns:xlink="http://www.w3.org/1999/xlink">
    <!-- Generator: sketchtool 61 (101010) - https://sketch.com -->
    <title>2725A37E-97E2-4C93-B99D-19BEC44D2EA7</title>
    <desc>Created with sketchtool.</desc>
    <g id="Mockups" stroke="none" stroke-width="1" fill="none" fill-rule="evenodd">
        <g id="Kitchen-Sink---Page-Builder" transform="translate(-174.000000, -8997.000000)" fill="#64A70B" fill-rule="nonzero">
            <g id="camera-retro-icon" transform="translate(174.000000, 8997.000000)">
                <path d="M47.9398008,1.07367273 C47.2568633,0.392795455 46.4325723,0.0517363636 45.4670234,0.0517363636 L3.49766211,0.0517363636 C2.53201758,0.0517363636 1.70763086,0.393081818 1.02459766,1.07367273 C0.341755859,1.75512273 0,2.57727273 0,3.54031364 L0,38.4238909 C0,39.3869318 0.341373047,40.2087955 1.02459766,40.8902455 C1.70801367,41.5716955 2.53192188,41.9126591 3.49766211,41.9126591 L45.4664492,41.9126591 C46.4322852,41.9126591 47.2566719,41.5716955 47.9398965,40.8902455 C48.6224512,40.2087955 48.9643027,39.3869318 48.9643027,38.4238909 L48.9643027,3.54031364 C48.9643027,2.57765455 48.6223555,1.75550455 47.9398008,1.07367273 Z M6.9948457,1.79588182 L17.4873535,1.79588182 L17.4873535,5.28436364 L6.9948457,5.28436364 L6.9948457,1.79588182 Z M45.4671191,38.4238909 L3.49766211,38.4238909 L3.49766211,34.9355045 L45.4671191,34.9355045 L45.4671191,38.4238909 L45.4671191,38.4238909 Z M13.9895957,22.7808 C13.9895957,19.8920591 15.0145762,17.4255136 17.0636758,15.3815455 C19.1132539,13.3377682 21.5857441,12.3158318 24.4821035,12.3158318 C27.3786543,12.3158318 29.8514316,13.3378636 31.900627,15.3815455 C33.9498223,17.4255136 34.9743242,19.8920591 34.9743242,22.7808 C34.9743242,25.6698273 33.9498223,28.1360864 31.900627,30.1799591 C29.8514316,32.2239273 27.3786543,33.2460545 24.4821035,33.2460545 C21.5857441,33.2460545 19.1132539,32.2239273 17.0636758,30.1799591 C15.0142891,28.1360864 13.9895957,25.6698273 13.9895957,22.7808 Z M45.4670234,7.30150909 L45.4670234,10.5169909 L3.49766211,10.5169909 L3.49766211,7.02889091 L21.0945,7.02889091 L22.8430918,3.54069545 L45.4670234,3.54069545 L45.4670234,7.30150909 L45.4670234,7.30150909 Z" id="Shape"></path>
                <path d="M29.4275625,27.7137 C30.793916,26.3508955 31.4771406,24.7067864 31.4771406,22.7808 C31.4771406,20.8551 30.793916,19.2107045 29.4275625,17.8481864 C28.0615918,16.4855727 26.4132012,15.8041227 24.4821035,15.8041227 C22.5511016,15.8041227 20.9028066,16.4855727 19.5363574,17.8481864 C18.1704824,19.2107045 17.4872578,20.8551 17.4872578,22.7808 C17.4872578,24.7067864 18.1700996,26.3508 19.5363574,27.7137 C20.9027109,29.0762182 22.5513887,29.7575727 24.4821035,29.7575727 C26.4132012,29.7575727 28.0614961,29.0762182 29.4275625,27.7137 Z M22.6238359,20.8730455 C22.1137383,21.3820091 21.8588809,21.9996955 21.8588809,22.7262955 C21.8588809,22.9806818 21.7770547,23.1897273 21.6129238,23.35305 C21.4489844,23.5167545 21.2397773,23.5979864 20.9844414,23.5979864 C20.7292969,23.5979864 20.5199941,23.5166591 20.355959,23.35305 C20.1920195,23.1897273 20.1101934,22.9806818 20.1101934,22.7262955 C20.1101934,21.5271 20.5382734,20.5008682 21.3943379,19.6468364 C22.2505938,18.7929955 23.2797852,18.3661227 24.4821035,18.3661227 C24.7369609,18.3661227 24.9465508,18.4476409 25.1105859,18.61125 C25.2747168,18.7743818 25.356543,18.9834273 25.356543,19.2377182 C25.356543,19.4922 25.2747168,19.7012455 25.1101934,19.86495 C24.946168,20.0284636 24.7365781,20.1100773 24.4818164,20.1100773 C23.7531328,20.1101727 23.1339336,20.3643682 22.6238359,20.8730455 Z" id="Shape"></path>
            </g>
        </g>
    </g>
</svg>