<svg height="18" viewBox="0 0 14 18" width="14" xmlns="http://www.w3.org/2000/svg"><path d="m14.7165064 113.231137c-.0620041-.226792-.1879157-.468444-.2810636-.680019-1.1146158-2.614229-3.5500282-3.551118-5.51650172-3.551118-2.63248094 0-5.53185084 1.722715-5.91894108 5.273635v.725472c0 .030276.01069176.302244.02587891.438287.21699409 1.692281 1.58525564 3.490804 2.60712852 5.183085 1.09938812 1.813107 2.24016631 3.59669 3.37037424 5.379521.69690824-1.163443 1.39130553-2.342182 2.07233813-3.475508.1856073-.332598.4010624-.664999.5868722-.98246.1238462-.211377.3604419-.422754.4685339-.619428 1.0993476-1.964328 2.8688741-3.943833 2.8688741-5.893261v-.800845c.0000405-.211337-.2683874-.951789-.2834936-.997361zm-5.74937141 3.641866c-.77381599 0-1.62081383-.377617-2.03888587-1.420471-.06228759-.166003-.0572657-.49868-.0572657-.529154v-.468444c0-1.329446 1.15665383-1.934013 2.16289406-1.934013 1.23878602 0 2.19687282.967244 2.19687282 2.176219 0 1.208936-1.0248293 2.175863-2.26361531 2.175863z" fill="none" stroke="#d7d5d5" transform="translate(-2 -108)"/></svg>