<svg height="16" viewBox="0 0 16 16" width="16" xmlns="http://www.w3.org/2000/svg"><path d="m14.125 1.25h-.75v-1.25h-1.25v1.25h-8.25v-1.25h-1.25v1.25h-.75c-1.033875 0-1.875.841125-1.875 1.875v11c0 1.033875.841125 1.875 1.875 1.875h12.25c1.033875 0 1.875-.841125 1.875-1.875v-11c0-1.033875-.841125-1.875-1.875-1.875zm.625 12.875c0 .344625-.280375.625-.625.625h-12.25c-.344625 0-.625-.280375-.625-.625v-8.25h13.5zm0-9.5h-13.5v-1.5c0-.344625.280375-.625.625-.625h.75v1.25h1.25v-1.25h8.25v1.25h1.25v-1.25h.75c.344625 0 .625.280375.625.625z" fill="#d7d5d5" transform=""/></svg>