<svg height="15" viewBox="0 0 15 15" width="15" xmlns="http://www.w3.org/2000/svg"><g fill="#d7d5d5" transform=""><path d="m12.8030303 2.1969697c-1.417298-1.41729798-3.29861111-2.1969697-5.3030303-2.1969697s-3.88573232.77967172-5.3030303 2.1969697-2.1969697 3.29861111-2.1969697 5.3030303.77967172 3.8857323 2.1969697 5.3030303 3.29861111 2.1969697 5.3030303 2.1969697 3.8857323-.7796717 5.3030303-2.1969697 2.1969697-3.29861111 2.1969697-5.3030303-.7796717-3.88573232-2.1969697-5.3030303zm-.602904 10.0031566c-1.2563132 1.2563131-2.9261364 1.947601-4.7001263 1.947601s-3.44381313-.6912879-4.70012626-1.947601c-2.59154041-2.59154044-2.59154041-6.80871216 0-9.40025256 1.25631313-1.25631313 2.92613636-1.94760101 4.70012626-1.94760101s3.4438131.69128788 4.7001263 1.94760101c2.5915404 2.5915404 2.5915404 6.80871212 0 9.40025256z"/><path d="m10.8719807 4.1280046c-.1706925-.1706728-.4444445-.1706728-.6151369 0l-2.7568438 2.75652674-2.7568438-2.75652674c-.17069243-.1706728-.44444444-.1706728-.61513688 0-.17069243.1706728-.17069243.44439333 0 .61506613l2.7568438 2.75652674-2.7568438 2.75652673c-.17069243.1706728-.17069243.4443933 0 .6150661.08373591.0837263.19645733.1288097.30595814.1288097.1095008 0 .22222222-.0418631.30595813-.1288097l2.7568438-2.7565267 2.75684381 2.7565267c.0837359.0837263.1964573.1288097.3059581.1288097.1127214 0 .2222222-.0418631.3059582-.1288097.1706924-.1706728.1706924-.4443933 0-.6150661l-2.75040262-2.75652673 2.75684382-2.75652674c.1706924-.1706728.1706924-.44439333 0-.61506613z"/></g></svg>