<svg height="112" viewBox="0 0 190 112" width="190" xmlns="http://www.w3.org/2000/svg"><g fill="#005e3c" fill-rule="evenodd" transform=""><path d="m55.8169229 32.9266696c0-17.2617364 19.2396274-31.30518829 42.8885193-31.30518829 21.9860378 0 40.1512148 12.14007019 42.5990268 27.71641509l-35.643988-3.6514177.519956-.4663538.869734-1.0529346 1.273201-1.2826313 1.421401-1.3427447.318065-.5261509-.173632-.7590115-.6377-.4081387-.928134-.3515055-.694217.4669866-.753245.9931375-.926564 1.1086187-.81196.8188085-.868792.8754417-.927506.6403665-.54947-.348658.984651-1.5756053.78119-1.2272636.926878-1.1095678.985593-1.2838968.694844-.9940867.40755-.6125245-.290748-.9042329-.347893-.2920248-1.101139.1752782-.695158 1.1086186-.811647 1.284846-.693902 1.1674665-.755444 1.2269473-.750733 1.108935-.696101.817543-.579298.7590114-.40598-.6713724.173946-.7011127.635502-1.1972068.639583-1.1674666.345696-.8169102.697356-1.1680993.812274-.9355552.636444-1.0497707.348207-1.0516691-.116801-.8169101-.405352-.407506-.870048.0569496-.608499.2907593-.550098.8767072-.638328 1.110517-.925936 1.4015926-.8132161 1.3427448-.5777288 1.2848459-.7551293 1.6933011-.2898064 1.6354023-.2298356 1.1076695-33.3192569-3.5609312-.9865349 1.0507199 1.5074328 1.1674666 1.6229786.9361879 2.2587943 1.3408464 2.1438765.9940867 1.3325442.6413156-1.1582836-2.6275906 20.6296305 2.5111604-8.055236 7.94162 10.8939571-.4682522-.4069221.8188085-.1136619.9342896.1739467.8744926.6948445.8188085.984651.991872.8678492.8767073.464381.8763908.0584009 1.0510363-.3460094.8156447-1.0446217.7590114-1.1585976.4094043-1.4490319.4084551-1.5064909.1762273-1.6794955.0578987-1.4490319-.1167466-1.4493459-.0588479-2.0270748-.1752782-1.5658337-.2331769-1.6232925-.1173794h-3.0704406l-.9862208.1173794-1.0417959.5840496-.8116463.7590115-.9855929 1.051669-.6939026.9921884-.2904344 1.3724851.2904344.7887518.8678492.348658 1.392829.1176958 1.3316023-.3508727.926878-.8188085.984651-.5815186 1.2763412-.1173794 1.968046.1173794 1.5667756.292974 1.910901.4062404 2.2019634.1755945 1.9137269.2926576 1.9702438.4084551 1.7369544.4090879 1.3322303.2910757.3488352.0588479v.7593278l-.9259361.5831005-1.6826354.817543-1.8540701.8767072-2.3746541 1.0507199-2.3168811.993454-2.2606782.8754417-2.7253732 1.1674665-3.0120397 1.1083023-2.839663.9355551-.1918437.0677068c-12.2227335-5.5218953-20.3866076-15.3950555-20.3866076-26.6365877zm53.6590811 17.4550486h2.089871l.651829.372387-2.348593 1.9201503zm-4.976318-15.8712173.128733-1.1734779.276619-1.0886863.636758-.2980361.654655.3727034.652142.3727034.78276.6413156.179913.6913047-.855604 1.6515381-1.19659.9042329-.608499-.2588043-.587148-.5868971zm-9.7934464-3.0388933 1.8273816-.5887954 1.763015-.6413156 1.5020951-.4783766 1.3702217-.2141937h1.630515l-1.239292.481224s-.913376.3189177-1.174296.372387c-.261862.0537858-1.3699085.4802749-1.3699085.4802749l-1.8302074.5337442-1.6967646.4274383-1.5677176.3198668-1.4352166.0537857-1.89426-.2141937 1.89426-.0531529zm-.9786852-2.2960175.5218399-.3733362 1.7614451-1.0130699 1.502095.2119791-1.3064836.481224-1.1742967.4271219zm5.6133895-.5331114-4.7000127 1.8138444-1.2414891-.1594589zm-5.4702132 25.5668846.5230958-.6944686 2.152668-.6391009v2.2409662zm47.7241723-21.2826937c0 4.6594254-1.412609 9.0809281-3.92416 13.0594896l-.372698.0784639-1.56395.5856316-1.622036.5239362-1.679496.4676194-2.030215.4669866-1.736954.1771765-1.972128.1730634-2.200079.1752782-2.550485.0578988-2.665088-.1176958-2.261306-.0566332-2.780949.0566332h-2.608257l-2.548915.1774928-1.043365-6.249268.405038-1.3424284.579613-1.2851623.812274-1.4003271.868791-1.6933011.869105-1.8685792.347893-1.6354024-.405352-1.576238-.811646-.9339732-1.158284-.9931376-.232033-.4094042 32.273693 3.2609967c.002198.1006109.010989.2002727.010989.3008836zm18.766455 8.1162654-.693588.2923412-.92939.2926576-.984651.3489744-1.272888.4103535-1.971499.5834168-1.970872.4666703-1.680438.3511891-1.447148.2910757-1.799123.234126-1.795041.3505564-1.854384.2920248-1.737582.2926576-1.854385.2910757-.614778.090803c2.218918-3.9108548 3.448476-8.2032718 3.448476-12.7041875 0-.045876-.005024-.0917521-.005024-.1373118l5.704445.5764564.390595-.5546257.189017-.6125245v-.7162992l-.102672-.7302203-.405352-.6283438-6.010892-.6153719c-2.319079-16.5558779-21.282402-29.5084288-44.2587418-29.5084288-24.5362081 0-44.4976826 14.7705083-44.4976826 32.9266696 0 11.4133301 7.8900809 21.4842319 19.8427889 27.3943336l-1.6537489.5179248-3.767169.8159611-1.6509231.2347588-1.8829566.1176958-2.1460743-.0594806-1.911843-.1154812-1.967732-.3518219-1.8553261-.4094042-1.854384-.7586951-1.2160565-.9925047-1.2179404-1.6354024-.5789848-1.6344531-.2907484-1.9277436-.9557645.6716888-.5488424.906764-.2342314 1.5177065.1177437 1.4003271.519956 1.6354023.5218399 1.3436939.5792987 1.5768708.6386416 1.4601241.0850895.7295875-.4329827.2629173-.7535594-.0591643-.8122743-.4084551-.8678492-.9352388-.7541874-.9912392-.462811-1.2259981-.4624971-1.7530981-.1168017 1.5781363-.1174297 1.5756053v1.6933011l.3478933 1.3427447.5811826 1.4601241 1.1001968 1.3724851 1.5074328.9032837 2.7225473.7023783 2.7812621.1176958 3.0129817-.0597971 2.839977-.0578987 2.8983778-.1173794 2.4908278-.1173795 2.0867316-.1154811 2.4908278-.2344424 2.6650884-.1740127 2.5514266-.1755945 2.2587943-.1752782 2.6666583-.2328605 2.6079435-.292974 2.6647744-.3505564 2.8983779-.4071895 3.4192758-.4695178 3.0701266-.408455 2.9555226-.4657211 2.839663-.4682522 2.722547-.4669866 2.955837-.6419484 3.41802-.7574295 3.536078-.7615426 3.418961-.815961 3.708769-.8194413 3.825255-1.1083022 4.343642-1.1108334 3.536706-1.0500871 3.360875-1.1083023 3.940174-1.225998 3.186928-1.167783 2.955523-1.1105169 3.188812-1.1674666 2.316567-.9940866 2.144504-.7580623 1.622351-.6134736 1.215743-1.0209796.638641-1.4034909.290434-1.7486688.229208-2.0460721.173947-1.5759216.232975-1.1092515.23172-.7593278.347893-.5834169z"/><path d="m30.1499138 75.3540282c.0498667.153667.100047.2563254.100047.3580215 0 .2556838-.2000941.5116884-.4500549.5116884-.2998275 0-.4999216-.2560046-.9998432-1.1253936-.9998432-1.7390989-2.9001097-3.8355776-5.0500235-5.5236681-2.3001411-1.7901073-4.5501019-2.5568378-7.5000784-2.5568378-7.50007841 0-11.25011761 6.0863648-11.25011761 18.2074444 0 6.0350356 1.25011761 9.9729509 4.0498667 12.4791011 2.20040771 2.0461119 5.35016461 3.1198559 9.05033711 3.1198559 3.6998589 0 6.8000628-1.1250733 9.0500236-3.273202 1.4495844-1.330069 2.7498824-3.3245308 3.4000313-4.961292.2000941-.6650345.4497413-.9200767.7997491-.9200767.4001882 0 .650149.3066922.650149.7667306-.0498667 1.3807566-1.4498981 3.7335607-3.1500706 5.4726595-2.7498824 2.7105046-6.2998275 4.0909406-10.5497883 4.0909406-10.74988236 0-18.3001411-7.4664798-18.3001411-18.1561152 0-5.4213303 1.85008625-10.1266177 5.15007057-13.3994985 2.89979614-2.8131633 7.25011763-4.6029498 11.04970993-4.6029498 1.2504312 0 2.6501489.2043546 4.7003293.6137053.6498353.1530253 1.0001568.2040337 1.2996707.2040337 1.3501646 0 2.4500548-.817739 2.6002822-1.994141.0498667-.5116884.1499138-.6650345.5002352-.6650345.1997805 0 .3496943.1533461.499608.5626968z"/><path d="m34.0689543 99.988142c-.8273222 0-1.0343149-.0998423-1.0343149-.4502324 0-.4508603.2585787-.5510166 1.1378113-.5510166h.6209783c1.2925692 0 2.2752982-.4499184 2.7927801-1.3014039.4655715-.7004661.6209783-2.1020263.6209783-5.5054566v-19.7719203c0-2.7528852-1.0865498-3.6040568-4.6553905-3.6539779-1.2928937-.0496072-1.5517969-.1004703-1.5517969-.5004675 0-.3500761.2589032-.5004676.8276466-.5004676 3.3105865 0 5.9998702-.8508575 8.3793137-2.5026515.2069928-.1503914.4655715-.2505477.5690679-.2505477.3104892 0 .4655715.2505477.4655715.8009364v.4006252c0 1.4015602-.2069928 5.5060845-.2069928 6.9572519v9.7104511c1.965458-1.3010899 2.9997729-1.8517925 5.4311268-3.1029613 2.4826154-1.2514827 3.5688408-1.6018728 4.9133204-1.6018728 1.913872 0 3.6207512 1.000935 4.1382331 2.3525741.3101648.8009364.3101648.8009364.3101648 4.5048355v7.1581924c0 3.7538203.1554067 5.0049891.7757362 5.7560043.5693923.7010941 1.5002109 1.0508562 2.6380222 1.0508562h.6209783c.8792326 0 1.1378113.1001563 1.1378113.5510166 0 .4003112-.2585787.5001534-1.2413077.4502324-1.2932181-.0499212-1.2932181-.0499212-5.1725481-.0499212h-1.344804c-3.4653444 0-3.4653444 0-4.7069766.0499212-.6203294.049921-.982729-.1497635-.982729-.5004675s.3623996-.5503887 1.0862254-.5503887c1.0862253.0496072 1.9654579-.2502337 2.4829399-.7507012.7238258-.7507013.8792325-1.9522629.8792325-6.4574124v-6.0564732c0-2.9035906-.1554067-3.9541329-.6722398-4.5550706-.5174819-.5500747-1.3970389-.9010927-2.327533-.9010927-1.6556177 0-4.810473 1.4015602-7.9656527 3.5544496v7.2074856c0 3.1035893.0519105 4.9054608.103172 5.4062422.4139855 1.9519489 1.3448041 2.6021799 3.7758335 2.5525727.5174819.0496072.7760607.1996847.7760607.5503887 0 .4006252-.3101647.5503885-.931143.5004675-.3104892-.0499212-.9308186-.0499212-1.9135476-.0499212h-4.3964874z"/><path d="m88.2489474 99.125287c.8561052 0 1.1074737.1026347 1.1074737.5131739 0 .3593826-.3018948.5128521-1.1576843.5128521-.4029473 0-1.0070526 0-1.8126315-.051156-.9565264-.051157-1.711579-.051157-2.3662106-.051157-.5535789 0-1.158 0-1.6613684.051157-.5033684.051156-1.0067368.051156-1.2078947.051156-.5036842 0-.6549474-.1534695-.6549474-.8207565 0-.1026348 0-.1531478.1007369-3.4876522-5.286 3.436174-8.6589474 5.0268527-10.6730527 5.0268527-1.9130526 0-3.5238947-1.0771831-4.128-2.7701744-.252-.7178-.252-.7178-.252-6.7195217v-3.590287c0-3.6417652-.2011579-4.6677913-1.0067368-5.2836-.7048421-.6148435-1.4602105-.7686348-3.5744211-.7686348-.5036842 0-.7550526-.154113-.7550526-.4620174 0-.3079043.2513684-.4616956.7550526-.5131739 2.4164211-.2049478 4.8331579-1.0253826 6.7964211-2.359313.8052631-.5640087.906-.615487 1.1074737-.615487.2014736 0 .352421.1541131.352421.4613739.0505263.2055913.0505263.2055913.0505263 9.1306348v4.2057739c0 4.5658 0 4.7704261.4029474 5.5908609.5030526.9233913 1.4595789 1.4880435 2.6684211 1.4880435 1.6610526 0 5.1347368-1.5903565 8.256-3.8467131v-7.0277478c0-3.6417652-.2014737-4.6677913-1.0067369-5.2836-.7048421-.6148435-1.4096842-.7686348-3.5242105-.7686348-.5033684 0-.7550526-.154113-.7550526-.4620174 0-.3079043.2516842-.4616956.7550526-.5131739 2.3662105-.2049478 4.7829474-1.0253826 6.7462105-2.359313.805579-.5640087.906-.615487 1.1074737-.615487s.3527368.1541131.3527368.4613739c.0502106.2055913.0502106.2055913.0502106 9.1306348v4.7704261c0 3.8467131.1509473 5.1288435.7550526 5.8984435.5538947.7184435 1.4602105 1.0768609 2.5676842 1.0768609z"/><path d="m106.874211 86.0977478c0-5.2324435-1.611158-7.3864869-5.437264-7.3864869-3.5747365 0-5.2863154 2.5131043-5.2863154 7.7963826 0 4.8209391 1.7617895 7.0782608 5.4372634 7.0782608 3.574421 0 5.286316-2.4107913 5.286316-7.4881565zm-12.536211 8.2062783c.8052632-.4616957 1.4605263-.7181218 3.1212632-.9745478-1.459579-.461374-2.1644211-.8719131-2.97-1.6929913-1.3591579-1.4359218-2.2152632-3.5391305-2.2152632-5.4879044 0-4.6166348 4.128-8.3610348 9.263368-8.3610348 1.158 0 2.01379.1541131 3.221685.5640087 2.064315-2.0002522 4.531579-3.1800695 6.393789-3.1800695 1.662 0 2.82.8722347 2.82 2.1035304 0 1.2818087-1.057579 2.2055217-2.466947 2.2055217-1.057263 0-1.963263-.5134956-2.869895-1.5388782-.352105-.4105392-.553263-.5640087-.906-.5640087-.554211 0-1.158316.4098956-2.064316 1.3336087 3.372948 1.4870782 5.085158 4.0001826 5.085158 7.4373217 0 4.7701044-3.927474 8.3610348-9.062526 8.3610348-.654632 0-1.359158-.0518-2.1142107-.2055913-.7550527-.1023131-1.4602106-.2049478-1.7624211-.2049478-1.5603158 0-2.8692631 1.026026-2.8692631 2.2055217 0 .6663217.4026315 1.1794957 1.1576842 1.4870783.7550526.3593826 2.316.4623391 7.4510527.6161304 4.632.154113 6.142105.4102174 7.803474 1.4870783 1.410315.872235 2.265473 2.564904 2.265473 4.30873 0 4.667792-4.883368 7.796383-12.183158 7.796383-6.1421049 0-10.6730523-2.359635-10.6730523-5.539383 0-1.897939 1.4093685-3.180069 3.4736842-3.180069.3521053 0 .4525264 0 .6543158.153469-1.0067368.820757-1.4093684 1.69267-1.4093684 2.923644 0 2.9748 3.0202105 4.719269 8.2057897 4.719269 5.487473 0 8.961789-1.949417 8.961789-5.078008 0-1.333609-.705158-2.359635-1.963579-2.821331-1.20821-.461374-2.819368-.615487-6.394105-.7178-5.2856842-.154113-6.4439999-.307904-8.0548421-1.026348-1.2587368-.614843-2.0643157-1.8464604-2.0643157-3.2823821 0-1.5388783.8561052-3.0780783 2.1647368-3.8470348z"/><path d="m128.789033 88.0691924c-6.85751.0509743-10.746877 2.2996153-10.746877 6.1842435 0 2.5041538 1.893808 4.3953333 4.401016 4.3953333 3.633543 0 6.345861-3.1180898 6.345861-7.3088846zm3.786652 6.0306794c0 2.7599871.051037 3.1690641.409576 3.7310641.408935.5626411 1.074335.8694488 1.841488.8694488 1.17737 0 1.996201-.7162053 2.405456-1.942795.102394-.4084358.256467-.5619999.409576-.5619999.204467 0 .358219.2045384.358219.4600512 0 2.0447437-2.456493 4.088846-4.912666 4.088846-1.381516 0-2.507529-.460372-3.17293-1.2269101-.818189-.9707563-.920583-1.328859-1.074334-3.5778206 0-.1022692 0-.3068077-.051037-.6136154-1.893487 3.629436-4.964344 5.6738591-8.443814 5.6738591-3.684259 0-6.345219-2.4531794-6.345219-5.7761283 0-3.3729615 2.405136-5.7241923 7.061335-7.0014357 1.944844-.5623206 3.889367-.818154 7.727698-1.0223719v-1.6356667c0-3.0148588-.102394-3.6797691-.768116-4.7531153-.715795-1.1243205-2.302741-1.8908589-3.991119-1.8908589-2.917106 0-4.963702 1.1243205-4.963702 2.7596666 0 .357782 0 .357782.408613 1.2262691.102715.1535642.153752.409077.153752.7158847 0 1.3291796-1.074656 2.4025257-2.455852 2.4025257-1.279443 0-2.149311-1.0226924-2.149311-2.4535 0-2.913872 4.400375-5.5712693 9.262646-5.5712693 2.9675 0 5.525745.9204232 7.112692 2.6067436.869867.919782 1.279443 1.942795 1.228086 3.7310641l-.051037 1.5843718z"/><path d="m153.31947 98.9555769c2.943263 0 5.23817-1.0226924 7.632583-3.4248975.349211-.3068077.54885-.4594101.698423-.4594101.199951 0 .349524.1526024.349524.3061665 0 .5623205-.898374 1.5340387-2.544299 2.7603078-2.643805 1.9934484-5.13835 2.8622564-8.480578 2.8622564-6.485129 0-10.975123-4.2933846-10.975123-10.4776282 0-7.2582309 5.387429-12.5223718 12.770933-12.5223718 4.389862 0 7.782469 1.9424744 7.782469 4.4472694 0 1.277564-1.097701 2.2486409-2.544299 2.2486409-1.596797 0-2.444792-1.0223718-2.494858-2.9648462 0-1.8398846-1.246647-2.8106409-3.641686-2.8106409-4.838579 0-8.081301 3.5268462-8.081301 8.8419615 0 2.7086922.948128 5.621923 2.543986 7.7682947 1.646863 2.2489615 4.090716 3.4248975 6.984226 3.4248975"/><path d="m162.068977 99.988142c-.827331 0-1.034651-.0998423-1.034651-.4502324 0-.4508603.258906-.5510166 1.138148-.5510166h.620661c1.292907 0 2.275971-.4499184 2.793135-1.3014039.465252-.7004661.62066-2.1020263.62066-5.5054566v-19.7719203c0-2.7528852-1.086237-3.6040568-4.655441-3.6539779-1.292907-.0496072-1.551489-.1004703-1.551489-.5004675 0-.3500761.258582-.5004676.827656-.5004676 3.310297 0 5.99961-.8508575 8.379079-2.5026515.206995-.1503914.465577-.2505477.569399-.2505477.310168 0 .465252.2505477.465252.8009364v.4006252c0 1.4015602-.206671 5.5060845-.206671 6.9572519v9.7104511c1.964831-1.3010899 2.999481-1.8517925 5.430862-3.1029613 2.482642-1.2514827 3.569203-1.6018728 4.913698-1.6018728 1.913568 0 3.621114 1.000935 4.137953 2.3525741.310168.8009364.310168.8009364.310168 4.5048355v7.1581924c0 3.7538203.155408 5.0049891.775745 5.7560043.569398.7010941 1.500227 1.0508562 2.638375 1.0508562h.62066c.879567 0 1.137824.1001563 1.137824.5510166 0 .4003112-.258257.5001534-1.241321.4502324-1.293557-.0499212-1.293557-.0499212-5.172604-.0499212h-1.344494c-3.465707 0-3.465707 0-4.707028.0499212-.62066.049921-.982739-.1497635-.982739-.5004675s.362079-.5503887 1.086237-.5503887c1.086237.0496072 1.965479-.2502337 2.482966-.7507012.723834-.7507013.878918-1.9522629.878918-6.4574124v-6.0564732c0-2.9035906-.155084-3.9541329-.672247-4.5550706-.517487-.5500747-1.396405-.9010927-2.327883-.9010927-1.654986 0-4.810525 1.4015602-7.96509 3.5544496v7.2074856c0 3.1035893.051587 4.9054608.103174 5.4062422.413665 1.9519489 1.344818 2.6021799 3.775874 2.5525727.516839.0496072.775744.1996847.775744.5503887 0 .4006252-.310492.5503885-.930828.5004675-.310493-.0499212-.930829-.0499212-1.913893-.0499212h-4.39621z"/></g></svg>