<?xml version="1.0" encoding="UTF-8"?>
<svg width="30px" height="44px" viewBox="0 0 30 44" version="1.1" xmlns="http://www.w3.org/2000/svg" xmlns:xlink="http://www.w3.org/1999/xlink">
    <!-- Generator: Sketch 53.2 (72643) - https://sketchapp.com -->
    <title>places copy 3</title>
    <desc>Created with Sketch.</desc>
    <g id="Mockups" stroke="none" stroke-width="1" fill="none" fill-rule="evenodd">
        <g id="Contact" transform="translate(-1070.000000, -827.000000)" fill="#ECECEC" fill-rule="nonzero">
            <g id="Group-16" transform="translate(936.000000, 605.000000)">
                <path d="M163.291266,232.951178 C163.136256,232.364188 162.821477,231.738734 162.588607,231.191129 C159.802067,224.424888 153.713536,222 148.797353,222 C142.21615,222 134.967726,226.458791 134,235.649408 L134,237.527101 C134,237.605462 134.026729,238.309379 134.064697,238.661491 C134.607183,243.041512 138.027836,247.696512 140.582519,252.076533 C143.330989,256.769282 146.182934,261.385613 149.008454,266 C150.750725,262.988736 152.486718,259.937881 154.189299,257.004569 C154.653318,256.143725 155.191956,255.283393 155.65648,254.46173 C155.966096,253.914636 156.557585,253.367543 156.827815,252.858505 C159.576184,247.774362 164,242.650936 164,237.60536 L164,235.532583 C164.000101,234.985592 163.329031,233.069128 163.291266,232.951178 Z M149.288865,242 C147.336516,242 145.199528,241.045563 144.144727,238.409723 C143.987574,237.990146 144.000244,237.149295 144.000244,237.072273 L144.000244,235.888267 C144.000244,232.528058 146.918499,231 149.457258,231 C152.582733,231 155,233.444733 155,236.50045 C155,239.556066 152.414341,242 149.288865,242 Z" id="places-copy-3"></path>
            </g>
        </g>
    </g>
</svg>