<svg height="61" viewBox="0 0 61 61" width="61" xmlns="http://www.w3.org/2000/svg" xmlns:xlink="http://www.w3.org/1999/xlink"><defs><circle id="a" cx="24.5" cy="24.5" r="24.5"/><filter id="b" height="138.8%" width="138.8%" x="-17.3%" y="-17.3%"><feOffset dx="1" dy="1" in="SourceAlpha" result="shadowOffsetOuter1"/><feGaussianBlur in="shadowOffsetOuter1" result="shadowBlurOuter1" stdDeviation="3"/><feColorMatrix in="shadowBlurOuter1" type="matrix" values="0 0 0 0 0.592   0 0 0 0 0.592   0 0 0 0 0.592  0 0 0 1 0"/></filter></defs><g fill="none" fill-rule="evenodd" transform="translate(5 5)"><use fill="#000" filter="url(#b)" xlink:href="#a"/><use fill="#fff" fill-rule="evenodd" xlink:href="#a"/><path d="m18.4041042 36.6211929c.2624109.2480207.6218447.3788071.9671222.3788071s.7040209-.1307864.9662591-.3788071l10.2619926-9.7049735c.2622383-.2480208.4005219-.5745786.4005219-.9145254 0-.3392936-.1382836-.6658515-.4005219-.9146886l-10.2619926-9.7048102c-.5388055-.5095936-1.3945758-.5095936-1.9333813 0-.5388056.5095935-.5388056 1.3189672 0 1.8285608l9.2948703 8.790938-9.2948703 8.790938c-.5246492.5095936-.5246492 1.3323562 0 1.8285609z" fill="#424242" transform="matrix(0 1 -1 0 50.5 1.5)"/></g></svg>