<svg height="46" viewBox="0 0 231 46" width="231" xmlns="http://www.w3.org/2000/svg"><g fill="#fff" fill-rule="evenodd" transform=""><path d="m102.497045 16.2621568c.040517.1256205.081289.2088441.081289.2923294 0 .2085824-.162578.4169031-.365673.4169031-.243867 0-.40619-.2083207-.812636-.9178149-.81238-1.4184648-2.3563618-3.1287356-4.1031838-4.5058504-1.868883-1.4603384-3.6967393-2.08608553-6.0936186-2.08608553-6.0938735 0-9.1408102 4.96541213-9.1408102 14.85357783 0 4.9230152 1.0157305 8.1354979 3.290549 10.1802333 1.7878487 1.6689208 4.3470513 2.5451238 7.353471 2.5451238 3.0061648 0 5.5248502-.9180765 7.3532166-2.6704826 1.177798-1.0850471 2.234301-2.7120943 2.762552-4.0470739.162578-.5425235.365418-.7505825.649803-.7505825.325156 0 .527996.2501942.527996.6252237-.040517 1.1266589-1.177799 3.0460355-2.559203 4.4645004-2.2345558 2.2111826-5.1186596 3.3378415-8.5720414 3.3378415-8.7343651 0-14.8687556-6.0915476-14.8687556-14.8117043 0-4.4226269 1.5032098-8.2613802 4.1844733-10.9310776 2.3561075-2.29519129 5.8907783-3.75552965 8.9779773-3.75552965 1.0157305 0 2.1530123.16723229 3.8188002.50091176.5282512.12483538.8126354.16670888 1.0562476.16670888 1.0970195 0 1.9906891-.66762064 2.1127501-1.62704725.0405171-.41768817.1215512-.54226184.4064451-.54226184.1620683 0 .2841293.12457367.4059354.45903826z"/><path d="m104.586215 36.9900717c-.634535 0-.792983-.0827262-.792983-.3727882 0-.3735687.198246-.4568152.872332-.4568152h.476088c.990981 0 1.744414-.372528 2.140906-1.0783022.357191-.5801241.476088-1.7416728.476088-4.5616478v-16.3821299c0-2.2814742-.832781-2.986468-3.568922-3.0278311-.991229-.0411029-1.189724-.0832465-1.189724-.4144114 0-.2903222.198495-.4146716.634536-.4146716 2.538144 0 4.59995-.70525394 6.42421-2.0741385.158696-.12434945.356942-.2073358.43629-.2073358.238044 0 .356942.2073358.356942.66363065v.3319454c0 1.16128865-.158945 4.56216805-.158945 5.76481975v8.0457738c1.506868-1.0783022 2.3001-1.5345971 4.164158-2.571016 1.90311-1.0369391 2.736141-1.3272613 3.767168-1.3272613 1.467069 0 2.775939.8293432 3.172431 1.9492687.237796.6633706.237796.6633706.237796 3.7323046v5.9310527c0 3.1105573.119146 4.1472363.594737 4.7695039.43629.5809044 1.149926.8704461 2.022506.8704461h.476088c.673837 0 .872083.0832465.872083.4568152 0 .3316852-.198246.4144114-.951431.3727882-.991478-.041103-.991478-.041103-3.965663-.041103h-1.031027c-2.656793 0-2.656793 0-3.608722.041103-.475839.0416232-.753433-.1238292-.753433-.4144115 0-.2908424.277594-.4557745.832533-.4557745.83303.0405826 1.507116-.2078561 1.903856-.6225277.554939-.6220075.674335-1.6173234.674335-5.3501482v-5.0179427c0-2.4060838-.119396-3.2767901-.515887-3.7747082-.396492-.4557746-1.070826-.7463569-1.784213-.7463569-1.26932 0-3.688318 1.1612886-6.107315 2.9448448v5.9721556c0 2.5715362.040047 4.0642499.079348 4.4794418.317144 1.6173234 1.031028 2.1558241 2.894588 2.1152415.39699.0405826.595235.1649321.595235.4557745 0 .3316853-.237795.4560347-.713884.4144115-.238044-.041103-.713635-.041103-1.467317-.041103h-3.370428z"/><path d="m147.494281 35.5607826c.681713 0 .881877.0834783.881877.4163478 0 .2913913-.240398.4155653-.92186.4155653-.320865 0-.801912 0-1.443392-.0412174-.761929-.0417392-1.362924-.0417392-1.884204-.0417392-.441065 0-.922363 0-1.322942.0417392-.40083.0412174-.801661.0412174-.962093.0412174-.400831 0-.521281-.124174-.521281-.6652174 0-.0832174 0-.1244348.080216-2.8278261-4.209222 2.7858261-6.895087 4.0755652-8.49866 4.0755652-1.523609 0-2.806568-.8733913-3.287363-2.246087-.200667-.5817391-.200667-.5817391-.200667-5.448v-2.9110434c0-2.9530435-.160181-3.7844348-.801661-4.284-.561263-.4987827-1.16276-.6234783-2.846046-.6234783-.401334 0-.601749-.1249565-.601749-.3746087s.200415-.3743478.601749-.4155652c1.923935-.1666957 3.848374-.8316522 5.411713-1.9132174.641228-.4570435.721445-.4990435.881877-.4990435.160433 0 .280632.1249565.280632.374087.040234.1666956.040234.1666956.040234 7.4032174v3.4100869c0 3.7017391 0 3.8676522.320865 4.5331305.400831.7484347 1.162509 1.2065217 2.124603 1.2065217 1.322941 0 4.089023-1.2894783 6.574473-3.1192174v-5.697913c0-2.9530435-.160181-3.7844348-.80166-4.284-.561264-.4987827-1.122527-.6234783-2.806316-.6234783-.400831 0-.601246-.1249565-.601246-.3746087s.200415-.3743478.601246-.4155652c1.883953-.1666957 3.808643-.8316522 5.371982-1.9132174.64148-.4570435.721445-.4990435.881877-.4990435.160433 0 .280632.1249565.280632.374087.040234.1666956.040234.1666956.040234 7.4032174v3.8676521c0 3.1192174.120199 4.1587826.601245 4.7827826.441065.5825218 1.162509.8728696 2.044638.8728696z"/><path d="m162.325509 24.9981739c0-4.2427826-1.282959-5.9887826-4.329673-5.9887826-2.846549 0-4.209725 2.0373913-4.209725 6.3208696 0 3.9088695 1.403158 5.7391304 4.329924 5.7391304 2.846298 0 4.209474-1.9544348 4.209474-6.0712174zm-9.982538 6.6534783c.641228-.3743479 1.163011-.5822609 2.48545-.7901739-1.162257-.3738261-1.723772-.7066957-2.365-1.3726957-1.082292-1.164-1.764006-2.8695652-1.764006-4.4493913 0-3.7434783 3.287111-6.7792174 7.376386-6.7792174.922111 0 1.603573.1249565 2.565415.4570435 1.643807-1.6215652 3.60848-2.5781739 5.091351-2.5781739 1.323445 0 2.245556.7074782 2.245556 1.7055652 0 1.0393043-.842146 1.7882609-1.964673 1.7882609-.841643 0-1.563087-.4163479-2.285035-1.2477392-.28038-.3326087-.440561-.4575652-.721696-.4575652-.441315 0-.922111.3326087-1.643555 1.0818261 2.685865 1.2054783 4.049292 3.2428696 4.049292 6.03 0 3.8676522-3.127433 6.7789565-7.216456 6.7789565-.521281 0-1.082292-.0417391-1.683538-.1666956-.601246-.0829565-1.16276-.1659131-1.403409-.1659131-1.242474 0-2.284784.8319131-2.284784 1.7882609 0 .5402609.320614.9563478.92186 1.2054783.601245.2916521 1.844222.3751304 5.933245.499826 3.688445.1249566 4.890936.3323479 6.213877 1.2054783 1.12303.7072174 1.803989 2.0799131 1.803989 3.4938261 0 3.7846956-3.888608 6.3213913-9.701404 6.3213913-4.891187 0-8.498912-1.9132174-8.498912-4.4916522 0-1.5388695 1.122275-2.5781739 2.766082-2.5781739.28038 0 .360345 0 .521029.1241739-.801661.6654783-1.122275 1.3726957-1.122275 2.3707826 0 2.412 2.404983 3.8264348 6.53424 3.8264348 4.369404 0 7.135988-1.5808695 7.135988-4.1173043 0-1.0810435-.561263-1.9132174-1.563339-2.2875652-.962345-.374087-2.245053-.4990435-5.091602-.582-4.209222-.1246957-5.131334-.2496522-6.414041-.8319131-1.002579-.4987826-1.643807-1.4976522-1.643807-2.6616522 0-1.248.681713-2.4957391 1.723772-3.1194782z"/><path d="m181.707984 26.8800965c-5.428861.0401444-8.507944 1.7999749-8.507944 4.8401611 0 1.9595489 1.499265 3.4396231 3.484138 3.4396231 2.876555 0 5.023806-2.4400273 5.023806-5.7198255zm2.997767 4.7199788c0 2.1597691.040404 2.4801717.324248 2.919753.323739.4405849.850515.6806986 1.457844.6806986.931831 0 1.580326-.5607672 1.90432-1.5207204.081062-.3193989.202781-.4395812.324247-.4395812.16187 0 .28359.1598249.28359.3597942 0 1.6005074-1.944724 3.2000112-3.889448 3.2000112-1.093446 0-1.984873-.3602961-2.511649-.9599532-.647733-.7597329-.728795-1.0399911-.850515-2.8000725 0-.0800379 0-.2401137-.040404-.4804784-1.499264 2.8404678-3.930105 4.4404734-6.684686 4.4404734-2.916704 0-5.023298-1.9196554-5.023298-4.5202604 0-2.6397457 1.904066-4.4798651 5.590223-5.4797117 1.539669-.4400831 3.079083-.6400524 6.117761-.8001283v-1.2801048c0-2.3594876-.081316-2.8798595-.608091-3.7198812-.566671-.8796644-1.823258-1.4793215-3.159636-1.4793215-2.309376 0-3.929598.8794135-3.929598 2.1595183 0 .2797563 0 .2797563.323486.9594514.081316.1201823.12172.3206534.12172.5607672 0 1.0397401-.850769 1.8797619-1.94447 1.8797619-1.012639 0-1.701284-.8003792-1.701284-1.9201572 0-2.2799515 3.48363-4.3599337 7.332928-4.3599337 2.349271 0 4.374548.7205921 5.630881 2.0400887.688645.7198394 1.012893 1.5202185.972235 2.919753l-.040404 1.2402113z"/><path d="m200.971344 36.1812174c2.410287 0 4.289625-.8321739 6.25045-2.7866087.285975-.2496522.449462-.3738261.57195-.3738261.163743 0 .285975.1241739.285975.2491304 0 .4575653-.735438 1.2482609-2.083313 2.2458261-2.165312 1.6223479-4.207881 2.3290435-6.944887 2.3290435-5.311038 0-8.987713-3.4933043-8.987713-8.5257391 0-5.9058261 4.411857-10.1893044 10.458075-10.1893044 3.595188 0 6.373194 1.5806087 6.373194 3.6187826 0 1.0393044-.898669 1.8294783-2.083312 1.8294783-1.307644 0-2.002082-.831913-2.043082-2.4125217 0-1.4968696-1.0209-2.2865218-2.982237-2.2865218-3.962394 0-6.617913 2.8695652-6.617913 7.1942609 0 2.2040869.776438 4.5748696 2.083313 6.3213913 1.348644 1.8297391 3.349956 2.7866087 5.7195 2.7866087"/><path d="m208.813619 37.2622609c-.653438 0-.817181-.0829566-.817181-.3738261 0-.3746087.204487-.458087.898925-.458087h.490206c1.021156 0 1.797594-.3735652 2.206056-1.0813043.367463-.5817392.490206-1.7465218.490206-4.5743478v-16.4277392c0-2.2878261-.857925-2.9947826-3.676931-3.0362608-1.021156-.0412174-1.225387-.0834783-1.225387-.4155653 0-.2911304.204231-.4158261.653693-.4158261 2.614519 0 4.738575-.70721734 6.617913-2.079913.163231-.12469565.367719-.20791304.449719-.20791304.244975 0 .367462.20791304.367462.66547826v.33286957c0 1.16452171-.163231 4.57486961-.163231 5.78086961v8.0681739c1.55185-1.0813044 2.369031-1.5388696 4.289369-2.5781739 1.960825-1.0398261 2.819006-1.3309566 3.880906-1.3309566 1.511362 0 2.85975.8316522 3.268212 1.9546957.244975.6652174.244975.6652174.244975 3.7426956v5.9475653c0 3.1192173.122744 4.1587826.612694 4.7827826.449719.5825217 1.1849.8728695 2.083825.8728695h.490206c.694694 0 .898669.0834783.898669.458087 0 .3326087-.203975.4155652-.980669.3738261-1.021412-.0412174-1.021412-.0412174-4.085137-.0412174h-1.0619c-2.737263 0-2.737263 0-3.717675.0412174-.490206.0417391-.776438-.1241739-.776438-.4155652 0-.2916522.286232-.4570435.858182-.4570435.857925.0406956 1.552362-.2084348 1.960825-.6242609.57195-.6237391.694437-1.6218261.694437-5.3650435v-5.031913c0-2.4127826-.122487-3.2859131-.53095-3.7852174-.408719-.4570435-1.103156-.7484348-1.838594-.7484348-1.307131 0-3.799418 1.1645217-6.290937 2.9530435v5.9887826c0 2.5786956.040744 4.0755652.081487 4.491913.326719 1.6218261 1.0619 2.1618261 2.982238 2.1211305.408206.0406956.612694.1653913.612694.4570435 0 .3326086-.245232.4573043-.735182.4155652-.245231-.0412174-.735181-.0412174-1.511618-.0412174h-3.472188z"/><path d="m4.55833205 19.0951173c0-9.92098767 11.21923555-17.99267286 25.00966795-17.99267286 12.8203089 0 23.4129266 6.9775926 24.8404633 15.92976546l-20.7849035-2.0983395.3032433-.2680185.5071042-.6051297.7423089-.7374938.8289498-.7716605.1855135-.3021852-.1014208-.436321-.3717915-.2346111-.541251-.202216-.4046641.2685247-.4393204.5707098-.5404865.6372716-.4734672.4704877-.5063398.5031358-.5409961.3682407-.3203166-.2004444.5741235-.9055432.4556294-.7053519.5404865-.6377777.5746332-.738.4051737-.5712161.2374981-.3520432-.1694595-.51958642-.2028417-.16804939-.6421621.1007284-.4054286.63727161-.4732124.7385062-.4046641.6709321-.4403397.7053518-.4377915.6370185-.4059383.4699815-.3376447.436321-.2367336-.3857037.1014208-.4031667.3705174-.6881419.3728108-.6709321.2018224-.4694753.4064479-.6714383.473722-.53755558.371027-.60335802.2030965-.60462346-.0682934-.46947531-.2362239-.23410493-.5073591.03290123-.354973.16703704-.3205714.50364197-.3723012.63828395-.539722.80557411-.4742316.7716605-.3371352.7385061-.4403397.9733704-.1689499.9397099-.1340386.6367654-19.42922776-2.0467099-.57514286.6041173.87889572.6709321.9466796.5380617 1.3169421.7706482 1.2501776.571216.7769652.368747-.6755444-1.5101667 12.0298378 1.4430988-4.6972123 4.5644135 6.3525637-.2690308-.2372432.4704876-.0665097.5367963.1014209.5028827.4054285.4704877.5741236.5702037.5058301.503642.2708803.503895.0341467.6038642-.2018224.4689692-.6090347.436321-.6757993.2351172-.8450038.2348642-.8783861.1012346-.9792973.0334074-.8450039-.067321-.8450038-.0334074-1.1823939-.1009815-.9127876-.1338827-.9464247-.0675741h-1.7906641l-.5751429.0675741-.6075058.3355926-.4734671.436321-.5743784.6041173-.4046641.5704568-.1694595.7888703.1694595.4532778.5060849.2004445.8121313.067574.7764556-.2017098.5404865-.4704877.5743784-.3340741.7440926-.067574 1.1474827.067574.9138069.1683025 1.1141004.2333457 1.2843243.1012346 1.1158842.1677962 1.1487568.2348642 1.0129343.2348642.7769653.1672902.2033513.0341666v.436321l-.5399768.3350864-.9813359.4699815-1.0812278.5041482-1.3844711.6036111-1.3513436.5709629-1.3179614.5033889-1.5890965.6709321-1.7567722.6367655-1.655861.5378086-.1116139.0389753c-7.12749036-3.1737037-11.88815445-8.8484074-11.88815445-15.3091975zm31.29011585 10.0320926h1.2185791l.3802008.213858-1.3696911 1.1037099zm-2.9017066-9.1219939.0749189-.6744753.1613051-.6253765.3712818-.1713395.3817297.2141111.3802008.2141111.4566487.3684938.1047335.3973457-.4989498.9493272-.6977142.5195864-.3547182-.1488148-.3424865-.3371111zm-5.7109112-1.7465493 1.0654286-.3383766 1.0282239-.3687469.8758379-.2748518.7988803-.122747h.9510116l-.7226873.2763704s-.5328417.1829815-.684973.213858c-.1526409.0308766-.7986255.2761173-.7986255.2761173l-1.0672123.3067408-.9894904.2457469-.9143166.1837407-.8368494.0308766-1.104417-.123 1.104417-.0303704zm-.5708108-1.3198457.3042626-.2143642 1.0272046-.5820988.8760927.1217346-.7619306.2766234-.6847181.2454939zm3.2732432-.3059815-2.7406563 1.0422099-.7239614-.0913642zm-3.1896602 14.6944506.305027-.3991173 1.2552742-.3674814v1.2877037zm27.8290657-12.2321728c0 2.6779074-.8235985 5.2191481-2.288085 7.5055308l-.2173668.0453025-.9120231.336605-.9459151.3011728-.9792973.2690309-1.1839228.2677654-1.0126795.1022469-1.1500309.0992099-1.2830502.1009815-1.487166.0331543-1.5541854-.0675741-1.3187258-.0326481-1.6214595.0326481h-1.5210579l-1.4861467.1017408-.6085251-3.5915494.2362239-.7714074.3378996-.7387593.473722-.8048148.5065946-.9731173.5068495-1.0740988.2028417-.9399629-.236224-.9057963-.4734672-.5370494-.6755444-.5707099-.1353127-.2351173 18.8196834 1.8743581c.0012741.0577037.0063707.1149012.0063707.172858zm10.9432586 4.6646358-.4044092.1680494-.5420155.1683024-.5741235.2001914-.7423089.2358765-1.1497761.3355926-1.1490115.2682716-.9800618.2017099-.8437298.1672901-1.0491196.134642-1.0468263.2014568-1.0812278.1677963-1.0131892.1680494-1.0814826.1672901-.3585406.0521358c1.2940078-2.2474074 2.0110889-4.7144938 2.0110889-7.3012901 0-.0265741-.0028031-.0528951-.0028031-.0792161l3.3262471.3315432.2278146-.3188888.110085-.3522963v-.4115186l-.0598842-.4193642-.2364788-.3614074-3.5048803-.3535617c-1.3523629-9.51529012-12.4102934-16.95982715-25.8082934-16.95982715-14.3079846 0-25.94793822 8.48927777-25.94793822 18.92453705 0 6.5594938 4.60088803 12.3478333 11.57089572 15.7447592l-.9642625.2973766-2.1968572.4692222-.9624787.1348951-1.09830118.067574-1.25119692-.0341666-1.11486486-.0663087-1.14748263-.202216-1.08199227-.2353704-1.0812278-.4360679-.70918147-.5704568-.71020077-.9397099-.33764479-.9394567-.16945946-1.1082655-.55730502.3862099-.32006178.5208519-.13658687.8726419.06854826.8048148.30324325.939963.30426255.7724198.33789961.9060493.37230116.8392346.04943629.4193642-.25227799.1508395-.43932046-.0334074-.47372201-.2348642-.50608494-.5378086-.43983012-.5696976-.269861-.7045926-.26986101-1.007537-.06803861.9070617-.06854826.9055432v.9731173l.20309653.7719136.33891891.8392346.64139769.7888703.87915058.5190803 1.58756756.4034197 1.62171429.0680803 1.75702703-.0346728 1.65611583-.0334075 1.69000768-.067574 1.4525097-.067321 1.2167954-.0663087 1.4525096-.1346419 1.5541853-.1002223 1.4876757-.1007283 1.3171969-.1007284 1.5549498-.1338828 1.5208031-.1683024 1.5536757-.2017099 1.6902625-.2341049 1.9937607-.2695371 1.7904092-.2348642 1.7236448-.2675123 1.655861-.269284 1.5875676-.2685247 1.72339-.3684938 1.9932509-.4355617 2.0617992-.4375864 1.9940155-.4692223 2.1624556-.4707407 2.230749-.6372716 2.5327182-.638284 2.0623088-.603358 1.9598688-.6372716 2.2977683-.7045926 1.8581931-.6711852 1.7236448-.6382839 1.8592123-.670679 1.3510888-.5717223 1.2504324-.4358148.9459151-.3520432.7089266-.5874136.372556-.8063333.1692047-1.0052592.1337837-1.1758396.1014209-.9057963.1358224-.6372716.1350579-.436574.2028417-.3353395z"/></g></svg>