<svg height="42" viewBox="0 0 49 42" width="49" xmlns="http://www.w3.org/2000/svg"><g fill="#64a70b" transform=""><path d="m47.9398008 1.07367273c-.6829375-.68087727-1.5072285-1.02193637-2.4727774-1.02193637h-41.96936129c-.96564453 0-1.79003125.34134546-2.47306445 1.02193637-.6828418.68145-1.02459766 1.5036-1.02459766 2.46664091v34.88357726c0 .9630409.34137305 1.7849046 1.02459766 2.4663546.68341601.68145 1.50732422 1.0224136 2.47306445 1.0224136h41.96878709c.965836 0 1.7902227-.3409636 2.4734473-1.0224136.6825547-.68145 1.0244062-1.5033137 1.0244062-2.4663546v-34.88357726c-.0000957-.96265909-.3419472-1.78480909-1.0245019-2.46664091zm-40.9449551.72220909h10.4925078v3.48848182h-10.4925078zm38.4722734 36.62800908h-41.96945699v-3.4883864h41.96945699zm-31.4775234-15.6430909c0-2.8887409 1.0249805-5.3552864 3.0740801-7.3992545 2.0495781-2.0437773 4.5220683-3.0657137 7.4184277-3.0657137 2.8965508 0 5.3693281 1.0220318 7.4185235 3.0657137 2.0491953 2.0439681 3.0736972 4.5105136 3.0736972 7.3992545 0 2.8890273-1.0245019 5.3552864-3.0736972 7.3991591-2.0491954 2.0439682-4.5219727 3.0660954-7.4185235 3.0660954-2.8963594 0-5.3688496-1.0221272-7.4184277-3.0660954-2.0493867-2.0438727-3.0740801-4.5101318-3.0740801-7.3991591zm31.4774277-15.47929091v3.21548181h-41.96936129v-3.48809999h17.59683789l1.7485918-3.48819546h22.6239316z"/><path d="m29.4275625 27.7137c1.3663535-1.3628045 2.0495781-3.0069136 2.0495781-4.9329 0-1.9257-.6832246-3.5700955-2.0495781-4.9326136-1.3659707-1.3626137-3.0143613-2.0440637-4.945459-2.0440637-1.9310019 0-3.5792969.68145-4.9457461 2.0440637-1.365875 1.3625181-2.0490996 3.0069136-2.0490996 4.9326136 0 1.9259864.6828418 3.57 2.0490996 4.9329 1.3663535 1.3625182 3.0150313 2.0438727 4.9457461 2.0438727 1.9310977 0 3.5793926-.6813545 4.945459-2.0438727zm-6.8037266-6.8406545c-.5100976.5089636-.764955 1.12665-.764955 1.85325 0 .2543863-.0818262.4634318-.2459571.6267545-.1639394.1637045-.3731465.2449364-.6284824.2449364-.2551445 0-.4644473-.0813273-.6284824-.2449364-.1639395-.1633227-.2457656-.3723682-.2457656-.6267545 0-1.1991955.42808-2.2254273 1.2841445-3.0794591.8562559-.8538409 1.8854473-1.2807137 3.0877656-1.2807137.2548574 0 .4644473.0815182.6284824.2451273.1641309.1631318.2459571.3721773.2459571.6264682 0 .2544818-.0818262.4635273-.2463399.6272318-.1640351.1635136-.373625.2451273-.6283867.2451273-.7286836.0000954-1.3478828.2542909-1.8579805.7629682z"/></g></svg>