<svg height="47" viewBox="0 0 47 47" width="47" xmlns="http://www.w3.org/2000/svg"><g fill="#64a70b" transform=""><path d="m46.2170583.00000002c-.0000979 0-.0002937 0-.0003917 0h-45.43333325c-.43249791-.00009792-.78323541.35044375-.78333333.78294167v.00039166 45.43333325c-.00009792.432498.35044375.7832355.78294167.7833334h.00039166 45.43333325c.432498.0000979.7832355-.3504438.7833334-.7829417 0-.0000979 0-.0002937 0-.0003917v-45.43333325c.0000979-.43249791-.3504438-.78323541-.7829417-.78333333zm-.783725 45.43333328h-43.86666661v-43.86666661h14.12663331c.2713271 5.25939791 3.2704167 8.61666661 7.8067 8.61666661h1.5666667c3.0283666 0 5.4833333 2.4549667 5.4833333 5.4833334 0 3.0283666-2.4549667 5.4833333-5.4833333 5.4833333h-2.35c-4.2165854 0-7.05 3.3054708-7.05 8.225.0050916 4.5403958 3.6846041 8.2199083 8.225 8.225h21.5416666zm0-9.4h-21.5416666c-3.6754979-.0042104-6.6541229-2.9828354-6.6583334-6.6583333 0-3.0713521 1.43585-6.6583333 5.4833334-6.6583333h2.35c3.8936562 0 7.05-3.1564417 7.05-7.05 0-3.8936563-3.1563438-7.05000002-7.05-7.05000002h-1.5666667c-4.3027521 0-6.0243229-3.5091375-6.2410125-7.04999999h28.1743458z"/><path d="m8 4c-2.2091 0-4 1.7909-4 4s1.7909 4 4 4c2.2081-.0026 3.9974-1.7919 4-4 0-2.2091-1.7909-4-4-4zm0 6.4c-1.3255 0-2.4-1.0745-2.4-2.4s1.0745-2.4 2.4-2.4 2.4 1.0745 2.4 2.4c-.0014 1.3249-1.0751 2.3986-2.4 2.4z"/><path d="m27.9208786 17.908514-2.2498895-4.5250758c-.2207704-.3725646-.7000906-.4946473-1.0705724-.2726358-.111557.0668391-.20474.1605459-.2712055.2726358l-2.2498895 4.5250758c-.1852409.3725646-.034967.8256378.3355148 1.0119201.1041511.0523212.2189892.0795659.3353273.0795659h4.499779c.4142609 0 .750057-.3376838.750057-.7542736.0000937-.1170863-.0269987-.2324757-.0791212-.3372124zm-3.9570869-.4168726 1.0363554-2.0846459 1.0363553 2.0846459z"/><path d="m30.250375 28c-.0000938 0-.0002813 0-.000375 0h-4.5c-.4140937-.0000937-.7499062.3355313-.75.749625v.000375 4.5c-.0000937.4140937.3355313.7499062.749625.75h.000375 4.5c.4140937.0000937.7499062-.3355313.75-.749625 0-.0000938 0-.0002813 0-.000375v-4.5c.0000937-.4140937-.3355313-.7499062-.749625-.75zm-.750375 4.5h-3v-3h3z"/><path d="m42.75 24.25v-2.25h-1.5v2.25h-2.25v1.5h2.25v2.25h1.5v-2.25h2.25v-1.5z"/><path d="m43.9156245 7.6422-1.60001-3.2c-.1356009-.271-.4126026-.4422-.7156045-.4422h-3.20002c-.3030019 0-.5800036.1712-.7156045.4422l-1.60001 3.2c-.1125007.2253-.1125007.4904 0 .7156l1.60001 3.2c.1356009.271.4126026.4422.7156045.4422h3.20002c.3030019 0 .5800036-.1712.7156045-.4422l1.60001-3.2c.1125007-.2253.1125007-.4903 0-.7156zm-2.8101176 2.7578h-2.2109138l-1.2000075-2.4 1.2000075-2.4h2.2109138l1.2000075 2.4z"/><path d="m4 18h3v2h-3z"/><path d="m11 18h3v2h-3z"/><path d="m16 18h3v2h-3z"/><path d="m17 21h2v3h-2z"/><path d="m16 26h3v2h-3z"/><path d="m12 26h2v3h-2z"/><path d="m12 30h2v3h-2z"/><path d="m12 35h2v3h-2z"/><path d="m12 40h3v2h-3z"/><path d="m23 42.1998303-1.1998303-1.1998303-1.7997454 1.7997454-1.800594-1.7997454-1.1998303 1.1998303 1.7997454 1.7997454-1.7997454 1.800594 1.1998303 1.1998303 1.800594-1.800594 1.7997454 1.800594 1.1998303-1.1998303-1.7997454-1.800594z"/><path d="m45 43h2v2h-2z"/><path d="m42 43h2v2h-2z"/><path d="m39 43h2v2h-2z"/><path d="m36 43h2v2h-2z"/><path d="m33 43h2v2h-2z"/><path d="m30 43h2v2h-2z"/><path d="m27 43h2v2h-2z"/><path d="m23 43h2v2h-2z"/></g></svg>