<?xml version="1.0" encoding="UTF-8"?>
<svg xmlns="http://www.w3.org/2000/svg" width="19" height="28">
  <path fill="#7A6855" fill-rule="nonzero" stroke="#FFF" stroke-width="2" d="M17.6 7.174a30.056 30.056 0 0 1 .224.698c.116.394.176.654.176.894v1.037c0 1.68-.644 3.124-2.188 5.594l-.293.467c-.651 1.035-.925 1.485-1.222 2.034-.103.195-.178.294-.417.585a2.108 2.108 0 0 0-.182.242l-.187.322-.187.318c-.157.266-.256.439-.364.64-.285.49-.58 1.002-.96 1.662l-.971 1.69c-.245.427-.457.794-.66 1.144l-.84 1.454-.878-1.433-.863-1.408a305.982 305.982 0 0 1-3.36-5.572 62.603 62.603 0 0 0-.921-1.518 42.249 42.249 0 0 1-1.099-1.858c-.771-1.403-1.227-2.57-1.37-3.728A9.703 9.703 0 0 1 1 9.764v-.94l.005-.104C1.502 4.004 5.16 1 9.4 1c3.326 0 6.416 1.806 7.816 5.204.025.06.054.124.121.275.06.134.102.234.142.337.049.124.09.242.122.358zm-1.91.596l.003.01-.003-.01zm-7.84 2.235zm0 0c.32.813.898 1.184 1.609 1.184 1.007 0 1.83-.814 1.83-1.816 0-1.028-.765-1.817-1.747-1.817-.979 0-1.703.574-1.703 1.503v.625c0 .096.002.193.011.282.004.035.007.058 0 .04z"/>
</svg>