<?xml version="1.0"?><svg height="113" viewBox="0 0 113 113" width="113" xmlns="http://www.w3.org/2000/svg"><g fill="none" transform=""><g fill="#64a70b"><path d="m103.887097 43.6547009-9.1129035 12.732621h3.6451613v41.835755h10.9354842v-41.835755h3.645161z"/><path d="m10.9354839 14.551567h7.2903226v29.1031339h10.9354838v-29.1031339h7.2903226l-12.7580645-14.551567z"/><path d="m9.11290323 43.6547009-9.11290323 12.732621h3.64516129v41.835755h10.93548391v-41.835755h3.6451613z"/><path d="m94.7741935 43.6547009v-29.1031339h7.2903225l-12.7580644-14.551567-12.7580645 14.551567h7.2903226v29.1031339z"/></g><path d="m23.9038462 102.134615h3.476923v3.476923h-3.476923z" fill="#64a70b"/><path d="m30.8576923 102.134615h3.4769231v3.476923h-3.4769231z" fill="#64a70b"/><path d="m38.2461538 102.134615h3.4769231v3.476923h-3.4769231z" fill="#64a70b"/><path d="m93.2645105 83.8725689h-3.6547203v-10.9227866h-7.3094405v-12.7850294c0-4.052489-2.6170153-7.5547495-6.5108628-8.7200957l-11.7627386-3.5155942v-2.7671414c3.3094134-2.3058033 5.4820804-6.123623 5.4820804-10.4418926v-5.4613933c0-7.0249661-5.7399452-12.7432511-12.791521-12.7432511s-12.791521 5.718285-12.791521 12.7432511v5.4613933c0 4.3182696 2.172667 8.1360893 5.4820804 10.4418926v2.7671414l-11.7627387 3.5155942c-3.8938474 1.1635683-6.5108627 4.6676067-6.5108627 8.7200957v12.7850294h-7.3094405v10.9227866h-3.6547203v10.9227867h-3.6547203v18.2046444h80.4038462v-18.2046444h-3.6547203zm-45.6840035-49.1525399v-5.4613933c0-5.0187219 4.0990685-9.1023222 9.1368007-9.1023222s9.1368007 4.0836003 9.1368007 9.1023222v5.4613933c0 5.0187219-4.0990685 9.1023222-9.1368007 9.1023222s-9.1368007-4.0836003-9.1368007-9.1023222zm9.1368007 12.7432511c1.2696941 0 2.4965595-.1911133 3.6547203-.5368948v1.8551316c-.453271.6968965-1.712258 2.3226921-3.6547203 2.3226921-1.9424624 0-3.2014493-1.6257956-3.6547203-2.3226921v-1.8551316c1.1581608.3457815 2.3850262.5368948 3.6547203.5368948zm-21.9283217 12.7014728c0-2.4320267 1.5694954-4.5333831 3.9072315-5.2320573l11.7663078-3.517372c1.0635807 1.3760149 3.1211453 3.3298143 6.2547824 3.3298143s5.1912017-1.9537994 6.2547824-3.3298143l11.7663077 3.517372c2.3377362.6968965 3.9072316 2.8000306 3.9072316 5.2320573v12.7850294h-7.3094406v-12.7432511h-3.6547203v12.7432511h-21.9283216v-12.7432511h-3.6547203v12.7432511h-7.3094406zm-7.3094405 16.4259583h58.4755244v7.2818577h-58.4755244zm-3.6547203 10.9227866h65.784965v7.2818578h-65.784965zm69.4396853 21.8455732h-73.0944056v-10.9227865h73.0944056z" fill="#7a6855"/><g fill="#fff"><path d="m22.1653846 29.1192308h3.4769231v3.476923h-3.4769231z"/><path d="m22.1653846 36.5076923h3.4769231v3.4769231h-3.4769231z"/><path d="m102.134615 91.2692308h3.476923v3.476923h-3.476923z"/><path d="m102.134615 83.8807692h3.476923v3.4769231h-3.476923z"/><path d="m7.38846154 91.2692308h3.47692306v3.476923h-3.47692306z"/><path d="m7.38846154 83.8807692h3.47692306v3.4769231h-3.47692306z"/><path d="m87.3576923 29.1192308h3.4769231v3.476923h-3.4769231z"/><path d="m87.3576923 36.5076923h3.4769231v3.4769231h-3.4769231z"/></g></g></svg>