<?xml version="1.0" encoding="UTF-8"?>
<svg width="113px" height="71px" viewBox="0 0 113 71" version="1.1" xmlns="http://www.w3.org/2000/svg" xmlns:xlink="http://www.w3.org/1999/xlink">
    <!-- Generator: Sketch 55.2 (78181) - https://sketchapp.com -->
    <title>Fill 1</title>
    <desc>Created with Sketch.</desc>
    <g id="Mockups" stroke="none" stroke-width="1" fill="none" fill-rule="evenodd">
        <g id="Careers" transform="translate(-241.000000, -1056.000000)" fill="#005E3C">
            <path d="M248.816923,1088.92667 C248.816923,1071.66493 268.05655,1057.62148 291.705442,1057.62148 C313.69148,1057.62148 331.856657,1069.76155 334.304469,1085.3379 L298.660481,1081.68648 L299.180437,1081.22012 L300.050171,1080.16719 L301.323372,1078.88456 L302.744773,1077.54181 L303.062838,1077.01566 L302.889206,1076.25665 L302.251506,1075.84851 L301.323372,1075.49701 L300.629155,1075.96399 L299.87591,1076.95713 L298.949346,1078.06575 L298.137386,1078.88456 L297.268594,1079.76 L296.341088,1080.40037 L295.791618,1080.05171 L296.776269,1078.4761 L297.557459,1077.24884 L298.484337,1076.13927 L299.46993,1074.85538 L300.164774,1073.86129 L300.572324,1073.24876 L300.281576,1072.34453 L299.933683,1072.05251 L298.832544,1072.22778 L298.137386,1073.3364 L297.325739,1074.62125 L296.631837,1075.78872 L295.876393,1077.01566 L295.12566,1078.1246 L294.429559,1078.94214 L293.850261,1079.70115 L293.444281,1079.02978 L293.618227,1078.32867 L294.253729,1077.13146 L294.893312,1075.96399 L295.239008,1075.14708 L295.936364,1073.97898 L296.748638,1073.04343 L297.385082,1071.99366 L297.733289,1070.94199 L297.616488,1070.12508 L297.211136,1069.71757 L296.341088,1069.77452 L295.732589,1070.06528 L295.182491,1070.94199 L294.544163,1072.05251 L293.618227,1073.4541 L292.805011,1074.79684 L292.227282,1076.08169 L291.472153,1077.77499 L291.182346,1079.41039 L290.952511,1080.51806 L257.633254,1076.95713 L256.646719,1078.00785 L258.154152,1079.17532 L259.77713,1080.11151 L262.035925,1081.45235 L264.179801,1082.44644 L265.512345,1083.08775 L264.354062,1080.46016 L284.983692,1082.97132 L276.928456,1090.91294 L287.822413,1090.44469 L287.415491,1091.2635 L287.301829,1092.19779 L287.475776,1093.07228 L288.170621,1093.89109 L289.155272,1094.88296 L290.023121,1095.75967 L290.487502,1096.63606 L290.545903,1097.6871 L290.199893,1098.50274 L289.155272,1099.26175 L287.996674,1099.67116 L286.547642,1100.07961 L285.041151,1100.25584 L283.361656,1100.31374 L281.912624,1100.19699 L280.463278,1100.13815 L278.436203,1099.96287 L276.870369,1099.72969 L275.247077,1099.61231 L272.176636,1099.61231 L271.190415,1099.72969 L270.14862,1100.31374 L269.336973,1101.07275 L268.35138,1102.12442 L267.657478,1103.11661 L267.367043,1104.48909 L267.657478,1105.27785 L268.525327,1105.6265 L269.918156,1105.7442 L271.249758,1105.39333 L272.176636,1104.57452 L273.161287,1103.993 L274.437629,1103.87562 L276.405674,1103.993 L277.97245,1104.28597 L279.883351,1104.69221 L282.085314,1104.86781 L283.999041,1105.16047 L285.969285,1105.56892 L287.70624,1105.97801 L289.03847,1106.26908 L289.387305,1106.32793 L289.387305,1107.08726 L288.461369,1107.67036 L286.778734,1108.4879 L284.924664,1109.36461 L282.550009,1110.41533 L280.233128,1111.40878 L277.97245,1112.28423 L275.247077,1113.45169 L272.235037,1114.56 L269.395374,1115.49555 L269.203531,1115.56326 C256.980797,1110.04136 248.816923,1100.1682 248.816923,1088.92667 Z M302.476004,1106.38172 L304.565875,1106.38172 L305.217704,1106.75411 L302.869111,1108.67426 L302.476004,1106.38172 Z M297.499686,1090.5105 L297.628419,1089.33702 L297.905038,1088.24834 L298.541796,1087.9503 L299.196451,1088.323 L299.848593,1088.69571 L300.631353,1089.33702 L300.811266,1090.02833 L299.955662,1091.67987 L298.759072,1092.5841 L298.150573,1092.32529 L297.563425,1091.7384 L297.499686,1090.5105 Z M287.70624,1087.47161 L289.533621,1086.88281 L291.296636,1086.2415 L292.798731,1085.76312 L294.168953,1085.54893 L295.799468,1085.54893 L294.560176,1086.03015 C294.560176,1086.03015 293.6468,1086.34907 293.38588,1086.40254 C293.124018,1086.45632 292.015971,1086.88281 292.015971,1086.88281 L290.185764,1087.41656 L288.488999,1087.84399 L286.921282,1088.16386 L285.486065,1088.21765 L283.591805,1088.00345 L285.486065,1087.9503 L287.70624,1087.47161 Z M286.727554,1085.17559 L287.249394,1084.80225 L289.010839,1083.78918 L290.512934,1084.00116 L289.206451,1084.48239 L288.032154,1084.90951 L286.727554,1085.17559 Z M292.340944,1084.64248 L287.640931,1086.45632 L286.399442,1086.29686 L292.340944,1084.64248 Z M286.870731,1110.20936 L287.393826,1109.51489 L289.546495,1108.87579 L289.546495,1111.11676 L286.870731,1110.20936 Z M334.594903,1088.92667 C334.594903,1093.5861 333.182294,1098.0076 330.670743,1101.98616 L330.298045,1102.06462 L328.734095,1102.65025 L327.112059,1103.17419 L325.432563,1103.64181 L323.402348,1104.1088 L321.665394,1104.28597 L319.693266,1104.45904 L317.493187,1104.63432 L314.942702,1104.69221 L312.277614,1104.57452 L310.016308,1104.51788 L307.235359,1104.57452 L304.627102,1104.57452 L302.078187,1104.75201 L301.034822,1098.50274 L301.43986,1097.16031 L302.019473,1095.87515 L302.831747,1094.47482 L303.700538,1092.78152 L304.569643,1090.91294 L304.917536,1089.27754 L304.512184,1087.7013 L303.700538,1086.76733 L302.542254,1085.77419 L302.310221,1085.36479 L334.583914,1088.62579 C334.586112,1088.7264 334.594903,1088.82606 334.594903,1088.92667 Z M353.361358,1097.04293 L352.66777,1097.33528 L351.73838,1097.62793 L350.753729,1097.97691 L349.480841,1098.38726 L347.509342,1098.97068 L345.53847,1099.43735 L343.858032,1099.78854 L342.410884,1100.07961 L340.611761,1100.31374 L338.81672,1100.6643 L336.962336,1100.95632 L335.224754,1101.24898 L333.370369,1101.54005 L332.755591,1101.63086 C334.974509,1097.72 336.204067,1093.42759 336.204067,1088.92667 C336.204067,1088.88079 336.199043,1088.83492 336.199043,1088.78936 L341.903488,1089.36581 L342.294083,1088.81119 L342.4831,1088.19866 L342.4831,1087.48236 L342.380428,1086.75214 L341.975076,1086.1238 L335.964184,1085.50843 C333.645105,1068.95255 314.681782,1056 291.705442,1056 C267.169234,1056 247.20776,1070.77051 247.20776,1088.92667 C247.20776,1100.34 255.09784,1110.4109 267.050548,1116.321 L265.3968,1116.83893 L261.629631,1117.65489 L259.978708,1117.88965 L258.095751,1118.00734 L255.949677,1117.94786 L254.037834,1117.83238 L252.070102,1117.48056 L250.214776,1117.07116 L248.360391,1116.31246 L247.144335,1115.31996 L245.926395,1113.68455 L245.34741,1112.0501 L245.056661,1110.12236 L244.100897,1110.79405 L243.552055,1111.70081 L243.317823,1113.21852 L243.435567,1114.61884 L243.955523,1116.25425 L244.477363,1117.59794 L245.056661,1119.17481 L245.695303,1120.63493 L245.780392,1121.36452 L245.34741,1121.62744 L244.59385,1121.56827 L243.781576,1121.15982 L242.913727,1120.22458 L242.15954,1119.23334 L241.696728,1118.00734 L241.234231,1116.25425 L241.11743,1117.83238 L241,1119.40799 L241,1121.10129 L241.347893,1122.44403 L241.929076,1123.90416 L243.029273,1125.27664 L244.536705,1126.17993 L247.259253,1126.8823 L250.040515,1127 L253.053497,1126.9402 L255.893474,1126.8823 L258.791851,1126.76492 L261.282679,1126.64755 L263.369411,1126.53206 L265.860239,1126.29762 L268.525327,1126.12361 L271.076754,1125.94801 L273.335548,1125.77274 L276.002206,1125.53988 L278.61015,1125.2469 L281.274924,1124.89635 L284.173302,1124.48916 L287.592578,1124.01964 L290.662704,1123.61118 L293.618227,1123.14546 L296.45789,1122.67721 L299.180437,1122.21022 L302.136274,1121.56827 L305.554294,1120.81085 L309.090372,1120.0493 L312.509333,1119.23334 L316.218102,1118.4139 L320.043357,1117.3056 L324.386999,1116.19476 L327.923705,1115.14468 L331.28458,1114.03638 L335.224754,1112.81038 L338.411682,1111.64259 L341.367205,1110.53208 L344.556017,1109.36461 L346.872584,1108.37052 L349.017088,1107.61246 L350.639439,1106.99899 L351.855182,1105.97801 L352.493823,1104.57452 L352.784257,1102.82585 L353.013465,1100.77978 L353.187412,1099.20386 L353.420387,1098.0946 L353.652107,1097.33528 L354,1096.75186 L353.361358,1097.04293 L353.361358,1097.04293 Z" id="Fill-1"></path>
        </g>
    </g>
</svg>