<?xml version="1.0"?><svg height="105" viewBox="0 0 105 105" width="105" xmlns="http://www.w3.org/2000/svg"><g fill="none" transform="translate(1 1)"><path d="m89.4295718 76.8302707c-.3790645-.3772391-.9003036-.5940502-1.4335088-.5940502-.5352334 0-1.0564725.2170139-1.4335088.5940502-.3792673.3770364-.5940503.9003036-.5940503 1.4335088 0 .5332053.2149858 1.0564725.5940503 1.4335088.3770363.3770364.8982754.5940503 1.4335088.5940503.5332052 0 1.0564724-.2170139 1.4335088-.5940503.3770363-.3772391.5940502-.9003035.5940502-1.4335088 0-.5332052-.2168111-1.0564724-.5940502-1.4335088z" fill="#64a70b"/><path d="m101.728392 99.1272855-10.962868-4.5111913v-9.0270106c0-1.1111467-.9004459-2.0116142-2.0111165-2.0116142-1.1106705 0-2.0111164.9006687-2.0111164 2.0116142v7.3717602l-5.6314076-2.3172701v-21.373577c0-1.1111468-.9004459-2.0116142-2.0111165-2.0116142s-2.0111164.9006687-2.0111164 2.0116142v19.7183266l-5.6314077-2.3172701v-21.2908749h15.2852494v4.2274685c0 1.1111467.9004458 2.0116142 2.0111164 2.0116142s2.0111164-.9006687 2.0111164-2.0116142v-6.2155398c0-.0038232.0006036-.0074452.0006036-.0110672 0-.0042256.0006035-.0082501.0006035-.0124757 0 0 0 0 0-.0002012v-.0002013l-.0024141-14.8918208 11.5223269-20.3360775c.466518-.8236008.713155-1.7590809.713155-2.7056281 0-2.3943381-1.465739-4.4353307-3.7341546-5.1999735-2.2573509-.7610208-4.6466707-.0340065-6.0971208 1.8514417l-3.196623 3.9415324c.0090528-.077068.0146856-.155142.0146856-.2346246v-.9040895c0-5.989769-4.8721846-10.8631595-10.8604713-10.8631595-.8455259 0-1.6677159.1004097-2.4583218.2841252l-5.1377316-4.94361686 5.9309528-5.93221952c.5751507-.57529309.7471528-1.44074799.4357385-2.19231137-.3114142-.7517646-1.0446862-1.24173965-1.8582257-1.24173965h-17.9143661c-1.1108718 0-2.0111165.90066872-2.0111165 2.01161421v4.03630783h-4.5999988c-1.1108718 0-2.0111164.90066872-2.0111164 2.01161421v27.66155665c-.5956703-.203234-1.2331844-.3151133-1.8970519-.3151133h-15.275392c1.5186474-1.868948 2.4309624-4.2494017 2.4309624-6.8397298v-2.4235152c0-.0591592-.0038222-.1173123-.0088515-.1752642.0050293-.0579518.0088515-.1161049.0088515-.1748617v-.9040895c0-5.9897689-4.8719833-10.8631594-10.8604713-10.8631594-5.9884879 0-10.8604713 4.8731893-10.8604713 10.8631594v.9040895c0 .0591592.0038223.1171111.0088516.175063-.0022129.0259576-.0028164.0525189-.0040235.0788789l-3.2121132-3.9608497c-1.45045008-1.8852469-3.83976987-2.6118588-6.09712082-1.8514416-2.26881776.764844-3.73455691 2.8058366-3.73455691 5.2003759 0 .9465472.24663687 1.8820273.71315472 2.7056281l11.52212601 20.3358763-.001207 46.1343204-10.98761205 4.5166243c-1.02738538.4223645-1.5178427 1.5977007-1.09578385 2.6255417.31946112.777521 1.06983266 1.247374 1.86104212 1.247374.25468374 0 .5135921-.048696.76364889-.15152l48.73653099-20.0346473 48.6854328 20.0342453c1.027587.422767 2.202633-.067611 2.625295-1.095049.422461-1.027238-.067795-2.2029765-1.094979-2.6257435zm-22.6022773-81.0782948c3.3937715 0 6.217824 2.4854915 6.7487169 5.732205h-2.2259681c-2.2873256 0-4.4414753-1.0057065-5.9106344-2.7589519-.3898713-.4652248-.9581822-.7197703-1.5419833-.7197703-.2301408 0-.4620921.0394394-.6868012.1213367-.7948306.2891557-1.3239129 1.0447435-1.3239129 1.8906799 0 .7463316-.5840023 1.3510031-1.3297469 1.3767595l-.4653108.0160977c.5608675-3.2106948 3.3676192-5.6583566 6.7356407-5.6583566zm-6.8635861 9.6882254.7318637-.025354c1.623458-.0559396 3.0513768-.8119299 4.0005063-1.9743882 1.9358781 1.3347042 4.2463384 2.066749 6.6539649 2.066749h2.2899408v.7618257c0 3.7715-3.0674706 6.8397298-6.8380373 6.8397298s-6.8380373-3.0682298-6.8380373-6.8397298v-.8288325zm8.3158467 11.6921931-1.491288 4.7900847-1.4904833-4.7900847zm-9.3949333-35.40597956-3.9475981 3.94837391c-.3818244.38191896-.5940609.90167483-.5888304 1.44195533s.2275255 1.05581072.6167934 1.43028442l3.7832405 3.6401022h-10.9111667v-10.46071586zm-17.6590789 20.13022766h11.2076942c1.1108718 0 2.0111164-.9006688 2.0111164-2.0116143v-3.6342667h3.6013811c-1.3058074 1.7930874-2.0789114 3.9978745-2.0789114 6.3809441v.9040895c0 .0112685.0016094.0225369.0016094.0338053-.016295.1032268-.0271583.2082645-.0271583.3163206v2.4235153c0 2.5905292.9125162 4.970983 2.4309624 6.8397297h-15.2753919c-.6542113 0-1.2828738.108861-1.871503.3064608v-11.5589843zm0-14.0823056h2.5890836v6.4246092c0 1.1111467.9004458 2.0116142 2.0111164 2.0116142h4.5961766v1.6222501h-9.1963766zm-29.6243868 7.977639c3.3678204 0 6.1745721 2.4476618 6.7360431 5.6579542l-.4653108-.0160978c-.7457446-.0257563-1.3297469-.6304278-1.3297469-1.3767594 0-.8459364-.5290823-1.6015242-1.3239129-1.8906799-.7946294-.2889545-1.685419-.049903-2.2287845.5984336-1.4689579 1.7536478-3.6231076 2.7593543-5.9106344 2.7593543h-2.2263705c.5308929-3.2465123 3.3551466-5.732205 6.7487169-5.732205zm-6.8380372 9.7554334h2.3154896c2.4076265 0 4.7180868-.732246 6.6539649-2.0667489.9491295 1.1624582 2.3770483 1.9184485 4.0005063 1.9743881l.7063149.0243479v.8300399c0 3.7714999-3.0676718 6.8397297-6.8380373 6.8397297-3.7705667 0-6.8380373-3.0682298-6.8380373-6.8397297v-.762027zm8.3291241 11.6249851-1.4904833 4.7900847-1.491288-4.7900847zm6.1514372 47.2440586-5.6314076 2.3148555v-19.7183266c0-1.1111468-.9004459-2.0116142-2.0111165-2.0116142-1.1106705 0-2.0111164.9006687-2.0111164 2.0116142v21.371766l-5.6314076 2.3148554v-27.5764398h15.2852493v21.2932895zm-.0014082-39.3980186.0022129 14.0810982h-15.2870599l.0022129-13.410426c0-.3479125-.090125-.6895871-.2615236-.9922246l-11.78364956-20.7978815c-.12452546-.2197342-.19030871-.4692492-.19030871-.7215814 0-.9757244.76244186-1.308344.99620372-1.387223.23376186-.0788789 1.04207093-.2754726 1.6321084.5012435.012875.0169026.02595118.033604.03922853.0501042l11.18053592 13.7865096 4.1095415 13.199948c.261926.8409059 1.0400593 1.4135831 1.9203879 1.4135831.8805298 0 1.6586631-.5728785 1.9203879-1.4137843l3.782637-12.1554058h18.0008701c1.0320123 0 1.871503.8396986 1.871503 1.8719663 0 .9228032-.6884105 1.719239-1.601329 1.8524478l-14.6125302 2.1307375c-.9887604.1440748-1.7216299.9920234-1.7214288 1.9908884zm35.893912 16.1053894c0 .0044269.0006035.0086525.0006035.0130794v21.6218847l-15.1573039-6.2372717c-.490055-.2018254-1.0398581-.2018254-1.529913-.0004024l-15.1836575 6.2416986v-21.6259092c.0002012-.0086525-.0008047-14.3791077-.0008047-14.3791077l12.8911014-1.8798139c.3611038-.0527201.7109419-.1384406 1.0468991-.2535395v17.691822c0 1.1111467.9004458 2.0116142 2.0111164 2.0116142 1.1108718 0 2.0111165-.9006687 2.0111165-2.0116142v-17.6833707c.3281115.1108732.6692992.1939778 1.0213502.2452894l12.8911014 1.8798139-.0022129 14.3531501v.0002013c0 .0042256.0006035.00825.0006035.0124757zm2.303017-18.096479-14.6125302-2.1307375c-.9129185-.1332088-1.601329-.9294434-1.601329-1.8524478 0-1.0322678.8394907-1.8719663 1.871503-1.8719663h17.9881963l3.782637 12.1554058c.2617248.8409058 1.039858 1.413583 1.9203879 1.4137842.8803286 0 1.6584619-.5726772 1.9203878-1.413583l4.1016958-13.1743929 11.2010555-13.8118635c.0132774-.0165002.0263535-.0332016.0392286-.0501042.5902386-.7767161 1.3985477-.5801224 1.6321083-.5012435.2337619.078879.9962038.4114986.9962038 1.387223 0 .2525334-.0657833.5020484-.1903087.7215814l-11.7838508 20.7978815c-.1713985.3026375-.2615236.6445134-.2615236.9922246l.0022129 13.410426h-15.2870599l.0022129-14.0810982c.0002012-.9990662-.7326684-1.8470148-1.7212276-1.9910896z" fill="#7a6855" stroke="#fff" stroke-width=".81"/><path d="m52.9335088 71.1531054c-.3770363-.3772392-.9005064-.5940503-1.4335088-.5940503-.5352334 0-1.0564725.2170139-1.4335088.5940503-.3792673.3770363-.5940503.9003035-.5940503 1.4335088 0 .5332052.2149858 1.0564724.5940503 1.4335088.3772392.3770363.9003036.5940502 1.4335088.5940502s1.0564725-.2170139 1.4335088-.5940502c.3772391-.3772392.5940503-.9003036.5940503-1.4335088 0-.5332053-.2168112-1.0564725-.5940503-1.4335088z" fill="#64a70b"/></g></svg>