<?xml version="1.0"?><svg height="105" viewBox="0 0 107 105" width="107" xmlns="http://www.w3.org/2000/svg"><g fill="none" transform=""><path d="m106.755737 81.3547099c-1.028086-3.7790417-4.937932-6.0140699-8.7335451-4.992195l-9.6984585 2.9553382c1.2903007-5.7719564-1.7619402-11.6343823-7.2433389-13.9116298.8878933-2.6882376.4266387-5.6366827-1.2392427-7.9285778-1.665016-2.2918947-4.3338878-3.6497994-7.1758382-3.6506611-.1774055 0-.3548109 0-.5313513.0155091-1.3863594-4.6053301-5.325628-7.9940605-10.102597-8.6919683v-2.5167762c-.0034616-1.404432.5573131-2.7528588 1.5577073-3.7437157l4.7856228-4.7647288c2.3356956 1.8791814 5.2451467 2.9070876 8.2480601 2.9148421 4.4654275-.1507824 8.6850834-2.0687366 11.7243434-5.3290864 5.7193818-5.6978574 11.1462609-27.10208797 11.7451131-29.52494807.147982-.59968377-.029423-1.23297057-.4681778-1.66894768-.4378887-.43683867-1.0739525-.61346957-1.676266-.46613346-2.4334849.59623732-23.9263838 5.99942267-29.6544196 11.69383361-6.1572708 6.1321113-7.0382407 14.0761981-2.4265618 19.8869271l-4.7856228 4.764729c-.8801048.8822933-1.5620344 1.9412176-2.0007885 3.1052591-.6827952-.7366806-1.4668411-1.3734139-2.3287724-1.8912442l-6.038712-3.5998258c1.5879961-3.2112377 1.7688632-6.9334129.5001972-10.282509-1.5178993-3.720452-4.2828295-6.8024475-7.824883-8.7221249-7.0079518-4.0254635-29.1827803-3.7058044-31.6820351-3.6549691-.6204869.0129241-1.18905.3472308-1.4988605.8822934-.31067614.5342011-.31759928 1.1924746-.0181732 1.7335686 1.2106845 2.1841931 12.0142499 21.4636819 19.020471 25.4908686 2.757142 1.6370677 5.8967876 2.5279774 9.1065299 2.5831207.8013538.0008616 1.6018424-.0646211 2.3928114-.1955866 3.2279158-.5290315 6.1347705-2.2565687 8.1346936-4.8353812l6.0897702 3.6265359c1.676266 1.0106739 2.8782968 2.6468801 3.3369551 4.5441554-5.9963077.9744862-10.4046192 6.12608-10.4176002 12.1754762v.123211c-3.5619573-.5049063-7.168915.5522949-9.8879795 2.89761-2.7190647 2.3453149-4.2845605 5.7486928-4.2906183 9.3312863h-.5495245c-4.0197501.0025849-8.0299809.3799722-11.9787689 1.1278535-2.4559852.480781-4.8124502 1.3742753-6.9672785 2.6408489v-5.5332892c0-.9744862-.7935653-1.7645867-1.7723247-1.7645867h-10.63394838c-.97875946 0-1.77232472.7901005-1.77232472 1.7645867v35.2917347c0 .974486.79356526 1.764587 1.77232472 1.764587h10.63394838c.9787594 0 1.7723247-.790101 1.7723247-1.764587v-5.6470219c2.283772 1.4147711 4.8055269 2.4047663 7.4441099 2.9243199 3.400129.638456 6.853912.958977 10.3146184.958116h25.433033c3.2633966-.003447 6.5120817-.431669 9.6647082-1.272605l34.7143717-10.1972093c3.780037-1.0115355 6.021404-4.8827702 5.006298-8.6463028zm-35.9527489-67.1180558c3.7211896-3.7058044 17.4515139-7.95442616 25.0972603-10.01196188-2.0648274 7.60461078-6.3407341 21.28618918-10.0558659 24.98768558-3.9981153 3.9772131-9.9693265 6.0295793-14.9375473 2.3909807l5.2607237-5.2368936 3.8691718 1.9265701c.8749121.438562 1.9419416.0878848 2.3824267-.7840692.440485-.871954.08827-1.9343248-.7875077-2.3728868l-2.8142578-1.3992622 3.6156118-3.6136116 3.8795564 1.9412177c.8749123.4385618 1.9419419.087023 2.3824269-.7840692.4404849-.871954.0882699-1.934325-.7875077-2.3728868l-2.8358926-1.4078781 4.5286012-4.5105526c.460389-.4428698.6455832-1.0994203.4828893-1.7163364-.1618285-.616916-.6455832-1.0985587-1.2660699-1.2596807-.6196213-.16198329-1.2781853.0224021-1.7229974.4807811l-4.5268704 4.5122757-1.4053982-2.8054172c-.4378887-.871954-1.5031874-1.2252159-2.3780995-.789239-.8757779.4359771-1.2305889 1.4966246-.7927002 2.367717l1.9410764 3.8540024-3.6242656 3.6084418-1.4053981-2.8019705c-.438754-.8710925-1.5031875-1.2243546-2.3789651-.7883775-.8757776.4359769-1.2297233 1.495763-.7918346 2.367717l1.9350186 3.852279-5.2598581 5.2368936c-3.6623429-4.9439448-1.589727-10.8925322 2.396273-14.8714684zm-30.6842371 24.1269326c-3.18205.4144368-6.4091002-.2791629-9.1368187-1.9618965-4.5476399-2.6132771-12.2288674-14.7224089-16.2114058-21.5455351 7.9226724.0189554 22.2977142.594514 26.8453541 3.2077911 5.0054327 2.877793 8.6097944 8.2602994 6.0439042 14.1287567l-6.3649648-3.7867964.9294319-4.5226151c.169617-.9426062-.4474081-1.8481633-1.3906865-2.0403034-.9424128-.1912783-1.8666525.4006508-2.0812699 1.334641l-.6810643 3.3086002-4.4308118-2.6322328.9000086-4.3821718c.1704826-.9426063-.4465427-1.8481633-1.3898209-2.0403034-.9424131-.1912784-1.8666525.4006507-2.0821355 1.3346409l-.6516409 3.1767732-5.4943796-3.2758587c-.8402966-.4997367-1.928961-.2274662-2.4317543.6091614-.5027932.8366279-.2284637 1.9205392.6118329 2.4211372l5.4935143 3.2698275-2.2751179 2.0092851c-.7338532.6470727-.8030847 1.7637252-.1531745 2.4943744.6490446.7315108 1.7705938.7995784 2.5053123.1525057l3.1136839-2.7485505 4.3771573 2.6063842-2.1669439 1.9145078c-.7347185.6462108-.8030846 1.7620018-.1540398 2.492651.6481793.7315108 1.7697285.80044 2.5035817.1542291l3.0132981-2.6468801 6.4142926 3.8203991c-1.4538601 1.6801486-3.4572448 2.7950778-5.6553428 3.1474782zm5.9616918 22.5217446c1.092126-.008616 2.1755977.1938635 3.1898385.5962374.6170251.248145 1.3223204.1318269 1.8251136-.3024268.5036586-.433392.7200069-1.1114828.5607746-1.755109-.169617-.6763674-.2561563-1.3708287-.2587525-2.0678751-.0017307-4.6242855 3.5861883-8.4636402 8.2186366-8.795362 4.6324483-.33086 8.734411 2.9579231 9.3964365 7.5356816.0700968.5092143.3608688.963285.7944306 1.2424482.4344274.2791631.9701055.355847 1.4651104.2093724.4526004-.1301039.9225088-.1947251 1.3932825-.1921402 2.9362782 0 5.3169742 2.3703019 5.3169742 5.2937603.0017307 1.0115357-.2933682 2.0023924-.8489504 2.8493596-.3158684.4842273-.3738497 1.090804-.1566361 1.6250053.2172135.5342008.6836603.9288204 1.2487619 1.057201 3.9981153.9451911 6.8279503 4.4933203 6.8461235 8.5851281.0069231 1.319132-.2881758 2.6227549-.8627967 3.811783l-8.7075838 2.6554964c-.4344271-2.7571668-2.468966-4.9965032-5.1811075-5.7013039l-7.7911324-2.0721833-15.1019721-4.4114669c-1.0627025-.3084579-2.149636-.545402-3.2391658-.7478815.0744239-.1895552.1150972-.3894498.1202897-.5927908 0-.9744862.7935652-1.7645868 1.7723247-1.7645868.1808671-.0068929.3608688.0206788.5313514.0809919.9060662.3575699 1.931557-.0792685 2.2967527-.9787942.3651957-.8986641-.0666352-1.9231238-.9675092-2.2927565-.591929-.2317745-1.2236657-.3472307-1.8605949-.3386147-2.9362782 0-5.3169742 2.3703019-5.3169742 5.2937603 0 .0456655.0233657.0844383.0268273.1301038-.9398169-.0792685-1.8822297-.1301038-2.8272388-.1301038h-.7442379c.0060578-4.8707074 3.9695574-8.8169024 8.8616236-8.8229338zm-35.4464945 40.5854957h-7.08929885v-31.7625619h7.08929885zm90.1531737-14.8740536-34.7091793 10.2049634c-2.8410851.7530513-5.7678439 1.1364698-8.7075836 1.1399162h-25.433033c-3.2365696-.0017231-6.466216-.3050115-9.6465349-.905557-2.2785797-.4480396-4.4533121-1.3131005-6.4142926-2.5512409l-1.6979008-1.0589243v-15.7580697l.1929827-.1369968c2.2188674-1.5991568 4.7579302-2.7020235 7.4441098-3.2345014 3.7281128-.7039391 7.5142069-1.0580626 11.3089549-1.0589243h4.8384119c2.8661814-.0008616 5.7176512.4032356 8.470466 1.1993675l15.1409147 4.4226678 7.8283446 2.0816609c1.8787679.4885356 3.0055096 2.3995969 2.5182933 4.2710239v.0241252l-.0103847.0215403v.0155092c-.4231771 1.5388436-1.8259792 2.6072457-3.4278213 2.6098306-.3063492.0017231-.6118329-.0370495-.9077972-.116318l-21.0532792-5.611696c-.6178907-.1826623-1.2868393-.0172323-1.7472284.4325304-.4595237.449763-.6377947 1.1123446-.4655815 1.7309838.1722133.6186394.6680834 1.0951122 1.2946278 1.2441717l21.0567408 5.6134191c.594525.1585371 1.2072232.2378056 1.8225177.2360825 2.8532004-.0103394 5.4234173-1.7197828 6.5250627-4.3408146l23.9834995-7.3056302c1.8960761-.4954284 3.8380181.6289786 4.3442721 2.5150529.078751.2981188.117694.6057152.115098.9141731-.01125 1.603465-1.104242 3.0001422-2.66368 3.4016547z" fill="#7a6855"/><g fill="#64a70b"><path d="m56.9832319 59.7692308c.5424503 0 1.0547168-.2562177 1.3901908-.6935545.3346117-.437337.4544853-1.0089673.3242629-1.5487913-.0301841-.1298759-.0448449-.2624021-.0439825-.395812 0-.9992486.7908218-1.8094263 1.7661977-1.8094263.859814-.007068 1.5945798.6334759 1.7256648 1.5037323.0586433.4779783.3027029.9108976.6778475 1.2015722.374282.2915578.8477403.4152491 1.3125746.3436849.9641647-.1378274 1.6385623-1.0487252 1.506615-2.0373715-.3984295-2.815743-2.8545482-4.8354445-5.6237184-4.6260529-2.7691705.2102752-4.9079255 2.5789626-4.8975767 5.4238613-.0025873.4267349.0474321.8525861.148333 1.2660685.1966275.8057601.9029341 1.3720893 1.7135913 1.3720893z"/><path d="m75.4336783 72.510661c-.1102195.4774329-.0259866.9791882.2329843 1.3944648s.6711738.7107446 1.1469993.8197434c.8109643.2044855 1.3817757.9350482 1.3871523 1.7764113 0 1.0188241.8217175 1.8448733 1.835199 1.8448733s1.8351989-.8260492 1.8351989-1.8448733c-.0089608-2.5619238-1.7617194-4.7851403-4.2412092-5.3778778-.9874948-.2261052-1.9705091.3945577-2.1963246 1.3872583z"/><path d="m63.2575706 65.6089688c-2.5936487-.6929307-5.309289.6021689-6.3727378 3.0387713-.3880749.9093625.0441998 1.9583581.9662092 2.3414773.9211253.3839918 1.9836904-.0427627 2.3726492-.9529978.350947-.7994011 1.2473203-1.2191739 2.0959579-.9817972.4649828.1230519.8610136.4241363 1.100577.8360548.2395634.4119184.3040951.9006353.1776834 1.3588072-.2590112.9538707.3138192 1.9339223 1.2800284 2.1896261.1538156.0401445.312051.0610895.4702866.0610895.8194657-.0008727 1.5355036-.5436973 1.747663-1.3247716.7708458-2.8589934-.9449933-5.7947852-3.8383169-6.5662596z"/><path d="m70.7253788 62.5961538c1.0072216 0 1.8238636.8137066 1.8238636 1.8173077 0 1.0036012.816642 1.8173077 1.8238637 1.8173077 1.0072216 0 1.8238636-.8137065 1.8238636-1.8173077 0-3.0108031-2.4499263-5.451923-5.4715909-5.451923-1.0072216 0-1.8238636.8137065-1.8238636 1.8173077 0 1.0036011.816642 1.8173076 1.8238636 1.8173076z"/></g></g></svg>