<?xml version="1.0"?><svg height="81" viewBox="0 0 124 81" width="124" xmlns="http://www.w3.org/2000/svg"><g fill="#ececec" fill-rule="evenodd" transform="matrix(-1 0 0 -1 124 81)"><path d="m47.4893617 57.4719955c0 11.5429698-9.4440332 20.9151013-21.0943921 20.9151013-11.6551552 0-21.11837386-9.3721315-21.11837386-20.9151013 0-11.5382196 9.46321866-20.8913503 21.11837386-20.8913503 11.6503589 0 21.0943921 9.3531307 21.0943921 20.8913503z"/><path d="m25.0638298 81c-13.8215041 0-25.0638298-10.5481079-25.0638298-23.516129 0-12.9680212 11.2423257-23.5161291 25.0638298-23.5161291s25.0638298 10.5481079 25.0638298 23.5161291c0 12.9680211-11.2423257 23.516129-25.0638298 23.516129zm0-39.7860879c-9.5694753 0-17.3648615 7.2959254-17.3648615 16.2699589 0 8.9785566 7.7953862 16.2925748 17.3648615 16.2925748 9.5646544 0 17.340757-7.3140182 17.340757-16.2925748 0-8.9740335-7.7761026-16.2699589-17.340757-16.2699589z"/><path d="m113.446809 57.4719955c0 11.5429698-9.463219 20.9151013-21.1183744 20.9151013-11.6503588 0-21.094392-9.3721315-21.094392-20.9151013 0-11.5382196 9.4440332-20.8913503 21.094392-20.8913503 11.6551554 0 21.1183744 9.3531307 21.1183744 20.8913503z"/><path d="m91.0092302 81c-13.8148611 0-25.0517834-10.5481079-25.0517834-23.516129 0-12.9680212 11.2369223-23.5161291 25.0517834-23.5161291 13.8196798 0 25.0758758 10.5481079 25.0758758 23.5161291 0 12.9680211-11.256196 23.516129-25.0758758 23.516129zm0-39.7860879c-9.5600574 0-17.3324226 7.2959254-17.3324226 16.2699589 0 8.9785566 7.7723652 16.2925748 17.3324226 16.2925748 9.5841498 0 17.3565158-7.3140182 17.3565158-16.2925748 0-8.9740335-7.772366-16.2699589-17.3565158-16.2699589z"/><path d="m3.85015603 57.483871c-2.13306383 0-3.85015603-1.7245162-3.85015603-3.8370484 0-29.5850323 24.2956454-53.6468226 54.1682128-53.6468226 2.1330638 0 3.8743404 1.70056452 3.8743404 3.81309677 0 2.13648388-1.7412766 3.83704839-3.8743404 3.83704839-25.6016029 0-46.44371635 20.64150004-46.44371635 45.99667744 0 2.1125322-1.71709219 3.8370484-3.87434042 3.8370484z"/><path d="m69.8317872 57.483871c-2.1330638 0-3.8743404-1.7245162-3.8743404-3.8370484 0-29.5850323 24.3004823-53.6468226 54.1682132-53.6468226 2.157248 0 3.87434 1.70056452 3.87434 3.81309677 0 2.13648388-1.717092 3.83704839-3.87434 3.83704839-25.6016033 0-46.4195323 20.64150004-46.4195323 45.99667744 0 2.1125322-1.7412766 3.8370484-3.8743405 3.8370484z"/></g></svg>