<svg height="71" viewBox="0 0 113 71" width="113" xmlns="http://www.w3.org/2000/svg"><path d="m7.81692285 32.9266696c0-17.2617364 19.23962745-31.30518829 42.88851935-31.30518829 21.9860375 0 40.1512148 12.14007019 42.5990269 27.71641509l-35.6439876-3.6514177.519956-.4663538.8697331-1.0529346 1.2732014-1.2826313 1.4214014-1.3427447.3180649-.5261509-.1736326-.7590115-.6376997-.4081387-.928134-.3515055-.6942166.4669866-.7532454.9931375-.9265641 1.1086187-.8119602.8188085-.8687912.8754417-.9275061.6403665-.5494704-.348658.984651-1.5756053.7811899-1.2272636.9268781-1.1095678.9855929-1.2838968.6948445-.9940867.4075501-.6125245-.2907484-.9042329-.3478932-.2920248-1.1011387.1752782-.6951585 1.1086186-.8116463 1.284846-.6939026 1.1674665-.7554433 1.2269473-.7507336 1.108935-.6961005.817543-.5792988.7590114-.4059801-.6713724.1739466-.7011127.6355018-1.1972068.6395835-1.1674666.3456954-.8169102.6973564-1.1680993.8122743-.9355552.6364437-1.0497707.3482072-1.0516691-.1168017-.8169101-.4053521-.407506-.8700472.0569496-.6084992.2907593-.5500983.8767072-.6383277 1.110517-.9259361 1.4015926-.8132162 1.3427448-.5777288 1.2848459-.7551293 1.6933011-.2898064 1.6354023-.2298356 1.1076695-33.3192569-3.5609312-.9865349 1.0507199 1.5074328 1.1674666 1.6229786.9361879 2.2587943 1.3408464 2.1438765.9940867 1.3325442.6413156-1.1582836-2.6275906 20.6296305 2.5111604-8.055236 7.94162 10.8939571-.4682522-.4069221.8188085-.1136619.9342896.1739467.8744926.6948445.8188085.984651.991872.8678492.8767073.464381.8763908.0584009 1.0510363-.3460094.8156447-1.0446217.7590114-1.1585976.4094043-1.4490319.4084551-1.5064909.1762273-1.6794955.0578987-1.4490319-.1167466-1.4493459-.0588479-2.0270748-.1752782-1.5658337-.2331769-1.6232925-.1173794h-3.0704406l-.9862208.1173794-1.0417959.5840496-.8116463.7590115-.9855929 1.051669-.6939026.9921884-.2904344 1.3724851.2904344.7887518.8678492.348658 1.392829.1176958 1.3316023-.3508727.926878-.8188085.984651-.5815186 1.2763412-.1173794 1.968046.1173794 1.5667756.292974 1.910901.4062404 2.2019634.1755945 1.9137269.2926576 1.9702438.4084551 1.7369544.4090879 1.3322303.2910757.3488352.0588479v.7593278l-.9259361.5831005-1.6826354.817543-1.8540701.8767072-2.3746541 1.0507199-2.3168811.993454-2.2606782.8754417-2.7253732 1.1674665-3.0120397 1.1083023-2.839663.9355551-.1918437.0677068c-12.2227335-5.5218953-20.38660765-15.3950555-20.38660765-26.6365877zm53.65908105 17.4550486h2.0898714l.6518289.372387-2.3485935 1.9201503zm-4.9763179-15.8712173.1287331-1.1734779.2766191-1.0886863.6367577-.2980361.6546547.3727034.6521429.3727034.7827598.6413156.1799123.6913047-.8556039 1.6515381-1.1965895.9042329-.6084993-.2588043-.5871483-.5868971zm-9.7934464-3.0388933 1.8273816-.5887954 1.763015-.6413156 1.5020951-.4783766 1.3702222-.2141937h1.6305141l-1.2392912.481224s-.9133768.3189177-1.1742967.372387c-.2618619.0537858-1.3699082.4802749-1.3699082.4802749l-1.8302074.5337442-1.6967646.4274383-1.5677176.3198668-1.4352166.0537857-1.89426-.2141937 1.89426-.0531529zm-.9786852-2.2960175.5218399-.3733362 1.7614451-1.0130699 1.502095.2119791-1.3064836.481224-1.1742967.4271219zm5.6133895-.5331114-4.7000127 1.8138444-1.2414891-.1594589zm-5.4702132 25.5668846.5230958-.6944686 2.152668-.6391009v2.2409662zm47.7241728-21.2826937c0 4.6594254-1.4126099 9.0809281-3.9241606 13.0594896l-.3726979.0784639-1.5639498.5856316-1.6220366.5239362-1.6794955.4676194-2.0302146.4669866-1.7369544.1771765-1.9721278.1730634-2.2000795.1752782-2.5504845.0578988-2.6650885-.1176958-2.2613061-.0566332-2.7809482.0566332h-2.6082575l-2.5489147.1774928-1.0433657-6.249268.4050381-1.3424284.5796128-1.2851623.8122742-1.4003271.8687912-1.6933011.8691052-1.8685792.3478933-1.6354024-.4053522-1.576238-.8116463-.9339732-1.1582836-.9931376-.2320335-.4094042 32.2736933 3.2609967c.0021978.1006109.0109894.2002727.0109894.3008836zm18.7664545 8.1162654-.693588.2923412-.92939.2926576-.984651.3489744-1.272888.4103535-1.971499.5834168-1.970872.4666703-1.680438.3511891-1.447148.2910757-1.7991227.234126-1.7950413.3505564-1.8543841.2920248-1.7375824.2926576-1.8543841.2910757-.6147788.090803c2.2189184-3.9108548 3.4484762-8.2032718 3.4484762-12.7041875 0-.045876-.0050238-.0917521-.0050238-.1373118l5.704445.5764564.390595-.5546257.189017-.6125245v-.7162992l-.102672-.7302203-.405352-.6283438-6.0108923-.6153719c-2.3190791-16.5558779-21.2824014-29.5084288-44.2587415-29.5084288-24.5362081 0-44.49768265 14.7705083-44.49768265 32.9266696 0 11.4133301 7.89008095 21.4842319 19.84278895 27.3943336l-1.6537489.5179248-3.767169.8159611-1.6509231.2347588-1.8829566.1176958-2.1460743-.0594806-1.911843-.1154812-1.967732-.3518219-1.85532606-.4094042-1.85438409-.7586951-1.21605648-.9925047-1.21794038-1.6354024-.57898481-1.6344531-.29074834-1.9277436-.9557645.6716888-.54884243.906764-.23423139 1.5177065.11774366 1.4003271.51995599 1.6354023.52183988 1.3436939.57929879 1.5768708.6386416 1.4601241.08508941.7295875-.43298267.2629173-.7535594-.0591643-.81227424-.4084551-.86784924-.9352388-.75418737-.9912392-.46281107-1.2259981-.46249708-1.7530981-.11680171 1.5781363-.11742967 1.5756053v1.6933011l.34789326 1.3427447.58118269 1.4601241 1.10019672 1.3724851 1.50743279.9032837 2.72254732.7023783 2.78126215.1176958 3.01298167-.0597971 2.839977-.0578987 2.8983778-.1173794 2.4908278-.1173795 2.0867316-.1154811 2.4908278-.2344424 2.6650884-.1740127 2.5514266-.1755945 2.2587943-.1752782 2.6666583-.2328605 2.6079435-.292974 2.6647744-.3505564 2.8983779-.4071895 3.4192758-.4695178 3.0701266-.408455 2.9555227-.4657211 2.839663-.4682522 2.7225474-.4669866 2.9558367-.6419484 3.4180199-.7574295 3.5360775-.7615426 3.4189618-.815961 3.7087681-.8194413 3.825256-1.1083022 4.3436419-1.1108334 3.5367055-1.0500871 3.3608749-1.1083023 3.9401737-1.225998 3.1869283-1.167783 2.9555232-1.1105169 3.188812-1.1674666 2.316567-.9940866 2.144504-.7580623 1.622351-.6134736 1.215743-1.0209796.638641-1.4034909.290434-1.7486688.229208-2.0460721.173947-1.5759216.232975-1.1092515.23172-.7593278.347893-.5834169z" fill="#fff" fill-rule="evenodd" transform=""/></svg>