<?xml version="1.0" encoding="UTF-8"?>
<svg width="110px" height="110px" viewBox="0 0 110 110" version="1.1" xmlns="http://www.w3.org/2000/svg" xmlns:xlink="http://www.w3.org/1999/xlink">
    <!-- Generator: Sketch 51.3 (57544) - http://www.bohemiancoding.com/sketch -->
    <title>build community icon</title>
    <desc>Created with Sketch.</desc>
    <defs></defs>
    <g id="Mockups" stroke="none" stroke-width="1" fill="none" fill-rule="evenodd">
        <g id="Who-We-Are" transform="translate(-879.000000, -1461.000000)" fill="#FFFFFF" fill-rule="nonzero">
            <g id="build-community-icon" transform="translate(879.000000, 1461.000000)">
                <path d="M53.3918663,74.5496444 C53.0259001,74.1789443 52.6171559,73.8688728 52.1780393,73.6205124 C53.1824678,71.5422538 52.8342545,68.9581801 51.130405,67.2328659 C50.7317136,66.8292533 50.2863941,66.5012097 49.8121995,66.2476526 C50.6467992,64.2250422 50.2536689,61.8018506 48.630456,60.158385 C47.5918051,59.1069134 46.2107159,58.5279111 44.7417178,58.5279111 C43.9988771,58.5279111 43.2787087,58.676451 42.613724,58.9590231 C42.3634724,58.4800579 42.0398565,58.0305408 41.6422346,57.6277943 C39.4981989,55.4575102 36.0094355,55.4572936 33.8649721,57.6277943 L24.7979515,66.8067341 C24.5239581,65.4306835 23.7483922,64.1579178 22.5358485,63.2982922 C21.2991352,62.4215606 19.7997647,62.093084 18.3162221,62.3737074 C16.8318239,62.6543308 15.5510493,63.5081101 14.7104607,64.7778443 L9.64511236,72.4248316 C7.57743555,75.5465503 6.48702318,79.1829617 6.49237044,82.9414962 L6.49835936,87.236593 L0.626430998,93.1812184 C-0.208810333,94.0267696 -0.208810333,95.39784 0.626430998,96.2433912 C1.04415861,96.666275 1.5915037,96.8776087 2.13884878,96.8776087 C2.68619387,96.8776087 3.23353896,96.6660585 3.65126657,96.2433912 L10.1509627,89.6634657 C10.5528625,89.2568216 10.7783028,88.7046691 10.7774472,88.1293478 L10.7701749,82.9354333 C10.766111,80.0410716 11.6056302,77.2406841 13.1982568,74.8365471 L18.2636051,67.1895598 C18.4591008,66.8944289 18.756836,66.6958705 19.1018409,66.6306949 C19.4464181,66.5653027 19.795273,66.6419545 20.0829554,66.8457096 C20.6399255,67.240661 20.8003432,68.0110761 20.4476382,68.6000388 L16.3432987,75.4543083 C15.7824785,76.3910188 16.0008604,77.6044551 16.8523574,78.280463 C17.7036405,78.9564709 18.9196064,78.8824175 19.6849057,78.1078883 L36.8902354,60.6901836 C37.3667828,60.2077539 38.141921,60.2079704 38.6178268,60.6901836 C39.0659268,61.1435982 39.086888,61.8613965 38.6924745,62.3466411 L30.2545051,70.8889816 C29.4192637,71.7345327 29.4192637,73.1056032 30.2545051,73.9511544 C30.2560023,73.9526701 30.2574995,73.9537527 30.2589967,73.9552684 C30.260494,73.9567841 30.2615634,73.9582999 30.2630607,73.9598156 C31.0985159,74.8051502 32.452441,74.8051502 33.2881101,73.9598156 L41.6430901,65.5014889 C41.7247962,65.4187743 43.8788846,63.2209908 43.8788846,63.2209908 C44.1094583,62.9873545 44.4163908,62.8587355 44.7425734,62.8587355 C45.0689699,62.8587355 45.3756884,62.9873545 45.606476,63.2209908 C46.0830234,63.703204 46.0830234,64.4876936 45.606476,64.9699068 C45.606476,64.9699068 43.4357041,67.1505844 43.353998,67.233299 L34.999018,75.6914091 C34.1637767,76.5369603 34.1637767,77.9080307 34.999018,78.7537984 C35.0005153,78.7553141 35.0020125,78.7563968 35.0035097,78.7579125 C35.005007,78.7594282 35.0060764,78.7609439 35.0075736,78.7624596 C35.4253013,79.1853435 35.9726463,79.3966772 36.5199914,79.3966772 C37.0673365,79.3966772 37.6146816,79.185127 38.0324092,78.7624596 L46.469737,70.2209853 C46.9488511,69.8210537 47.6585388,69.8420571 48.1066388,70.2959048 C48.5831863,70.778118 48.5831863,71.5628241 48.1066388,72.0448208 C48.1066388,72.0448208 45.6971655,74.4669297 45.6152455,74.5498609 L39.7431032,80.4944862 C38.9078619,81.3400374 38.9078619,82.7111079 39.7431032,83.5568756 C39.7448144,83.5586078 39.7469533,83.5601235 39.7486644,83.5618558 C39.7497338,83.5629384 39.7505894,83.5642376 39.7516589,83.5653203 C40.1693865,83.9882041 40.7167316,84.1995378 41.2640766,84.1995378 C41.8114217,84.1995378 42.3587668,83.9882041 42.7764944,83.5653203 L48.7354761,77.5327836 C48.9527886,77.3528468 49.2192958,77.2499949 49.5039837,77.2499949 C49.8301663,77.2499949 50.1370988,77.3786139 50.3676724,77.6122502 C50.8442198,78.0944634 50.8442198,78.8791695 50.3676724,79.3611662 L39.4515709,90.4120112 C39.451357,90.4122278 39.451357,90.4124443 39.4511431,90.4126608 L35.0719546,94.845904 C32.3651738,97.5860961 28.7683958,99.0942303 24.9410441,99.0942303 C24.9344135,99.0942303 24.9271412,99.0942303 24.9202967,99.0942303 L21.6043565,99.0894666 C21.6032871,99.0894666 21.6022176,99.0894666 21.6011482,99.0894666 C21.0341252,99.0894666 20.4899885,99.3176897 20.0887304,99.7236842 L13.5888203,106.30361 C12.753579,107.149161 12.753579,108.520231 13.5888203,109.365782 C14.006548,109.788666 14.553893,110 15.1012381,110 C15.6485832,110 16.1959283,109.78845 16.6136559,109.365782 L22.4855843,103.421157 L24.9140939,103.424838 C24.9230773,103.424838 24.9318468,103.424838 24.9410441,103.424838 C29.9103557,103.424838 34.5819321,101.466104 38.0965763,97.9082934 L46.040887,89.8661381 C46.0411009,89.865705 46.0415287,89.8654885 46.0417426,89.8650555 L53.3927219,82.4235555 C55.5359019,80.2521887 55.5359019,76.7203615 53.3918663,74.5496444 Z" id="Shape"></path>
                <path d="M16.3602793,36.3226783 L15.2881438,35.265276 C12.5184603,32.5346406 10.9967618,28.9040609 11.002223,25.0421408 L11.0070288,21.7027829 C11.0079026,21.1304631 10.77766,20.5811911 10.367199,20.1766685 L3.72926444,13.630855 C2.87623077,12.789715 1.49346427,12.789715 0.639775257,13.630855 C-0.213258419,14.4719949 -0.213258419,15.8359125 0.639775257,16.6770524 L6.63678768,22.5906648 L6.63307408,25.0363249 C6.62586535,30.0512853 8.60258794,34.7659771 12.1986546,38.3116889 L13.2707902,39.3690912 C13.6971978,39.7897689 14.2564209,40 14.8154255,40 C15.3744302,40 15.9334348,39.7897689 16.3598425,39.3690912 C17.213313,38.5277358 17.213313,37.1638183 16.3602793,36.3226783 Z" id="Shape"></path>
                <path d="M21.414,41.586 C21.0418,41.214 20.5262,41 20,41 C19.4722,41 18.9582,41.214 18.5862,41.586 C18.2122,41.958 18,42.474 18,43 C18,43.526 18.2122,44.042 18.5862,44.416 C18.958,44.788 19.474,45 20,45 C20.5262,45 21.04,44.788 21.414,44.416 C21.786,44.042 22,43.526 22,43 C22,42.4738 21.7862,41.958 21.414,41.586 Z" id="Shape"></path>
                <path d="M51.4071764,34.8650379 L42.4250712,25.7979997 C43.7715818,25.5240058 45.0172366,24.7484384 45.8581966,23.5361062 C46.7161071,22.2991766 47.0373204,20.8004449 46.7629331,19.3164716 C46.4883339,17.8320706 45.6528828,16.5515073 44.4104063,15.7104893 L36.9275787,10.645345 C33.8805025,8.58258366 30.3321132,7.49281084 26.6635869,7.49281084 C26.6548997,7.49281084 26.6455769,7.49281084 26.6366778,7.49281084 L22.4339967,7.49879978 L16.6171979,1.62643222 C15.7897984,0.791189261 14.4485848,0.791189261 13.6205496,1.62643222 C12.7931501,2.46167517 12.7931501,3.81603071 13.6205496,4.65127367 L20.0592224,11.1507686 C20.4567131,11.5520274 20.9955293,11.7772543 21.5574406,11.7772543 C21.5585,11.7772543 21.5595594,11.7772543 21.5606188,11.7772543 L26.6428224,11.769982 C26.6496026,11.769982 26.6563829,11.769982 26.6635869,11.769982 C29.4886107,11.769982 32.221042,12.6092889 34.5678479,14.1978547 L42.0506756,19.2632129 C42.3394708,19.4587089 42.5335548,19.7564447 42.5975432,20.1014503 C42.6613197,20.4464559 42.5867372,20.7948837 42.3873562,21.0823528 C42.0006714,21.6395379 41.2463712,21.7995281 40.6702638,21.4472502 L33.9633484,17.3424749 C33.0469584,16.7814397 31.8595712,16.9998221 31.1978634,17.8513207 C30.5363676,18.7026055 30.6088312,19.9187877 31.3667334,20.6838745 L48.4105281,37.8892377 C48.8826014,38.3655722 48.8826014,39.1407118 48.4105281,39.6168324 C48.1821193,39.8476204 47.8780685,39.9746715 47.5549483,39.9746715 C47.2725095,39.9746715 47.0082925,39.8728595 46.7928084,39.6946886 L38.4306702,31.2534944 C37.6030588,30.4182515 36.2618452,30.4182515 35.4340219,31.2534944 C35.4327506,31.2547778 35.4319031,31.2560611 35.4306318,31.2573445 C35.4291486,31.2588417 35.4272417,31.260125 35.4257585,31.2618362 C34.598359,32.0970791 34.598359,33.4514347 35.4257585,34.2868915 L43.7022964,42.6418878 C43.7832353,42.723594 45.9338385,44.8779005 45.9338385,44.8779005 C46.4059118,45.354235 46.4056999,46.1293747 45.9338385,46.6054952 C45.7054296,46.8362832 45.4013788,46.9633343 45.0782586,46.9633343 C44.7549266,46.9633343 44.4508758,46.8362832 44.2224669,46.6054952 C44.2224669,46.6054952 42.0888143,44.4347191 42.0076635,44.352799 L33.7309137,35.9975889 C32.9033023,35.1623459 31.5620887,35.1623459 30.7342654,35.9975889 C30.7329941,35.9988722 30.7321466,36.0001556 30.7308753,36.0014389 C30.7293921,36.0029361 30.7274852,36.0042195 30.726002,36.0059306 C29.8986025,36.8411736 29.8986025,38.1955291 30.726002,39.0309859 L39.0853858,47.4696134 C39.4758845,47.9489424 39.4549082,48.6577759 39.0112271,49.1054491 C38.5393657,49.5817835 37.771505,49.5822113 37.2998555,49.1054491 C37.2998555,49.1054491 34.928895,46.6953293 34.8483798,46.6142648 L29.031581,40.7421111 C28.2043934,39.9068681 26.8631798,39.9068681 26.0349327,40.7421111 C26.0334496,40.7436083 26.0323901,40.7451056 26.030907,40.7466028 C26.0294238,40.7481 26.0279406,40.7491695 26.0264574,40.7504528 C25.1990579,41.5856958 25.1990579,42.9400513 26.0264574,43.7755082 L31.928221,49.733432 C32.1051425,49.9509588 32.2062103,50.2178943 32.2062103,50.5030105 C32.2062103,50.8291937 32.0803523,51.1359129 31.8515197,51.3669148 C31.3796583,51.8434632 30.6120095,51.8432493 30.14036,51.3669148 L27.5403549,48.7422627 C26.7127435,47.9070198 25.3715299,47.9070198 24.5437066,48.7422627 C23.7163071,49.5775057 23.7163071,50.9318612 24.5437066,51.7671042 L27.1437117,54.3917563 C28.2060884,55.4639901 29.6006963,56 30.9957279,56 C32.3905477,56 33.7857912,55.4637762 34.8475323,54.3919702 C35.209215,54.0270727 35.5122064,53.6191833 35.7552351,53.1807075 C36.4927967,53.5466743 37.3089664,53.7413148 38.1550116,53.7413148 C39.6102177,53.7413148 40.9783403,53.1693712 42.0072397,52.1307183 C42.3971028,51.7371595 42.7200111,51.2946198 42.9715151,50.8165742 C43.6298327,51.0950598 44.342604,51.2415749 45.0778349,51.2415749 C46.5328291,51.2415749 47.9009517,50.6694174 48.9298511,49.6307645 C50.5380361,48.0073345 50.9274754,45.6136843 50.1004996,43.6157319 C50.5702422,43.3652659 51.0113807,43.0412216 51.4063289,42.6425294 C53.5310824,40.4980619 53.5310824,37.0090777 51.4071764,34.8650379 Z" id="Shape"></path>
                <path d="M109.373565,13.7560085 C108.538105,12.910451 107.184172,12.910451 106.348498,13.7560085 L99.8487641,20.3359835 C99.4468621,20.7426306 99.2214205,21.2947873 99.222276,21.8701129 L99.2295483,27.0640664 C99.2336123,29.9584499 98.3940882,32.7588585 96.8014523,35.1630135 L91.7360744,42.8100583 C91.5405776,43.1051915 91.2428407,43.3037513 90.8978338,43.3689275 C90.5528268,43.4343201 90.2043976,43.3576678 89.9167136,43.1539112 C89.3597402,42.7589568 89.1993216,41.9885358 89.5520286,41.3995687 L93.6563921,34.5452477 C94.2172155,33.6085302 93.9988323,32.3950847 93.1473304,31.7190718 C92.2958284,31.0430588 91.0798554,31.1171127 90.3147656,31.8916478 L73.1093355,49.3094834 C72.6329992,49.7921333 71.8578565,49.7917002 71.3817341,49.3094834 C70.9336314,48.8560654 70.9126701,48.1382617 71.3070859,47.6530135 L79.7451046,39.1106088 C80.5803508,38.2650512 80.5803508,36.8939705 79.7451046,36.048413 C79.7436073,36.0468972 79.7421101,36.0458146 79.7406128,36.0442988 C79.7391156,36.0427831 79.7380461,36.0412674 79.7365489,36.0397517 C78.9010888,35.1944107 77.5471558,35.1944107 76.7114818,36.0397517 L68.3564531,44.4981419 C68.2747465,44.5808572 66.1206455,46.7786572 66.1206455,46.7786572 C65.8900705,47.0122952 65.5831362,47.1409152 65.2569517,47.1409152 C64.9305533,47.1409152 64.623833,47.0122952 64.3930441,46.7786572 C63.9164939,46.2964404 63.9164939,45.5119448 64.3930441,45.029728 C64.3930441,45.029728 66.5638286,42.8490341 66.6455352,42.7663188 L75.0005639,34.3081451 C75.8358101,33.4625876 75.8358101,32.0915068 75.0005639,31.2457328 C74.9990667,31.244217 74.9975694,31.2431344 74.9960722,31.2416187 C74.9945749,31.2401029 74.9935055,31.2385872 74.9920082,31.2370715 C74.1565481,30.3915139 72.8026151,30.3915139 71.9669411,31.2370715 L63.5297781,39.7783935 C63.0504473,40.1785447 62.3407554,40.1577576 61.8926527,39.70369 C61.4161025,39.2214732 61.4161025,38.4367611 61.8926527,37.9547608 C61.8926527,37.9547608 64.3021402,35.5326337 64.3840606,35.4497019 L70.2562371,29.5050319 C71.0914833,28.6594743 71.0914833,27.2883936 70.2562371,26.4426195 C70.254526,26.4408873 70.2523871,26.4393715 70.2506759,26.4376393 C70.2496065,26.4365566 70.2487509,26.4352574 70.2476815,26.4341748 C69.4122214,25.5886172 68.0582883,25.5886172 67.2226144,26.4341748 L61.2635979,32.4667568 C61.0462842,32.6466949 60.7797754,32.7497642 60.4950858,32.7497642 C60.1689013,32.7497642 59.8619671,32.6211442 59.6313921,32.3875061 C59.1548419,31.9052893 59.1548419,31.1205773 59.6313921,30.638577 L70.5475573,19.5876489 C70.5477712,19.5874323 70.5477712,19.5872158 70.5479851,19.5869993 L74.9271991,15.1537227 C77.6339957,12.41351 81.2307947,10.9053645 85.0581688,10.9053645 C85.0647994,10.9053645 85.0720717,10.9053645 85.0789162,10.9053645 L88.3948757,10.9101282 C88.3959452,10.9101282 88.3970147,10.9101282 88.3980841,10.9101282 C88.9651104,10.9101282 89.5092503,10.6819034 89.9105107,10.2759059 L96.4111004,3.69636397 C97.2463466,2.85080643 97.2463466,1.47972569 96.4111004,0.634168151 C95.5758542,-0.211389384 94.2219212,-0.211389384 93.3860333,0.634168151 L87.5151401,6.57905474 L85.0866163,6.57537369 C85.0776329,6.57537369 85.0688633,6.57537369 85.059666,6.57537369 C80.0903254,6.57537369 75.4187217,8.53412234 71.904057,12.0919599 L63.9599138,20.1343922 C63.9596999,20.1348253 63.9592721,20.1350418 63.9590583,20.1354749 L56.6080361,27.5770308 C54.463988,29.7477643 54.463988,33.279618 56.6080361,35.4503515 C56.9735766,35.8204047 57.3823232,36.1304786 57.8214424,36.3788408 C56.8167942,38.4571151 57.1650095,41.0414248 58.8690829,42.7667519 C59.2677766,43.1703676 59.7128847,43.4986301 60.187296,43.7519726 C59.3526915,45.7745982 59.745824,48.1975915 61.3690464,49.841286 C62.4077034,50.8927655 63.7888006,51.4717721 65.2578073,51.4717721 C66.0006524,51.4717721 66.720825,51.3232312 67.3858136,51.0406569 C67.6360666,51.5196257 67.9596844,51.9691462 68.3573086,52.3718957 C69.4295466,53.4571542 70.837808,54 72.2460695,54 C73.654331,54 75.0625924,53.4573708 76.1346165,52.3718957 L85.2016899,43.1928869 C85.4756849,44.5689479 86.2512554,45.8417231 87.4638062,46.7013552 C88.7005267,47.5780934 90.1992642,47.9063559 91.6834571,47.625947 C93.167864,47.3453215 94.4486461,46.4915357 95.2894535,45.2217919 L100.354831,37.5747472 C102.42252,34.453005 103.512939,30.8165663 103.507592,27.0580035 L103.501603,22.7628744 L109.373565,16.8182043 C110.208812,15.9724303 110.208812,14.601566 109.373565,13.7560085 Z" id="Shape"></path>
                <path d="M108.388422,92.4255196 L102.657191,86.6766159 L102.66074,84.2990734 C102.667629,79.423792 100.778513,74.8404161 97.3418204,71.3934611 L96.5639613,70.6132318 C95.7491507,69.795729 94.4270406,69.7955196 93.6116038,70.6130224 C92.7961669,71.4307345 92.7961669,72.7566636 93.611395,73.5745851 L94.3892541,74.3550238 C97.0361881,77.0096043 98.4904465,80.5390634 98.4852274,84.2934196 L98.4806346,87.5397681 C98.4797995,88.0961474 98.699838,88.6301208 99.0921079,89.0233764 L105.436065,95.3866636 C105.843783,95.7956243 106.378013,96 106.912244,96 C107.446474,96 107.980704,95.7954149 108.388422,95.3866636 C109.203859,94.5691608 109.203859,93.2434411 108.388422,92.4255196 Z" id="Shape"></path>
                <path d="M91.4124644,65.586 C91.0406317,65.212 90.526663,65 89.9991004,65 C89.473337,65 88.9575691,65.212 88.5857364,65.586 C88.2141037,65.958 88,66.472 88,67 C88,67.526 88.2139037,68.042 88.5857364,68.414 C88.9575691,68.786 89.473337,69 89.9991004,69 C90.5268629,69 91.0406317,68.786 91.4124644,68.414 C91.7862962,68.04 92,67.526 92,67 C92,66.474 91.7862962,65.958 91.4124644,65.586 Z" id="Shape"></path>
                <path d="M95.3793639,106.348643 L88.9410425,99.8488802 C88.5435472,99.447618 88.004725,99.2223893 87.4428074,99.2223893 C87.441748,99.2223893 87.4406886,99.2223893 87.4396291,99.2223893 L82.3573683,99.2296616 C82.350588,99.2296616 82.3438077,99.2296616 82.3366036,99.2296616 C79.511548,99.2296616 76.7790859,98.3903478 74.4322536,96.8017689 L66.9493417,91.7363689 C66.6605432,91.5408712 66.466457,91.243133 66.4024679,90.8981245 C66.3386907,90.553116 66.413274,90.2046853 66.6126573,89.9172139 C66.9995583,89.3600242 67.7538671,89.2004605 68.329769,89.5523135 L75.03676,93.6566949 C75.9529484,94.2175208 77.1405608,93.9991367 77.802276,93.1478449 C78.4637793,92.2965531 78.3913148,91.0803608 77.6334041,90.3152677 L60.5894176,73.1097623 C60.117339,72.6334239 60.117339,71.8582778 60.5894176,71.3821533 C60.817829,71.1513634 61.1218832,71.0243113 61.445007,71.0243113 C61.727449,71.0243113 61.991669,71.1261241 62.2071555,71.3042965 L70.5693879,79.7457743 C70.9831982,80.1635062 71.5254106,80.3722652 72.0676229,80.3722652 C72.6098353,80.3722652 73.1520476,80.1632923 73.565858,79.7457743 C73.5671293,79.7444909 73.5679768,79.7432076 73.5692481,79.7419242 C73.5707313,79.740427 73.5726383,79.7391436 73.5741215,79.7374325 C74.4015303,78.9021826 74.4015303,77.5478159 73.5741215,76.7123521 L65.2972785,68.3577146 C65.2163387,68.2760077 63.0657113,66.1216834 63.0657113,66.1216834 C62.5936327,65.645345 62.5938446,64.8701989 63.0657113,64.3940744 C63.2941228,64.1632845 63.598177,64.0362324 63.9213008,64.0362324 C64.2446365,64.0362324 64.5486907,64.1632845 64.7771022,64.3940744 C64.7771022,64.3940744 66.9107788,66.5648685 66.9919305,66.6467893 L75.2687734,75.0020684 C75.6825838,75.4198003 76.2247962,75.6285593 76.7670085,75.6285593 C77.3092209,75.6285593 77.8514332,75.4195864 78.2652436,75.0020684 C78.2665149,75.0007851 78.2673624,74.9995017 78.2686337,74.9982184 C78.2701169,74.9967211 78.2720239,74.9954378 78.2735071,74.9937266 C79.1009159,74.1584768 79.1009159,72.80411 78.2735071,71.9686463 L69.9140292,63.5299491 C69.5235261,63.0506162 69.5445027,62.3417767 69.9881888,61.8940999 C70.4598436,61.4177615 71.2277129,61.4175476 71.6995796,61.8940999 L73.9192813,64.1348368 C73.9940765,64.2201799 74.0707787,64.3042396 74.1512948,64.3855187 L79.968159,70.2577209 C80.3819694,70.6754528 80.9241818,70.8842118 81.4663941,70.8842118 C82.0086065,70.8842118 82.5508188,70.6752389 82.9646292,70.2577209 C82.9661124,70.2562237 82.9671718,70.2547264 82.968655,70.2532292 C82.9701382,70.2517319 82.9716214,70.2506625 82.9731046,70.2493791 C83.8005134,69.4141292 83.8005134,68.0597625 82.9731046,67.2242988 L77.0712746,61.2663257 C76.8943511,61.0487971 76.7932822,60.7818594 76.7932822,60.4967408 C76.7932822,60.1705549 76.9191416,59.8638332 77.1479768,59.6328294 C77.3763882,59.4020395 77.6804425,59.2749874 78.0035663,59.2749874 C78.3266901,59.2749874 78.6307443,59.4020395 78.8591557,59.6328294 L82.6003998,63.4095276 C83.4280205,64.2447775 84.7692492,64.2447775 85.5970818,63.4095276 C86.4244906,62.5742778 86.4244906,61.2199111 85.5970818,60.3846612 L81.8558378,56.6079629 C79.731696,54.4641193 76.2760722,54.4639054 74.1519304,56.6079629 C73.7902436,56.9728634 73.4872488,57.3807562 73.2442174,57.8192356 C72.5066475,57.4532657 71.6904686,57.2586236 70.8444139,57.2586236 C69.3891914,57.2586236 68.0210534,57.8305719 66.9921424,58.8692335 C66.602275,59.2627955 66.279363,59.7053389 66.0278562,60.1833884 C65.3695311,59.9049005 64.6567518,59.7583842 63.9215127,59.7583842 C62.4665021,59.7583842 61.0983641,60.3305464 60.0694531,61.369208 C58.46125,62.9926513 58.0718063,65.3863213 58.8987914,67.3842903 C58.4288316,67.6347583 57.9879001,67.9588053 57.5929474,68.3575007 C55.4690175,70.5017721 55.4690175,73.9905712 57.5929474,76.1348426 L66.5751538,85.2019558 C65.228628,85.4759519 63.9829592,86.2515258 63.1419897,87.463868 C62.2840695,88.7008078 61.9628527,90.1995519 62.2372431,91.6835374 C62.5118453,93.1679508 63.3473058,94.4485246 64.5897963,95.2895496 L72.0727081,100.354736 C75.1200306,102.417728 78.6684597,103.507724 82.3370274,103.50751 C82.3457147,103.50751 82.3550376,103.50751 82.3639367,103.50751 L86.5666651,103.501521 L92.3835294,109.373509 C92.7973398,109.791241 93.3395521,110 93.8817645,110 C94.4239768,110 94.9661892,109.791027 95.3799995,109.373509 C96.2067727,108.538259 96.2067727,107.183893 95.3793639,106.348643 Z" id="Shape"></path>
            </g>
        </g>
    </g>
</svg>