<?xml version="1.0" encoding="UTF-8"?>
<svg width="86px" height="86px" viewBox="0 0 86 86" version="1.1" xmlns="http://www.w3.org/2000/svg" xmlns:xlink="http://www.w3.org/1999/xlink">
    <!-- Generator: Sketch 51.3 (57544) - http://www.bohemiancoding.com/sketch -->
    <title>core behaviors icon</title>
    <desc>Created with Sketch.</desc>
    <defs>
        <polygon id="path-1" points="0 0.075768758 86 0.075768758 86 59.9865169 0 59.9865169"></polygon>
    </defs>
    <g id="Mockups" stroke="none" stroke-width="1" fill="none" fill-rule="evenodd">
        <g id="Who-We-Are" transform="translate(-254.000000, -1202.000000)">
            <g id="Group-4" transform="translate(254.000000, 1202.000000)">
                <g id="core-behaviors-icon">
                    <g id="Group-6" transform="translate(0.000000, 26.000000)">
                        <mask id="mask-2" fill="white">
                            <use xlink:href="#path-1"></use>
                        </mask>
                        <g id="Clip-2"></g>
                        <path d="M18.4485677,57.338427 L15.9194063,53.7640449 C15.38325,53.005618 14.3342292,52.8265169 13.577474,53.365618 C12.8216146,53.9044944 12.6431198,54.9561798 13.1803958,55.7155056 L15.7095573,59.2898876 C16.0365365,59.7523596 16.5545521,60 17.0804063,60 C17.4172396,60 17.7565365,59.8982022 18.0514896,59.6883146 C18.8080208,59.1494382 18.9856198,58.0977528 18.4485677,57.338427 Z" id="Fill-1" fill="#FFFFFF" mask="url(#mask-2)"></path>
                        <path d="M37.8270104,57.9678652 L35.0756823,44.8069663 C33.7373073,38.4076404 30.0218385,32.8739326 24.6134687,29.2249438 L18.7381458,25.2606742 C16.3821042,23.6710112 13.2153333,24.0132584 11.2460677,26.0278652 L11.2460677,5.71977528 C11.2460677,3.05393258 9.43514062,0.789213483 6.84125521,0.211460674 C5.16761458,-0.161573034 3.44067187,0.243146067 2.10408854,1.31932584 C0.76728125,2.39550562 0,3.99932584 0,5.71977528 L0,31.8521348 C0,35.2757303 1.04454167,38.5613483 3.01895833,41.352809 L6.01440104,45.5862921 C6.3425,46.0498876 6.85961979,46.2966292 7.38614583,46.2966292 C7.72208333,46.2966292 8.06160417,46.1955056 8.35633333,45.9849438 C9.11308854,45.4458427 9.2906875,44.394382 8.75363542,43.6350562 L5.75908854,39.4013483 C4.18869271,37.1831461 3.359375,34.5725843 3.359375,31.8521348 L3.359375,5.71977528 C3.359375,5.02719101 3.66821354,4.38202247 4.20616146,3.94831461 C4.74433333,3.51483146 5.43972396,3.35235955 6.11339062,3.50247191 C7.15703646,3.73505618 7.88669271,4.64629213 7.88669271,5.71977528 L7.88669271,26.452809 C7.88669271,29.387191 8.96102083,32.1840449 10.9134896,34.3591011 C10.997474,34.4602247 11.08325,34.5593258 11.174401,34.6559551 C12.2897135,35.8417978 13.6009896,37.2393258 14.8363437,38.5568539 L16.565974,40.4038202 C16.571125,40.4098876 16.5773958,40.414382 16.5825469,40.4204494 C18.0617917,41.9988764 19.1529167,43.1644944 19.1755365,43.1889888 C19.8106823,43.8676404 20.8735885,43.9008989 21.5499427,43.2635955 C22.2260729,42.6265169 22.2603385,41.5597753 21.6242969,40.8813483 C21.5936146,40.848764 19.6279323,38.7483146 17.3820781,36.3534831 L13.5311146,32.2402247 C13.5214844,32.2296629 13.51275,32.2191011 13.502224,32.2085393 C12.5994479,31.1253933 12.6108698,29.5541573 13.5573177,28.4813483 C14.394474,27.5332584 15.8161615,27.3507865 16.8642865,28.0582022 L22.7396094,32.0224719 C27.4165312,35.1782022 30.6307812,39.9640449 31.7873021,45.4995506 L34.539526,58.6604494 C34.7057031,59.4548315 35.4037812,60 36.1824844,60 C36.2960312,60 36.4124896,59.9885393 36.528724,59.9640449 C37.4359792,59.7725843 38.0178229,58.8791011 37.8270104,57.9678652 Z" id="Fill-3" fill="#FFFFFF" mask="url(#mask-2)"></path>
                        <path d="M12.4444687,48.8519101 L12.4341667,48.8368539 C11.8942031,48.0793258 10.8463021,47.9029213 10.0913385,48.4435955 C9.336375,48.9842697 9.16034375,50.0368539 9.69941146,50.794382 L9.70971354,50.8101124 C10.0378125,51.2710112 10.5540365,51.5168539 11.0789948,51.5168539 C11.416724,51.5168539 11.7569167,51.4150562 12.0525417,51.2026966 C12.8077292,50.6617978 12.9835365,49.6094382 12.4444687,48.8519101 Z" id="Fill-4" fill="#FFFFFF" mask="url(#mask-2)"></path>
                        <path d="M83.8959115,1.31932584 C82.5593281,0.243146067 80.8314896,-0.160674157 79.1587448,0.211460674 C76.5648594,0.789213483 74.7539323,3.05393258 74.7539323,5.71977528 L74.7539323,26.0278652 C72.7846667,24.0132584 69.6178958,23.6719101 67.2618542,25.2606742 L61.3856354,29.2249438 C55.9781615,32.8739326 52.2626927,38.4076404 50.9243177,44.8069663 L48.1720937,57.9678652 C47.9821771,58.8791011 48.563125,59.7725843 49.471276,59.9640449 C49.5875104,59.9885393 49.7039687,60 49.8175156,60 C50.5962187,60 51.2942969,59.4548315 51.4595781,58.6604494 L54.2118021,45.4995506 C55.3692188,39.9640449 58.5825729,35.1782022 63.2603906,32.0224719 L69.1357135,28.0582022 C70.1829427,27.3507865 71.6046302,27.5332584 72.4426823,28.4813483 C73.3884583,29.5523596 73.4005521,31.1208989 72.5013594,32.2049438 C72.4899375,32.2164045 72.4803073,32.228764 72.4688854,32.2402247 C72.4688854,32.2402247 64.4054896,40.8496629 64.3757031,40.8813483 C63.7405573,41.5597753 63.7739271,42.6265169 64.4500573,43.2635955 C65.1264115,43.9008989 66.1893177,43.8676404 66.8244635,43.1889888 C66.8470833,43.1644944 73.7102865,35.8426966 74.825599,34.6559551 C74.91675,34.5593258 75.002526,34.4602247 75.0865104,34.3591011 C77.0380833,32.1840449 78.1133073,29.3880899 78.1133073,26.452809 L78.1133073,5.71977528 C78.1133073,4.64629213 78.8429635,3.73505618 79.8866094,3.50247191 C80.560276,3.35235955 81.2556667,3.51483146 81.7938385,3.94831461 C82.3317865,4.3811236 82.640625,5.02719101 82.640625,5.71977528 L82.640625,31.8521348 C82.640625,34.5725843 81.8113073,37.1831461 80.2418073,39.4013483 L67.5514323,57.338427 C67.0143802,58.0977528 67.1919792,59.1494382 67.9485104,59.6883146 C68.2443594,59.8991011 68.5827604,60 68.9195938,60 C69.4454479,60 69.9634635,59.7523596 70.2904427,59.2898876 L82.9810417,41.352809 C84.9563542,38.5613483 86,35.2757303 86,31.8521348 L86,5.71977528 C85.9991042,3.99932584 85.2327188,2.39550562 83.8959115,1.31932584 Z" id="Fill-5" fill="#FFFFFF" mask="url(#mask-2)"></path>
                    </g>
                    <path d="M64.9008352,32.1481478 L61.893065,31.4336102 L61.893065,30.896642 C63.847755,29.534828 65.1298441,27.2795618 65.1298441,24.7301401 L65.1298441,20.841549 C65.1298441,16.6913121 61.7355087,13.3150268 57.5637602,13.3150268 C55.6920183,13.3150268 53.9776073,13.9963822 52.6551711,15.1218854 C51.1821662,11.5346242 47.6390651,9 43.5105939,9 C39.3767131,9 35.830231,11.5415745 34.360607,15.1348892 C33.0363677,14.0024357 31.3158708,13.3150268 29.4360144,13.3150268 C25.2644913,13.3150268 21.8701559,16.6913121 21.8701559,20.8406522 L21.8701559,24.7301401 C21.8701559,27.278665 23.1520196,29.534828 25.1067096,30.896642 L25.1067096,31.4327134 L22.0991648,32.147251 C18.5076022,33.0012433 16,36.1618446 16,39.834079 L16,42.9747261 C16,43.9031541 16.7571268,44.6562548 17.6905183,44.6562548 L25.4590136,44.6562548 C25.4466165,44.8602803 25.4387274,45.0652025 25.4387274,45.2719185 L25.4387274,51.3175745 C25.4387274,52.2468994 26.1949526,52.9991032 27.1292458,52.9991032 L37.2908388,52.9991032 C38.2242304,52.9991032 38.9813572,52.2468994 38.9813572,51.3175745 C38.9813572,50.3891465 38.2242304,49.6360459 37.2908388,49.6360459 L35.5439699,49.6360459 L35.5439699,46.1617834 C35.5439699,45.2324586 34.7868431,44.4802548 33.8534515,44.4802548 C32.92006,44.4802548 32.1629332,45.2324586 32.1629332,46.1617834 L32.1629332,49.6369427 L28.8197641,49.6369427 L28.8197641,45.2719185 C28.8197641,42.0288102 31.0341177,39.2359032 34.2048539,38.4801121 L38.8431855,37.3741146 L41.948555,44.4006624 C42.2179109,45.0109452 42.8255959,45.4050955 43.495492,45.4050955 C44.166515,45.4050955 44.773073,45.0109452 45.0435559,44.4006624 L48.1444174,37.3853248 L52.768774,38.4836994 C55.9419896,39.2376968 58.1590481,42.0315006 58.1590481,45.2764025 L58.1590481,49.6369427 L54.815879,49.6369427 L54.815879,46.1617834 C54.815879,45.2324586 54.0587522,44.4802548 53.1253606,44.4802548 C52.1910675,44.4802548 51.4348423,45.2324586 51.4348423,46.1617834 L51.4348423,49.6369427 L49.5189215,49.6369427 C48.5846284,49.6369427 47.8284032,50.3891465 47.8284032,51.3184713 C47.8284032,52.2468994 48.5846284,53 49.5189215,53 L59.8495664,53 C60.7829579,53 61.5400848,52.2468994 61.5400848,51.3184713 L61.5400848,45.2764025 C61.5400848,45.0687898 61.5312941,44.8620739 61.5188969,44.6562548 L69.3094817,44.6562548 C70.2426478,44.6562548 71,43.9031541 71,42.9747261 L71,39.834079 C71,36.1618446 68.4923978,33.0012433 64.9008352,32.1481478 Z M57.5637602,16.6780841 C59.7783392,16.6780841 61.597337,18.3981758 61.7400167,20.5666752 L59.3890692,20.5666752 C57.4131914,20.5666752 55.4690953,20.0929325 53.7215501,19.1925299 C54.3641725,17.7141299 55.8441649,16.6780841 57.5637602,16.6780841 Z M53.3789384,24.4848611 C53.3807416,24.4025783 53.3850243,24.3211924 53.3850243,24.2389096 L53.3850243,22.741228 C55.2815604,23.5223541 57.321678,23.9297325 59.3890692,23.9297325 L61.7488074,23.9297325 L61.7488074,24.7301401 C61.7488074,27.0255389 59.8716558,28.8929325 57.5637602,28.8929325 C55.25609,28.8929325 53.3789384,27.0255389 53.3789384,24.7301401 L53.3789384,24.4848611 Z M37.0169749,18.8221452 C37.0169749,15.2602191 39.9296253,12.3630573 43.5105939,12.3630573 C46.7401602,12.3630573 49.4256049,14.7198879 49.9221665,17.7955159 L47.075559,16.132372 C46.3641889,15.7164739 45.45469,15.8722955 44.9236418,16.5020841 C43.5333596,18.1528968 41.4934674,19.0997096 39.3282515,19.0997096 L37.0169749,19.0997096 L37.0169749,18.8221452 Z M29.4360144,16.6780841 C31.1556097,16.6780841 32.6358275,17.7150268 33.2784499,19.1916331 C31.5306793,20.0929325 29.5865832,20.5657783 27.6109308,20.5657783 L25.2599833,20.5657783 C25.402663,18.3981758 27.2216608,16.6780841 29.4360144,16.6780841 Z M25.2511926,23.9288357 L27.6109308,23.9288357 C29.6798998,23.9288357 31.7227222,23.5207847 33.6210616,22.7385376 L33.6210616,24.7301401 C33.6210616,27.0255389 31.74391,28.8929325 29.4360144,28.8929325 C27.1283442,28.8929325 25.2511926,27.0255389 25.2511926,24.7301401 L25.2511926,23.9288357 Z M33.4166216,35.2098752 C30.0912593,36.0026599 27.4770417,38.3085962 26.2328202,41.2931975 L19.3810367,41.2931975 L19.3810367,39.834079 C19.3810367,37.724321 20.8215837,35.9089427 22.8844669,35.4183847 L27.1901044,34.3955669 C27.9506123,34.2150828 28.4877463,33.5379873 28.4877463,32.7604484 L28.4877463,32.194558 C28.7985763,32.233121 29.1148159,32.2559898 29.4360144,32.2559898 C29.7547335,32.2559898 30.0691699,32.2340178 30.3781966,32.1954548 L30.3781966,32.6754752 C30.3763934,32.6999134 30.3763934,32.7252484 30.3754918,32.7508076 C30.3754918,33.3025732 30.6484541,33.8429045 31.1486222,34.1650854 C31.3379602,34.2859312 31.5412732,34.3657478 31.7499959,34.4049834 L34.2715731,35.0058497 L33.4166216,35.2098752 Z M38.1324916,32.5992459 C37.6976902,32.409121 37.2450821,32.2566624 36.7784991,32.1454573 L33.7583317,31.4255389 L33.7583317,30.9011261 C34.3033548,30.5226701 34.7965354,30.0751592 35.2234476,29.5698038 C35.9789966,30.7266955 36.9712182,31.7163312 38.1324916,32.4696561 L38.1324916,32.5992459 Z M45.4740746,35.0697478 L43.4963936,39.5450803 L41.5135282,35.0585376 L41.5135282,33.8585987 C42.1590808,33.990879 42.8264975,34.0608306 43.5105939,34.0608306 C44.1831948,34.0608306 44.8391159,33.9926726 45.4740746,33.8646522 L45.4740746,35.0697478 Z M43.5105939,30.6977732 C39.9296253,30.6977732 37.0169749,27.7999389 37.0169749,24.2389096 L37.0169749,22.4627669 L39.3282515,22.4627669 C42.008512,22.4627669 44.5573629,21.4713376 46.5111513,19.7021452 L49.9979017,21.740158 L49.9979017,24.4848611 C49.8667175,27.9319949 47.0077129,30.6977732 43.5105939,30.6977732 Z M48.8551113,32.6044025 L48.8551113,32.490507 C50.026077,31.7374064 51.0270893,30.7459771 51.7878225,29.5839287 C52.2122553,30.0830064 52.7009278,30.5262573 53.2407667,30.9011261 L53.2407667,31.4255389 L50.2205993,32.1454573 C49.7504098,32.2575592 49.2935191,32.4118115 48.8551113,32.6044025 Z M67.6189633,41.2931975 L60.7432871,41.2931975 C59.498164,38.3085962 56.8823686,36.0033325 53.5549777,35.2125656 L52.7063375,35.0112306 L55.2412134,34.4067771 C55.4524155,34.368214 55.6593349,34.2877248 55.8504762,34.1650854 C56.3506442,33.8429045 56.622705,33.3025732 56.622705,32.7508076 C56.622705,32.7375796 56.6218034,32.7243516 56.6218034,32.7113478 L56.6218034,32.1954548 C56.9308301,32.2340178 57.2441395,32.2559898 57.5637602,32.2559898 C57.8851841,32.2559898 58.2014237,32.233121 58.5120283,32.194558 L58.5120283,32.7604484 C58.5120283,33.5379873 59.0491623,34.2150828 59.8098956,34.3955669 L64.1155331,35.4183847 C66.1784163,35.9089427 67.6189633,37.724321 67.6189633,39.834079 L67.6189633,41.2931975 Z" id="Fill-7" fill="#ECECEC"></path>
                    <path d="M43.5602,49.4382 C43.2796,49.1594 42.8946,49 42.5,49 C42.104,49 41.718,49.1594 41.439,49.4382 C41.1586,49.7188 41,50.1046 41,50.5 C41,50.8946 41.1586,51.2804 41.439,51.561 C41.718,51.8398 42.104,52 42.5,52 C42.8946,52 43.2796,51.8398 43.5602,51.561 C43.839,51.2804 44,50.8946 44,50.5 C44,50.1046 43.839,49.7188 43.5602,49.4382 Z" id="Fill-8" fill="#ECECEC"></path>
                    <path d="M42.5,0 C41.672,0 41,0.768561949 41,1.7160508 L41,4.2839492 C41,5.23120924 41.672,6 42.5,6 C43.329,6 44,5.23120924 44,4.2839492 L44,1.7160508 C44,0.768561949 43.329,0 42.5,0 Z" id="Fill-9" fill="#ECECEC"></path>
                    <path d="M36.5190692,5.19922584 L34.7989143,3.48004701 C34.1582567,2.83940136 33.1196478,2.84027626 32.4800834,3.48092191 C31.8394258,4.12178628 31.8403004,5.16073023 32.4807394,5.8007197 L34.2011129,7.51967981 C34.5212231,7.84011199 34.9406024,8 35.3599818,8 C35.7802357,8 36.199615,7.83923709 36.5199438,7.51880491 C37.1606015,6.87815926 37.1597269,5.83921531 36.5190692,5.19922584 Z" id="Fill-10" fill="#ECECEC"></path>
                    <path d="M52.5173629,3.48112132 C51.8750163,2.83904215 50.8336695,2.83991871 50.192419,3.48199788 L48.4813217,5.19479337 C47.8389751,5.83687254 47.839852,6.8769093 48.4821986,7.51898847 C48.8033719,7.8391515 49.2238568,8 49.6443417,8 C50.0654843,8 50.4859692,7.8391515 50.8071425,7.51811191 L52.5191168,5.80509729 C53.1605864,5.16323726 53.1605864,4.12232393 52.5173629,3.48112132 Z" id="Fill-11" fill="#ECECEC"></path>
                </g>
            </g>
        </g>
    </g>
</svg>