<?xml version="1.0" encoding="UTF-8"?>
<svg width="160px" height="143px" viewBox="0 0 160 143" version="1.1" xmlns="http://www.w3.org/2000/svg" xmlns:xlink="http://www.w3.org/1999/xlink">
    <!-- Generator: Sketch 51.3 (57544) - http://www.bohemiancoding.com/sketch -->
    <title>doing things right icon</title>
    <desc>Created with Sketch.</desc>
    <defs></defs>
    <g id="Mockups" stroke="none" stroke-width="1" fill="none" fill-rule="evenodd">
        <g id="Who-We-Are" transform="translate(-639.000000, -1430.000000)" fill="#FFFFFF" fill-rule="nonzero">
            <g id="doing-things-right-icon" transform="translate(639.000000, 1430.000000)">
                <path d="M89.26725,42.7325 C88.8025,42.26725 88.1575,42 87.5,42 C86.8425,42 86.1975,42.26725 85.7325,42.7325 C85.2675,43.19775 85,43.8425 85,44.5 C85,45.1575 85.26725,45.8025 85.7325,46.26725 C86.1975,46.73225 86.8425,47 87.5,47 C88.1575,47 88.8025,46.7325 89.26725,46.26725 C89.73225,45.8025 90,45.1575 90,44.5 C90,43.8425 89.7325,43.1975 89.26725,42.7325 Z" id="Shape"></path>
                <path d="M159.084805,60.9015849 L134.084824,35.9233645 C133.191387,35.0303931 131.847013,34.7637506 130.679201,35.2464547 C129.511702,35.7297833 128.75014,36.8681657 128.75014,38.1311269 L128.75014,51.2050397 L112.968902,51.2050397 C104.48672,51.2050397 96.8945384,55.0838452 91.8751671,61.1591728 L91.8751671,57.6057087 C91.8751671,55.8815871 90.4757931,54.4834312 88.7501694,54.4834312 C87.0245456,54.4834312 85.6251717,55.8815871 85.6251717,57.6057087 L85.6251717,136.755445 L74.3751799,136.755445 L74.3751799,28.1001858 C74.3751799,26.3760641 72.9758059,24.9779082 71.2501822,24.9779082 L62.5448761,24.9779082 L79.9998633,7.53780248 L97.4554755,24.9779082 L88.7498569,24.9779082 C87.0242331,24.9779082 85.6248592,26.3760641 85.6248592,28.1001858 L85.6248592,32.7836021 C85.6248592,34.5077238 87.0242331,35.9058797 88.7498569,35.9058797 C90.4754806,35.9058797 91.8748546,34.5077238 91.8748546,32.7836021 L91.8748546,31.2224634 L104.999845,31.2224634 C106.263907,31.2224634 107.403281,30.4615643 107.886718,29.2950814 C108.370467,28.1282863 108.102968,26.7853947 107.209531,25.8924233 L82.2095492,0.914202869 C80.9889251,-0.30473429 79.0108015,-0.30473429 77.7898649,0.914202869 L52.7898832,25.8924233 C51.8964464,26.7853947 51.6289466,28.1282863 52.1126962,29.2950814 C52.5961334,30.4615643 53.7355075,31.2224634 54.9995691,31.2224634 L68.1245595,31.2224634 L68.1245595,61.1591728 C63.1058132,55.0838452 55.5133187,51.2050397 47.0311374,51.2050397 L31.249899,51.2050397 L31.249899,38.1311269 C31.249899,36.8681657 30.488337,35.7297833 29.3208379,35.2464547 C28.1527138,34.7637506 26.8086522,35.0303931 25.9152154,35.9233645 L0.915233705,60.9015849 C-0.305077902,62.1208343 -0.305077902,64.0978605 0.915233705,65.3174221 L25.9152154,90.2956426 C26.8086522,91.1886139 28.1527138,91.4549442 29.3208379,90.9725523 C30.488337,90.4892238 31.249899,89.3508414 31.249899,88.0878801 L31.249899,74.9343492 L41.5623914,74.9343492 C46.5592628,74.9343492 50.6248848,78.9964323 50.6248848,83.9889541 L50.6248848,97.4147476 C50.6248848,99.1388693 52.0242588,100.537025 53.7498825,100.537025 C55.4755062,100.537025 56.8748802,99.1388693 56.8748802,97.4147476 L56.8748802,83.9889541 C56.8748802,75.5528724 50.0058227,68.6897941 41.5623914,68.6897941 L28.1249013,68.6897941 C26.3992775,68.6897941 24.9999036,70.08795 24.9999036,71.8120716 L24.9999036,80.5494532 L7.54460385,63.1093474 L24.9999036,45.6692416 L24.9999036,54.3273173 C24.9999036,56.051439 26.3992775,57.4495949 28.1249013,57.4495949 L47.0311374,57.4495949 C58.6623789,57.4495949 68.124872,66.9038513 68.124872,78.5249684 L68.124872,136.755445 L56.8748802,136.755445 L56.8748802,122.705196 C56.8748802,120.981074 55.4755062,119.582918 53.7498825,119.582918 C52.0242588,119.582918 50.6248848,120.981074 50.6248848,122.705196 L50.6248848,139.877722 C50.6248848,141.601844 52.0242588,143 53.7498825,143 L106.249844,143 C107.975468,143 109.374842,141.601844 109.374842,139.877722 L109.374842,83.9889541 C109.374842,78.9964323 113.440464,74.9343492 118.437335,74.9343492 L128.749828,74.9343492 L128.749828,88.0875679 C128.749828,89.3505291 129.51139,90.4889115 130.678889,90.9722401 C131.8467,91.454632 133.191074,91.1883017 134.084511,90.2953303 L159.084493,65.3171099 C160.305117,64.0978605 160.305117,62.1208343 159.084805,60.9015849 Z M134.999823,80.5494532 L134.999823,71.8120716 C134.999823,70.08795 133.600449,68.6897941 131.874825,68.6897941 L118.437335,68.6897941 C109.993904,68.6897941 103.124846,75.5528724 103.124846,83.9889541 L103.124846,136.755445 L91.8748546,136.755445 L91.8748546,78.5249684 C91.8748546,66.9038513 101.337348,57.4495949 112.968589,57.4495949 L131.874825,57.4495949 C133.600449,57.4495949 134.999823,56.051439 134.999823,54.3273173 L134.999823,45.6692416 L152.455123,63.1093474 L134.999823,80.5494532 Z" id="Shape"></path>
                <path d="M55.26725,107.7325 C54.8025,107.2675 54.1575,107 53.5,107 C52.8425,107 52.1975,107.26725 51.7325,107.7325 C51.2675,108.19775 51,108.8425 51,109.5 C51,110.1575 51.26725,110.8025 51.7325,111.26725 C52.1975,111.7325 52.8425,112 53.5,112 C54.1575,112 54.8025,111.7325 55.26725,111.26725 C55.73225,110.8025 56,110.1575 56,109.5 C56,108.8425 55.7325,108.1975 55.26725,107.7325 Z" id="Shape"></path>
            </g>
        </g>
    </g>
</svg>