<?xml version="1.0" encoding="UTF-8"?>
<svg width="98px" height="110px" viewBox="0 0 98 110" version="1.1" xmlns="http://www.w3.org/2000/svg" xmlns:xlink="http://www.w3.org/1999/xlink">
    <!-- Generator: Sketch 51.3 (57544) - http://www.bohemiancoding.com/sketch -->
    <title>empower icon</title>
    <desc>Created with Sketch.</desc>
    <defs></defs>
    <g id="Mockups" stroke="none" stroke-width="1" fill="none" fill-rule="evenodd">
        <g id="Who-We-Are" transform="translate(-461.000000, -1461.000000)" fill="#FFFFFF" fill-rule="nonzero">
            <g id="empower-icon" transform="translate(461.000000, 1461.000000)">
                <path d="M2,90 C2.5257812,90 3.0421876,89.7859376 3.4140624,89.4140624 C3.7859376,89.0421876 4,88.5257812 4,88 C4,87.4742188 3.7859376,86.9578124 3.4140624,86.5859376 C3.0421876,86.2140624 2.5257812,86 2,86 C1.4742188,86 0.9578124,86.2140624 0.5859376,86.5859376 C0.2140624,86.9578124 0,87.4742188 0,88 C0,88.5257812 0.2140624,89.0421876 0.5859376,89.4140624 C0.9578124,89.7859376 1.4742188,90 2,90 Z" id="Shape"></path>
                <path d="M89.5756174,24.9193572 C89.5739459,24.9185181 89.5731101,24.9176789 89.5722741,24.9168395 L75.3079115,15.2421569 C72.5722229,13.3874512 69.3149733,12.7009584 66.1956365,13.1625366 C66.3352211,12.487793 66.4079388,11.7945863 66.4079388,11.0887908 C66.4079388,8.3864593 65.3598014,5.84609996 63.4566048,3.93432617 L62.4887076,2.96333318 C60.585511,1.05239879 58.0554379,0 55.363213,0 C52.6718238,0 50.1417509,1.05239879 48.2377183,2.96333318 C46.3345218,4.87510676 45.2863844,7.41546631 45.2863844,10.118637 C45.2863844,12.8209686 46.3345218,15.3613281 48.2377183,17.2722625 L49.2056156,18.2440949 C50.4175764,19.4609832 51.8844672,20.3279115 53.4850915,20.7987214 L39.0878309,31.6902923 C38.1717555,32.3826598 37.5064308,33.2932282 37.1152599,34.2994691 C36.0796603,34.0888215 34.9813728,34.1475677 33.9307281,34.5243834 L19.9848186,39.5220184 C20.4938422,38.3126831 20.7755186,36.985016 20.7755186,35.5918883 L20.7755186,34.2180633 C20.7755186,28.6388397 16.2553221,24.1002654 10.69869,24.1002654 C5.14205786,24.1002654 0.621861354,28.6388397 0.621861354,34.2180633 L0.621861354,35.5918883 C0.621861354,39.4733429 2.81174945,42.8504181 6.01466976,44.5465088 C2.39550344,46.082306 0,49.6717072 0,53.6513519 L0,79.2773437 C0,80.4640199 0.957866978,81.4257812 2.13973799,81.4257812 C3.321609,81.4257812 4.27947598,80.4640199 4.27947598,79.2773437 L4.27947598,75.3455353 L12.7189035,75.3455353 C13.1644038,75.3455353 13.578142,75.2087402 13.9208345,74.9745941 L23.5964623,68.3798981 C24.5476426,67.7320099 25.6576316,67.3896027 26.806905,67.3896027 C29.9596752,67.3896027 32.5240175,69.9643708 32.5240175,73.1291198 L32.5240175,86.4435578 L26.5327511,88.8513184 L26.5327511,78.0957031 C26.5327511,77.32193 26.1181769,76.6085815 25.448673,76.2267303 C24.7783331,75.8457184 23.9558713,75.8549498 23.2947258,76.2519074 L12.453108,82.7635192 C11.1065775,83.5725404 10.2707424,85.0537873 10.2707424,86.6290283 L10.2707424,105.703125 L4.27947598,105.703125 L4.27947598,96.6838836 C4.27947598,95.4972077 3.321609,94.5354461 2.13973799,94.5354461 C0.957866978,94.5354461 0,95.4972077 0,96.6838836 L0,107.851562 C0,109.038239 0.957866978,110 2.13973799,110 L12.4104803,110 C13.5923514,110 14.5502183,109.038239 14.5502183,107.851562 L14.5502183,86.6290283 C14.5502183,86.556015 14.5886669,86.4880371 14.6505186,86.4511108 L22.2532751,81.884842 L22.2532751,107.851562 C22.2532751,109.038239 23.2111421,110 24.3930131,110 L95.860262,110 C97.042133,110 98,109.038239 98,107.851562 L98,40.5458831 C98,34.2163849 94.8514089,28.3786774 89.5756174,24.9193572 Z M93.720524,40.5458831 L93.720524,62.734375 L89.441048,62.734375 L89.441048,45.7902526 C89.441048,44.6035767 88.4831811,43.6418151 87.30131,43.6418151 C86.119439,43.6418151 85.1615721,44.6035767 85.1615721,45.7902526 L85.1615721,62.734375 L80.4541485,62.734375 L80.4541485,45.8557129 C80.4541485,43.0174254 79.4335938,40.2706146 77.6457424,38.1204987 L88.4413892,29.4008636 C91.7713564,32.1141051 93.720524,36.1776733 93.720524,40.5458831 Z M51.2642774,14.2342376 C50.1693334,13.134842 49.5658603,11.6728973 49.5658603,10.118637 C49.5658603,8.5635376 50.1693334,7.10159312 51.2642774,6.00219727 C52.3592215,4.90196223 53.8152463,4.296875 55.363213,4.296875 C56.9120154,4.296875 58.3680404,4.90196223 59.4629846,6.00219727 L60.4308816,6.97319025 C62.6909798,9.24247736 62.6909798,12.9359437 60.4308816,15.20607 C58.1699475,17.4753571 54.4914368,17.4753571 52.2313386,15.20607 L51.2642774,14.2342376 Z M41.6630391,35.1219176 L62.8915802,19.0623473 C65.8328842,16.8375397 69.8599379,16.7334748 72.9124078,18.8030242 L84.7745803,26.8479157 L74.3057451,35.3040314 L66.0953363,29.7348786 C65.5027293,29.3328857 64.7488058,29.2548371 64.0868244,29.5275879 L43.3288585,38.0617523 C42.5582184,38.3781432 41.658024,38.0776978 41.2300764,37.3609925 C41.2284049,37.3576354 41.2267331,37.3542787 41.2242255,37.3509215 C40.7829046,36.6031647 40.9718034,35.6447601 41.6630391,35.1219176 Z M4.90133734,34.2180633 C4.90133734,31.0079956 7.50162055,28.3971404 10.69869,28.3971404 C13.8957594,28.3971404 16.4960426,31.0079956 16.4960426,34.2180633 L16.4960426,35.5918883 C16.4960426,38.8011168 13.8957594,41.4128112 10.69869,41.4128112 C7.50162055,41.4128112 4.90133734,38.8019562 4.90133734,35.5918883 L4.90133734,34.2180633 Z M4.27947598,53.6513519 C4.27947598,51.2947845 5.764755,49.1790771 7.97553914,48.3868408 L35.3692003,38.571167 C36.1323178,38.2984162 36.9865414,38.6072541 37.3994439,39.3071746 C37.8533024,40.0759124 37.6343135,41.0746003 36.9004503,41.5798187 L18.0456811,54.5904541 C17.4647756,54.9907684 17.1179039,55.6529235 17.1179039,56.3603973 L17.1179039,67.6027679 L12.0619371,71.0486603 L4.27947598,71.0486603 L4.27947598,53.6513519 Z M26.8077408,63.0927277 C24.8794693,63.0927277 23.014721,63.6457826 21.3973799,64.6914673 L21.3973799,57.4908447 L39.3243723,45.1213836 C40.3449269,44.417267 41.0804619,43.4429168 41.500887,42.3544312 C41.8979088,42.4366761 42.3032888,42.4803161 42.7111763,42.4803161 C43.4634279,42.4803161 44.224038,42.3376465 44.9512145,42.0380402 L64.6493416,33.9394378 L73.1514568,39.7058105 C75.0446234,41.1635589 76.1746725,43.4588623 76.1746725,45.8557129 L76.1746725,62.734375 L71.9670784,62.734375 C71.4931599,62.734375 71.0334504,62.8921509 70.6581605,63.1825257 L49.3886633,79.6852113 L36.8034934,84.7332 L36.8034934,73.1291198 C36.8034934,67.5943757 32.3192379,63.0927277 26.8077408,63.0927277 Z M93.720524,105.703125 L26.5327511,105.703125 L26.5327511,93.4796906 L51.2542474,83.5641479 C51.4381311,83.4902954 51.611149,83.391266 51.768286,83.2687378 L72.6967625,67.03125 L93.720524,67.03125 L93.720524,105.703125 Z" id="Shape"></path>
                <path d="M80.0769855,80.3688492 L82.846029,80.3688492 L82.846029,88.8155754 C82.846029,90.0221288 83.7758044,91 84.9230145,91 C86.0702246,91 87,90.0221288 87,88.8155754 L87,78.1844246 C87,76.9787247 86.0702246,76 84.9230145,76 L80.0769855,76 C78.9297754,76 78,76.9787247 78,78.1844246 C78,79.390978 78.9297754,80.3688492 80.0769855,80.3688492 Z" id="Shape"></path>
                <path d="M85,95 C84.4742188,95 83.9578124,95.2140626 83.5859376,95.5859376 C83.2140624,95.9578126 83,96.4742188 83,97 C83,97.5257814 83.2140624,98.0421876 83.5859376,98.4140626 C83.9578124,98.7859376 84.4742188,99 85,99 C85.5257812,99 86.0421876,98.7859376 86.4140624,98.4140626 C86.7859376,98.0421876 87,97.5257814 87,97 C87,96.4742188 86.7859376,95.9578126 86.4140624,95.5859376 C86.0421876,95.2140626 85.5257812,95 85,95 Z" id="Shape"></path>
            </g>
        </g>
    </g>
</svg>