<?xml version="1.0" encoding="UTF-8"?>
<svg width="104px" height="113px" viewBox="0 0 104 113" version="1.1" xmlns="http://www.w3.org/2000/svg" xmlns:xlink="http://www.w3.org/1999/xlink">
    <!-- Generator: Sketch 51.3 (57544) - http://www.bohemiancoding.com/sketch -->
    <title>leave better icon</title>
    <desc>Created with Sketch.</desc>
    <defs>
        <polygon id="path-1" points="0.0132484076 0 103.847864 0 103.847864 113 0.0132484076 113"></polygon>
    </defs>
    <g id="Mockups" stroke="none" stroke-width="1" fill="none" fill-rule="evenodd">
        <g id="Who-We-Are" transform="translate(-1082.000000, -1461.000000)">
            <g id="leave-better-icon" transform="translate(1082.000000, 1461.000000)">
                <path d="M52,49 C53.1045,49 54,49.8953129 54,51 C54,52.1045 53.1045,53 52,53 C50.8953129,53 50,52.1045 50,51 C50,49.8953129 50.8953129,49 52,49" id="Fill-1" fill="#FFFFFF"></path>
                <g id="Group-5">
                    <mask id="mask-2" fill="white">
                        <use xlink:href="#path-1"></use>
                    </mask>
                    <g id="Clip-3"></g>
                    <path d="M51.9242633,56.8138398 C53.2276858,56.8138398 54.2844671,57.8699043 54.2844671,59.1729355 C54.2844671,60.4757461 53.2276858,61.5320312 51.9242633,61.5320312 C50.62062,61.5320312 49.5640594,60.4757461 49.5640594,59.1729355 C49.5640594,57.8699043 50.62062,56.8138398 51.9242633,56.8138398" id="Fill-2" fill="#FFFFFF" mask="url(#mask-2)"></path>
                    <path d="M99.1278981,63.2824277 C99.1278981,65.461209 97.3395839,67.2338965 95.1412314,67.2338965 C95.0926539,67.2338965 95.0454013,67.2380898 94.997707,67.2411797 L94.997707,48.2432754 C94.997707,46.9402441 93.9407049,45.8841797 92.6375032,45.8841797 C91.3340807,45.8841797 90.2772994,46.9402441 90.2772994,48.2432754 L90.2772994,61.1285859 L79.0616391,66.8302305 L76.4181401,65.4923281 C76.6053843,64.7865195 76.7058514,64.0458398 76.7058514,63.282207 L76.7058514,40.2811895 C76.7058514,36.0891543 75.0246285,32.2822461 72.299431,29.4883652 L88.2602293,29.4883652 C94.2527049,29.4883652 99.1276773,34.3299297 99.1276773,40.2811895 L99.1276773,63.2824277 L99.1278981,63.2824277 Z M90.2772994,105.136568 C90.2772994,106.870854 88.8656815,108.281809 87.1303609,108.281809 L84.5734183,108.281809 C82.8380977,108.281809 81.4264798,106.870854 81.4264798,105.136568 L81.4264798,79.2061582 C81.4264798,77.9033477 80.3696985,76.8470625 79.066276,76.8470625 C77.7630743,76.8470625 76.7060722,77.9033477 76.7060722,79.2061582 L76.7060722,105.136568 C76.7060722,106.870854 75.2944544,108.281809 73.5593546,108.281809 L71.0021911,108.281809 C69.2670913,108.281809 67.8554735,106.870854 67.8554735,105.136568 L67.8554735,71.944584 C67.9031677,71.9474531 67.9506412,71.9520879 67.9989979,71.9520879 C70.3229894,71.9520879 72.435448,71.0390391 73.9985393,69.5563555 L77.9975711,71.5804238 C78.3329766,71.7501445 78.6984119,71.8348945 79.0640679,71.8348945 C79.4310488,71.8348945 79.7978089,71.7494824 80.1338769,71.5788789 L90.2772994,66.4221504 L90.2772994,105.136568 Z M63.1350658,48.2432754 L63.1350658,61.1285859 L51.9194055,66.8302305 L40.7132399,61.1586016 L40.7132399,48.2432754 C40.7132399,46.9402441 39.6566794,45.8841797 38.3530361,45.8841797 C37.0496136,45.8841797 35.9928323,46.9402441 35.9928323,48.2432754 L35.9928323,67.240959 C35.945138,67.2380898 35.8978854,67.2336758 35.8493079,67.2336758 C33.6511762,67.2336758 31.8626412,65.4609883 31.8626412,63.282207 L31.8626412,40.2809687 C31.8626412,34.9077305 35.8373843,30.4404785 41.0199406,29.6229941 L49.9087389,44.2022012 C50.337104,44.9049199 51.1008747,45.3335254 51.9242633,45.3335254 C52.747431,45.3335254 53.5112017,44.9049199 53.9395669,44.2022012 L62.828586,29.6229941 C68.0109214,30.4402578 71.9858854,34.9077305 71.9858854,40.2809687 L71.9858854,63.282207 C71.9858854,65.4609883 70.1975711,67.2336758 67.9989979,67.2336758 C67.9506412,67.2336758 67.9031677,67.2378691 67.8554735,67.240959 L67.8554735,48.2432754 C67.8554735,46.9402441 66.7984713,45.8841797 65.4952696,45.8841797 C64.1920679,45.8841797 63.1350658,46.9402441 63.1350658,48.2432754 Z M63.1350658,105.136568 C63.1350658,106.870854 61.723448,108.281809 59.9881274,108.281809 L57.4311847,108.281809 C55.6960849,108.281809 54.2844671,106.870854 54.2844671,105.136568 L54.2844671,79.2061582 C54.2844671,77.9033477 53.227465,76.8470625 51.9242633,76.8470625 C50.62062,76.8470625 49.5640594,77.9033477 49.5640594,79.2061582 L49.5640594,105.136568 C49.5640594,106.870854 48.1524416,108.281809 46.417121,108.281809 L43.8603992,108.281809 C42.1250786,108.281809 40.7134607,106.870854 40.7134607,105.136568 L40.7134607,66.4473105 L50.856,71.5804238 C51.1914055,71.7501445 51.55662,71.8348945 51.922276,71.8348945 C52.2892569,71.8348945 52.656017,71.7494824 52.9920849,71.5788789 L63.1350658,66.4221504 L63.1350658,105.136568 Z M32.8461146,108.281809 L30.289172,108.281809 C28.5540722,108.281809 27.1424544,106.870854 27.1424544,105.136568 L27.1424544,79.2061582 C27.1424544,77.9033477 26.085673,76.8470625 24.7822505,76.8470625 C23.4786072,76.8470625 22.4220467,77.9033477 22.4220467,79.2061582 L22.4220467,105.136568 C22.4220467,106.870854 21.0104289,108.281809 19.2751083,108.281809 L16.7179448,108.281809 C14.9826242,108.281809 13.5710064,106.870854 13.5710064,105.136568 L13.5710064,66.4221504 L23.7144289,71.5784375 C24.0504968,71.7492617 24.4174777,71.8346738 24.7844586,71.8346738 C25.149673,71.8346738 25.5153291,71.7501445 25.8507346,71.5802031 L29.8497665,69.5561348 C31.4128577,71.0385977 33.5253163,71.9516465 35.8493079,71.9516465 C35.8978854,71.9516465 35.945138,71.9474531 35.9928323,71.9443633 L35.9928323,105.136348 C35.9928323,106.870854 34.5812144,108.281809 32.8461146,108.281809 Z M11.2108025,45.8841797 C9.90738004,45.8841797 8.85081953,46.9402441 8.85081953,48.2432754 L8.85081953,67.240959 C8.80312527,67.2380898 8.7556518,67.2336758 8.70729512,67.2336758 C6.50894268,67.2336758 4.72040764,65.4609883 4.72040764,63.282207 L4.72040764,40.2809687 C4.72040764,34.3299297 9.59560085,29.4883652 15.5878556,29.4883652 L31.5486539,29.4883652 C28.8236773,32.2822461 27.1424544,36.0891543 27.1424544,40.2809687 L27.1424544,63.282207 C27.1424544,64.0458398 27.2431423,64.7862988 27.4301656,65.4923281 L24.7868875,66.8302305 L13.5710064,61.1288066 L13.5710064,48.2432754 C13.5710064,46.9402441 12.5144459,45.8841797 11.2108025,45.8841797 Z M17.5835074,11.1466113 C17.5835074,7.60189844 20.468569,4.71819141 24.0149469,4.71819141 L25.5491125,4.71819141 C29.0954904,4.71819141 31.980552,7.60189844 31.980552,11.1466113 L31.980552,18.3419746 C31.980552,21.8866875 29.0954904,24.7703945 25.5491125,24.7703945 L24.0149469,24.7703945 C20.468569,24.7703945 17.5835074,21.8866875 17.5835074,18.3419746 L17.5835074,11.1466113 Z M57.382828,29.4885859 L51.9242633,38.4411875 L46.4654777,29.4885859 L57.382828,29.4885859 Z M44.7255202,11.1466113 C44.7255202,7.60189844 47.6105817,4.71819141 51.1571805,4.71819141 L52.6911253,4.71819141 C56.2375032,4.71819141 59.1227856,7.60189844 59.1227856,11.1466113 L59.1227856,18.3419746 C59.1227856,21.8866875 56.2375032,24.7703945 52.6911253,24.7703945 L51.1571805,24.7703945 C47.6105817,24.7703945 44.7255202,21.8866875 44.7255202,18.3419746 L44.7255202,11.1466113 Z M71.8677537,11.1466113 C71.8677537,7.60189844 74.7530361,4.71819141 78.2991932,4.71819141 L79.8333588,4.71819141 C83.3795159,4.71819141 86.2650191,7.60189844 86.2650191,11.1466113 L86.2650191,18.3419746 C86.2650191,21.8866875 83.3795159,24.7703945 79.8333588,24.7703945 L78.2991932,24.7703945 C74.7530361,24.7703945 71.8677537,21.8866875 71.8677537,18.3419746 L71.8677537,11.1466113 Z M88.9235329,24.787168 C90.2196688,22.9659258 90.9852059,20.7421211 90.9852059,18.3419746 L90.9852059,11.1466113 C90.9852059,5.00025 85.9826072,0 79.8333588,0 L78.2991932,0 C72.1501656,0 67.1473461,5.00025 67.1473461,11.1466113 L67.1473461,18.3419746 C67.1473461,20.7348379 67.9082463,22.9522422 69.1975372,24.7703945 L61.7927813,24.7703945 C63.0820722,22.9522422 63.8431932,20.7348379 63.8431932,18.3419746 L63.8431932,11.1466113 C63.8431932,5.00025 58.8403737,0 52.6911253,0 L51.1571805,0 C45.0079321,0 40.0051125,5.00025 40.0051125,11.1466113 L40.0051125,18.3419746 C40.0051125,20.7348379 40.7664544,22.9522422 42.0557452,24.7703945 L34.6512102,24.7703945 C35.9400594,22.9522422 36.7009597,20.7348379 36.7009597,18.3419746 L36.7009597,11.1466113 C36.7009597,5.00025 31.6983609,0 25.5491125,0 L24.0149469,0 C17.8656985,0 12.8630998,5.00025 12.8630998,11.1466113 L12.8630998,18.3419746 C12.8630998,20.7421211 13.6286369,22.9659258 14.9249936,24.787168 C6.6363482,25.1341133 0,31.9496465 0,40.2814102 L0,63.2824277 C0,68.0628574 3.90585138,71.9520879 8.70729512,71.9520879 C8.7556518,71.9520879 8.80312527,71.9476738 8.85081953,71.944584 L8.85081953,105.136568 C8.85081953,109.472502 12.3799745,113 16.7179448,113 L19.2746667,113 C21.4167134,113 23.3615796,112.13992 24.7818089,110.747062 C26.2018174,112.13992 28.1469045,113 30.2887304,113 L32.845673,113 C34.9881614,113 36.9301571,112.136168 38.3501656,110.742648 C39.7706157,112.137492 41.7161444,113 43.8599575,113 L46.4166794,113 C48.5587261,113 50.5035924,112.13992 51.9236008,110.747062 C53.3438301,112.13992 55.2889172,113 57.4307431,113 L59.9876858,113 C62.1314989,113 64.0770276,112.137492 65.4974777,110.742648 C66.9172654,112.136168 68.8592611,113 71.0017495,113 L73.558913,113 C75.7007389,113 77.6458259,112.13992 79.0658344,110.747062 C80.4860637,112.13992 82.4311507,113 84.5729766,113 L87.1299193,113 C91.4678896,113 94.9972654,109.472502 94.9972654,105.136568 L94.9972654,71.944584 C95.0447389,71.9474531 95.0922123,71.9520879 95.140569,71.9520879 C99.9417919,71.9520879 103.847864,68.0628574 103.847864,63.2824277 L103.847864,40.2814102 C103.848306,31.9496465 97.2119575,25.1341133 88.9235329,24.787168 Z" id="Fill-4" fill="#FFFFFF" mask="url(#mask-2)"></path>
                </g>
            </g>
        </g>
    </g>
</svg>