<?xml version="1.0" encoding="UTF-8"?>
<svg width="108px" height="108px" viewBox="0 0 108 108" version="1.1" xmlns="http://www.w3.org/2000/svg" xmlns:xlink="http://www.w3.org/1999/xlink">
    <!-- Generator: Sketch 51.3 (57544) - http://www.bohemiancoding.com/sketch -->
    <title>meaningful value icon</title>
    <desc>Created with Sketch.</desc>
    <defs></defs>
    <g id="Mockups" stroke="none" stroke-width="1" fill="none" fill-rule="evenodd">
        <g id="Who-We-Are" transform="translate(-235.000000, -1463.000000)" fill="#FFFFFF" fill-rule="nonzero">
            <g id="Group-9" transform="translate(223.000000, 1463.000000)">
                <g id="meaningful-value-icon" transform="translate(12.000000, 0.000000)">
                    <path d="M89.414,104.586 C89.042,104.214 88.5278,104 88,104 C87.474,104 86.958,104.214 86.586,104.586 C86.2142,104.958 86,105.474 86,106 C86,106.526 86.214,107.042 86.586,107.414 C86.958,107.786 87.474,108 88,108 C88.526,108 89.042,107.786 89.414,107.414 C89.788,107.042 90,106.526 90,106 C90,105.474 89.788,104.958 89.414,104.586 Z" id="Shape"></path>
                    <path d="M106.527384,35.3374737 C105.24218,33.4833684 103.301278,32.2475789 101.062234,31.8572632 C97.4374704,31.2254737 93.8936307,33.0216842 92.2146672,36.0981053 L92.2146672,13.8837895 C92.2146672,9.38273684 88.510257,5.72105263 83.9574208,5.72105263 C82.4682032,5.72105263 81.0714095,6.11473684 79.8637228,6.79936842 C79.2050427,2.94547368 75.8068665,0 71.7238164,0 C67.6407663,0 64.2428031,2.94547368 63.584123,6.79936842 C62.3764363,6.11473684 60.9796426,5.72105263 59.4904249,5.72105263 C55.2101754,5.72105263 51.6808169,8.95768421 51.2734276,13.0850526 C50.0836294,12.4273684 48.7143073,12.0507368 47.2570335,12.0507368 C42.7039843,12.0507368 39,15.7126316 39,20.2134737 C39,21.3762105 39.9536274,22.3187368 41.1295833,22.3187368 C42.3055393,22.3187368 43.2591667,21.3762105 43.2591667,20.2134737 C43.2591667,18.0341053 45.0527018,16.2612632 47.2570335,16.2612632 C49.3214515,16.2612632 51.0253312,17.8164211 51.2333915,19.804 L51.2333915,25.4166316 C51.2333915,26.5793684 52.1870189,27.5218947 53.3629748,27.5218947 C54.5389307,27.5218947 55.4925581,26.5793684 55.4925581,25.4166316 L55.4925581,13.884 C55.4925581,11.7046316 57.2860932,9.93178947 59.4904249,9.93178947 C61.554843,9.93178947 63.2587226,11.4869474 63.4667829,13.4745263 L63.4667829,29.8532632 C63.4667829,29.9498947 63.4885047,30.6496842 63.4885047,30.6496842 C63.4885047,31.8124211 64.4421321,32.7549474 65.618088,32.7549474 C66.7940439,32.7549474 67.7476714,31.8124211 67.7476714,30.6496842 L67.7476714,13.8837895 C67.7476714,13.6953684 67.7387271,13.5088421 67.7259496,13.3235789 L67.7259496,8.16273684 C67.7259496,5.98336842 69.5194847,4.21052632 71.7238164,4.21052632 C73.9281481,4.21052632 75.7216832,5.98357895 75.7216832,8.16273684 L75.7216832,13.3235789 C75.7089057,13.5088421 75.6999614,13.6953684 75.6999614,13.8837895 L75.6999614,43.4907368 C75.6999614,44.6534737 76.6535889,45.596 77.8295448,45.596 C79.0055007,45.596 79.9591281,44.6534737 79.9591281,43.4907368 L79.9808499,13.4741053 C80.1889102,11.4865263 81.8927898,9.93136842 83.9574208,9.93136842 C86.1619655,9.93136842 87.9552876,11.7044211 87.9552876,13.8835789 L87.9552876,45.0252632 C87.9552876,46.5650526 89.077791,47.8168421 90.6240815,48.0014737 C92.1690942,48.1869474 93.5618417,47.2347368 93.933028,45.7389474 L95.5904828,39.0543158 C96.1073326,36.9711579 98.1836764,35.6305263 100.322417,36.0035789 C101.425115,36.1957895 102.380872,36.8044211 103.013997,37.7174737 C103.646909,38.6305263 103.876266,39.7315789 103.659474,40.8176842 L100.451044,56.9025263 C99.3741135,62.3016842 96.7212915,67.2092632 92.7798587,71.0949474 L86.1553638,77.6252632 C85.7545762,78.0202105 85.5294792,78.5566316 85.5294792,79.116 L85.5294792,97.8947368 C85.5294792,99.0574737 86.4831067,100 87.6590626,100 C88.8350185,100 89.7886459,99.0574737 89.7886459,97.8947368 L89.7886459,79.9898947 L95.7874692,74.0766316 C100.330935,69.5976842 103.388591,63.9406316 104.630138,57.7172632 L107.838568,41.6324211 C108.278327,39.4271579 107.812587,37.1915789 106.527384,35.3374737 Z" id="Shape"></path>
                    <path d="M61.9486443,65 C60.815999,65 59.8974938,65.94833 59.8974938,67.1182266 L59.8974938,73.3305616 C59.8974938,80.297197 57.266688,86.8431527 52.4895584,91.7625222 L48.6028332,95.7649113 C48.2168066,96.1622906 48,96.7020148 48,97.2648276 L48,105.881773 C48,107.05167 48.9185052,108 50.0511506,108 C51.1837959,108 52.1023011,107.05167 52.1023011,105.881773 L52.1023011,98.1441034 L55.3861932,94.7625665 C60.940914,89.0427192 64,81.4312956 64,73.3307734 L64,67.1182266 C63.9997949,65.94833 63.0814948,65 61.9486443,65 Z" id="Shape"></path>
                    <path d="M63.414,57.586 C63.042,57.214 62.526,57 62,57 C61.474,57 60.958,57.214 60.5862,57.586 C60.2142,57.958 60,58.474 60,59 C60,59.526 60.214,60.042 60.5862,60.414 C60.958,60.786 61.474,61 62,61 C62.526,61 63.042,60.786 63.414,60.414 C63.786,60.042 64,59.526 64,59 C64,58.474 63.7862,57.958 63.414,57.586 Z" id="Shape"></path>
                    <path d="M57.1287613,34.3100206 C55.8040589,34.3100206 54.5556961,34.6366502 53.459376,35.2104532 C52.9877675,31.3619686 49.6657269,28.3694715 45.6477246,28.3694715 C44.2899417,28.3694715 43.0114672,28.7111956 41.8954261,29.3122527 C41.198192,25.7218432 37.9989307,23 34.1668999,23 C30.334869,23 27.1353957,25.7218432 26.4383737,29.3122527 C25.3223326,28.7111956 24.0436459,28.3694715 22.6858631,28.3694715 C18.3457504,28.3694715 14.8148365,31.8602988 14.8148365,36.1513477 L14.8148365,56.5506013 C13.1368519,53.8602051 9.91002358,52.3270587 6.61215716,52.9014907 C4.47825607,53.273404 2.62850756,54.4516185 1.40347063,56.2187306 C0.178433703,57.9858427 -0.265183616,60.1164822 0.15383542,62.2181904 L3.16500461,77.3146402 C4.33490745,83.1792973 7.21608743,88.5099841 11.4974611,92.7308013 L17.091238,98.2453483 L17.091238,105.903533 C17.091238,107.061412 18.0408165,108 19.2117797,108 C20.3827428,108 21.3323213,107.061412 21.3323213,105.903533 L21.3323213,97.3751048 C21.3323213,96.8180735 21.107968,96.2838937 20.7090941,95.8905965 L14.4923021,89.761575 C10.8101935,86.1315422 8.33212852,81.546988 7.32614354,76.5033075 L4.31497436,61.4068577 C4.11818809,60.4196313 4.32663734,59.4187779 4.9019403,58.5887866 C5.47745531,57.7587953 6.34645329,57.205328 7.34862129,57.0306923 C9.29103747,56.6919032 11.180016,57.9101602 11.649716,59.8038989 L13.2053454,66.0777863 C13.56817,67.5415396 14.9278614,68.4738386 16.4436246,68.2922845 C17.9572672,68.111569 19.0557078,66.8863937 19.0557078,65.3792435 L19.0557078,36.151138 C19.0557078,34.1722827 20.6842838,32.562196 22.6858631,32.562196 C24.5587255,32.562196 26.1046004,33.9720701 26.2954491,35.7748222 L26.2954491,51.1387812 C26.2954491,52.29666 27.2450277,53.2352483 28.4159908,53.2352483 C28.4193837,53.2352483 28.4227766,53.234829 28.4261694,53.234829 C28.4295623,53.234829 28.4329552,53.2352483 28.436348,53.2352483 C29.6073111,53.2352483 30.5568897,52.29666 30.5568897,51.1387812 L30.5568897,36.1509284 C30.5568897,35.9727287 30.5486196,35.7964158 30.5365325,35.6211511 L30.5365325,30.7814569 C30.5365325,28.8026016 32.1651085,27.1925149 34.1666878,27.1925149 C36.1682671,27.1925149 37.7968431,28.8023919 37.7968431,30.7814569 L37.7968431,35.6211511 C37.784756,35.7964158 37.7764859,35.9727287 37.7764859,36.1509284 L37.7764859,51.1387812 C37.7764859,52.29666 38.7260645,53.2352483 39.8970276,53.2352483 C39.9004205,53.2352483 39.9038133,53.234829 39.9072062,53.234829 C39.9105991,53.234829 39.9139919,53.2352483 39.9173848,53.2352483 C41.0883479,53.2352483 42.0379265,52.29666 42.0379265,51.1387812 L42.0379265,35.7748222 C42.2287752,33.9720701 43.7744381,32.562196 45.6475125,32.562196 C47.6490918,32.562196 49.2776678,34.1720731 49.2776678,36.151138 L49.2575227,51.1389908 C49.2575227,52.2968696 50.2071012,53.2354579 51.3780644,53.2354579 C51.3814572,53.2354579 51.3848501,53.2350386 51.388243,53.2350386 C51.3916358,53.2350386 51.3950287,53.2354579 51.3984216,53.2354579 C52.5693847,53.2354579 53.5189632,52.2968696 53.5189632,51.1389908 L53.5189632,41.7155809 C53.709812,39.9128289 55.2556869,38.5029548 57.1287613,38.5029548 C59.1303406,38.5029548 60.7589166,40.1128319 60.7589166,42.0918968 L60.7589166,51.8847042 C60.7589166,53.0425829 61.7084952,53.9811713 62.8794583,53.9811713 C64.0504214,53.9811713 65,53.0425829 65,51.8847042 L65,42.0918968 C65,37.8010576 61.469086,34.3100206 57.1287613,34.3100206 Z" id="Shape"></path>
                    <path d="M30.3959555,11.4791294 L19.520989,0.604050723 C18.7155964,-0.201350241 17.4100559,-0.201350241 16.6040445,0.604050723 C15.7986518,1.40945169 15.7986518,2.71541812 16.6040445,3.52081908 L27.4792172,14.3958977 C27.8820167,14.7987013 28.4098015,15 28.9375864,15 C29.4653712,15 29.9931561,14.7984951 30.3959555,14.3958977 C31.2013482,13.5904967 31.2013482,12.2845303 30.3959555,11.4791294 Z" id="Shape"></path>
                    <path d="M23.7478492,17 L18.2521508,17 C17.0085131,17 16,17.8954 16,19 C16,20.1046 17.0085131,21 18.2521508,21 L23.7478492,21 C24.9914869,21 26,20.1046 26,19 C26,17.8954 24.9914869,17 23.7478492,17 Z" id="Shape"></path>
                    <path d="M36,0 C34.8956,0 34,0.990092441 34,2.21150869 L34,7.78849131 C34,9.00990756 34.8954,10 36,10 C37.1044,10 38,9.00990756 38,7.78849131 L38,2.21150869 C38,0.990092441 37.1044,0 36,0 Z" id="Shape"></path>
                </g>
            </g>
        </g>
    </g>
</svg>