<?xml version="1.0" encoding="UTF-8"?>
<svg width="82px" height="54px" viewBox="0 0 82 54" version="1.1" xmlns="http://www.w3.org/2000/svg" xmlns:xlink="http://www.w3.org/1999/xlink">
    <!-- Generator: Sketch 51.3 (57544) - http://www.bohemiancoding.com/sketch -->
    <title>megaphone</title>
    <desc>Created with Sketch.</desc>
    <defs></defs>
    <g id="Mockups" stroke="none" stroke-width="1" fill="none" fill-rule="evenodd">
        <g id="Who-We-Are" transform="translate(-265.000000, -543.000000)" fill-rule="nonzero">
            <g id="Group-3" transform="translate(265.000000, 535.000000)">
                <g id="megaphone" transform="translate(0.000000, 8.000000)">
                    <path d="M57.5217391,0 C54.5004783,0 52.0434783,2.4219 52.0434783,5.4 L52.0434783,7.11045 L9.52532609,20.31885 C9.21854348,18.00225 7.22582609,16.2 4.79347826,16.2 C2.15021739,16.2 0,18.3195 0,20.925 L0,33.075 C0,35.6805 2.15021739,37.8 4.79347826,37.8 C7.22582609,37.8 9.21854348,35.99775 9.52532609,33.68115 L12.4479783,34.58835 C12.0151957,35.05545 11.6686957,35.61165 11.4577826,36.25155 C10.6661739,38.6586 12.0083478,41.2533 14.4530217,42.0336 L30.0866087,47.0259 L30.0879783,47.0259 C30.5632174,47.1771 31.0439348,47.25 31.5178043,47.25 C33.4831304,47.25 35.3142391,46.01205 35.9524565,44.0721 C36.1866522,43.3566 36.2140435,42.6303 36.099,41.9337 L52.0434783,46.88955 L52.0434783,48.6 C52.0434783,51.5781 54.5004783,54 57.5217391,54 C60.543,54 63,51.5781 63,48.6 L63,5.4 C63,2.4219 60.543,0 57.5217391,0 Z M33.3461739,43.24185 C33.0202174,44.2341 31.9355217,44.78085 30.9302609,44.4582 L15.2966739,39.4659 C14.2900435,39.1446 13.7353696,38.07675 14.0626957,37.0845 C14.3900217,36.0936 15.4719783,35.54955 16.4772391,35.8695 L32.1135652,40.8618 C33.1188261,41.1831 33.6707609,42.25095 33.3461739,43.24185 Z M6.84782609,33.075 C6.84782609,34.19145 5.9261087,35.1 4.79347826,35.1 C3.66084783,35.1 2.73913043,34.19145 2.73913043,33.075 L2.73913043,20.925 C2.73913043,19.80855 3.66084783,18.9 4.79347826,18.9 C5.9261087,18.9 6.84782609,19.80855 6.84782609,20.925 L6.84782609,21.15045 L6.84782609,32.84955 L6.84782609,33.075 Z M9.58695652,30.8691 L9.58695652,23.1309 L52.0434783,9.94005 L52.0434783,44.0586 L9.58695652,30.8691 Z M60.2608696,48.6 C60.2608696,50.08905 59.0323696,51.3 57.5217391,51.3 C56.0111087,51.3 54.7826087,50.08905 54.7826087,48.6 L54.7826087,47.74005 L54.7826087,6.25995 L54.7826087,5.4 C54.7826087,3.91095 56.0111087,2.7 57.5217391,2.7 C59.0323696,2.7 60.2608696,3.91095 60.2608696,5.4 L60.2608696,48.6 Z" id="Shape" fill="#7A6855"></path>
                    <path d="M74,25 L73,25 C72.447,25 72,25.447 72,26 C72,26.553 72.447,27 73,27 L74,27 C74.553,27 75,26.553 75,26 C75,25.447 74.553,25 74,25 Z" id="Shape" fill="#64A70B"></path>
                    <path d="M69,27 L70,27 C70.553,27 71,26.553 71,26 C71,25.447 70.553,25 70,25 L69,25 C68.447,25 68,25.447 68,26 C68,26.553 68.447,27 69,27 Z" id="Shape" fill="#64A70B"></path>
                    <path d="M81,25 L80,25 C79.447,25 79,25.447 79,26 C79,26.553 79.447,27 80,27 L81,27 C81.553,27 82,26.553 82,26 C82,25.447 81.553,25 81,25 Z" id="Shape" fill="#64A70B"></path>
                    <path d="M72.1083102,7 C72.3919668,7 72.6756233,6.89140271 72.8916898,6.67531628 L73.6750693,5.89186444 C74.1083102,5.45858343 74.1083102,4.75824176 73.6750693,4.32496075 C73.2418283,3.89167975 72.5415512,3.89167975 72.1083102,4.32496075 L71.3249307,5.1084126 C70.8916898,5.5416936 70.8916898,6.24203528 71.3249307,6.67531628 C71.5409972,6.89140271 71.8246537,7 72.1083102,7 Z" id="Shape" fill="#64A70B"></path>
                    <path d="M75.1083102,4 C75.3919668,4 75.6756233,3.89140271 75.8916898,3.67531628 L76.6750693,2.89186444 C77.1083102,2.45858343 77.1083102,1.75824176 76.6750693,1.32496075 C76.2418283,0.891679749 75.5415512,0.891679749 75.1083102,1.32496075 L74.3249307,2.1084126 C73.8916898,2.5416936 73.8916898,3.24203528 74.3249307,3.67531628 C74.5421053,3.89140271 74.8246537,4 75.1083102,4 Z" id="Shape" fill="#64A70B"></path>
                    <path d="M69.1083102,12 C69.3919668,12 69.6756233,11.8914027 69.8916898,11.6753163 L70.6750693,10.8918644 C71.1083102,10.4585834 71.1083102,9.75824176 70.6750693,9.32496075 C70.2418283,8.89167975 69.5415512,8.89167975 69.1083102,9.32496075 L68.3249307,10.1084126 C67.8916898,10.5416936 67.8916898,11.2420353 68.3249307,11.6753163 C68.5409972,11.8925109 68.8246537,12 69.1083102,12 Z" id="Shape" fill="#64A70B"></path>
                    <path d="M69.6608114,18.0675324 L68.6959432,18.4766537 C68.1626194,18.7032241 67.8745838,19.4360173 68.0526977,20.1144336 C68.1951888,20.6569078 68.5911104,21 69.0175659,21 C69.1234164,21 69.2333381,20.9779903 69.3391886,20.9326762 L70.3040568,20.5235549 C70.8373806,20.2969846 71.1254162,19.5641914 70.9473023,18.885775 C70.7691884,18.2073587 70.1931173,17.8396674 69.6608114,18.0675324 Z" id="Shape" fill="#64A70B"></path>
                    <path d="M73.0182382,18 C73.1240529,18 73.2339373,17.9779903 73.3397519,17.9326762 L74.3042929,17.5235549 C74.8374358,17.2969846 75.1253736,16.5641914 74.9473202,15.885775 C74.7692667,15.2073587 74.1944084,14.8396674 73.6602481,15.0675324 L72.6957071,15.4766537 C72.1625642,15.7032241 71.8746264,16.4360173 72.0526798,17.1144336 C72.1951226,17.6569078 72.5919274,18 73.0182382,18 Z" id="Shape" fill="#64A70B"></path>
                    <path d="M78.0521844,16.1124714 C78.194631,16.6566495 78.5914466,17 79.0177691,17 C79.1235866,17 79.2324565,16.9779737 79.338274,16.9339212 L80.3028413,16.5257876 C80.8359987,16.2990467 81.1249619,15.5657019 80.9479211,14.8867749 C80.7698628,14.2078479 80.1929539,13.8424712 79.6608139,14.0653251 L78.6962467,14.4734587 C78.1630892,14.7014952 77.8751435,15.43484 78.0521844,16.1124714 Z" id="Shape" fill="#64A70B"></path>
                    <path d="M75.8916898,50.3249608 C75.4584488,49.8916797 74.7581717,49.8916797 74.3249307,50.3249608 C73.8916898,50.7582418 73.8916898,51.4585834 74.3249307,51.8918644 L75.1083102,52.6753163 C75.3254848,52.8914027 75.6080332,53 75.8916898,53 C76.1753463,53 76.4590028,52.8914027 76.6750693,52.6753163 C77.1083102,52.2420353 77.1083102,51.5416936 76.6750693,51.1084126 L75.8916898,50.3249608 Z" id="Shape" fill="#64A70B"></path>
                    <path d="M72.8916898,45.3249608 C72.4584488,44.8916797 71.7581717,44.8916797 71.3249307,45.3249608 C70.8916898,45.7582418 70.8916898,46.4585834 71.3249307,46.8918644 L72.1083102,47.6753163 C72.3243767,47.8914027 72.6080332,48 72.8916898,48 C73.1753463,48 73.4590028,47.8914027 73.6750693,47.6753163 C74.1083102,47.2420353 74.1083102,46.5416936 73.6750693,46.1084126 L72.8916898,45.3249608 Z" id="Shape" fill="#64A70B"></path>
                    <path d="M69.8916898,41.3249608 C69.4584488,40.8916797 68.7581717,40.8916797 68.3249307,41.3249608 C67.8916898,41.7582418 67.8916898,42.4585834 68.3249307,42.8918644 L69.1083102,43.6753163 C69.3243767,43.8914027 69.6080332,44 69.8916898,44 C70.1753463,44 70.4590028,43.8914027 70.6750693,43.6753163 C71.1083102,43.2420353 71.1083102,42.5416936 70.6750693,42.1084126 L69.8916898,41.3249608 Z" id="Shape" fill="#64A70B"></path>
                    <path d="M72.6966955,37.5236341 L73.6612074,37.9326874 C73.7670189,37.977994 73.8769,38 73.9827114,38 C74.4090095,38 74.8058024,37.6569648 74.9472234,37.1145808 C75.1252715,36.4375716 74.8383597,35.7036057 74.3042154,35.477073 L73.3397034,35.0680197 C72.8086114,34.838898 72.2307181,35.2078227 72.05267,35.8861263 C71.8746219,36.5644299 72.1625512,37.2971014 72.6966955,37.5236341 Z" id="Shape" fill="#64A70B"></path>
                    <path d="M70.3050155,33.477073 L69.3402132,33.0680197 C68.8079436,32.838898 68.2308941,33.2078227 68.0527924,33.8861263 C67.8746908,34.5644299 68.1616889,35.2971014 68.695994,35.5236341 L69.6607963,35.9326874 C69.7666395,35.977994 69.8765537,36 69.982397,36 C70.4088233,36 70.8057357,35.6569648 70.9471993,35.1145808 C71.125301,34.4362772 70.8383028,33.7036057 70.3050155,33.477073 Z" id="Shape" fill="#64A70B"></path>
                    <path d="M80.3037759,37.4739804 L79.3392399,37.065931 C78.8081347,36.8418278 78.2292096,37.2071291 78.0521746,37.8872113 C77.8751395,38.5647027 78.1630758,39.2991915 78.6972334,39.5258855 L79.6617694,39.9339349 C79.7675835,39.9779783 79.8764499,40 79.9822639,40 C80.4085725,40 80.8063928,39.6567204 80.9478173,39.1126546 C81.1248524,38.4338678 80.836916,37.7006744 80.3037759,37.4739804 Z" id="Shape" fill="#64A70B"></path>
                </g>
            </g>
        </g>
    </g>
</svg>