<?xml version="1.0" standalone="no"?>
<!DOCTYPE svg PUBLIC "-//W3C//DTD SVG 20010904//EN"
 "http://www.w3.org/TR/2001/REC-SVG-20010904/DTD/svg10.dtd">
<svg version="1.0" xmlns="http://www.w3.org/2000/svg"
 width="516.000000pt" height="516.000000pt" viewBox="0 0 516.000000 516.000000"
 preserveAspectRatio="xMidYMid meet">
<metadata>
Created by potrace 1.11, written by Peter Selinger 2001-2013
</metadata>
<g transform="translate(0.000000,516.000000) scale(0.100000,-0.100000)"
fill="#000000" stroke="none">
<path d="M0 5103 c0 -31 4 -53 8 -47 5 5 26 30 46 57 l38 47 -46 0 -46 0 0
-57z"/>
<path d="M218 5088 c-79 -90 -133 -157 -181 -226 l-37 -52 0 -1198 0 -1197 73
-97 c94 -126 236 -285 339 -379 256 -234 575 -449 887 -597 l93 -44 92 27
c118 36 437 153 546 200 47 20 137 57 200 82 282 111 783 338 873 395 41 26
47 34 47 64 0 19 -3 34 -7 34 -5 0 -66 14 -138 31 -274 63 -436 92 -590 104
-44 3 -147 20 -230 37 -125 26 -174 32 -295 32 -163 1 -168 -1 -263 -78 -70
-57 -147 -80 -231 -71 -135 16 -168 50 -148 157 6 34 24 80 41 106 43 67 187
205 246 236 49 26 52 26 267 26 140 0 254 -5 320 -15 192 -28 514 -45 652 -34
223 17 426 95 462 178 19 45 18 124 -2 164 -9 18 -63 80 -120 139 -56 59 -111
119 -120 134 -24 35 -23 148 1 194 9 17 14 34 12 37 -5 4 -661 -21 -847 -33
l-95 -6 348 342 c191 189 345 345 342 349 -8 7 -1767 222 -1773 216 -2 -2 17
-50 41 -107 25 -56 44 -104 43 -106 -8 -7 -319 147 -446 221 -160 94 -309 196
-310 212 0 21 76 85 100 85 14 0 666 -68 1448 -151 1111 -119 1426 -150 1432
-140 4 7 15 58 25 114 27 158 114 348 267 581 32 48 58 92 58 97 0 5 -704 9
-1679 9 l-1679 0 -64 -72z"/>
<path d="M3865 5133 c-10 -40 -59 -123 -103 -174 -49 -56 -62 -78 -166 -282
-47 -93 -86 -178 -86 -190 0 -12 8 -32 18 -44 l17 -23 45 56 c68 85 124 167
197 289 37 61 95 154 129 207 62 95 64 97 109 103 54 9 76 -6 93 -61 11 -36 9
-39 -50 -123 -34 -47 -94 -127 -134 -177 -41 -50 -107 -145 -149 -210 l-75
-119 26 -13 c22 -11 29 -11 57 7 42 26 229 218 290 298 26 34 61 71 77 83 27
19 34 20 68 10 67 -22 101 -48 108 -85 3 -18 1 -42 -6 -54 -6 -12 -70 -81
-143 -154 -140 -140 -221 -227 -215 -232 1 -1 255 -28 563 -59 308 -31 575
-59 593 -62 l32 -5 0 521 0 520 -644 0 -644 0 -7 -27z"/>
<path d="M3030 4009 c-47 -28 -89 -54 -93 -59 -26 -24 271 66 298 91 5 5 -3 9
-20 9 -17 0 -46 2 -65 5 -29 4 -49 -3 -120 -46z"/>
<path d="M3310 3960 c-14 -5 -110 -33 -215 -62 l-190 -52 47 -9 c43 -8 58 -4
220 58 95 36 175 68 177 71 6 6 -11 3 -39 -6z"/>
<path d="M4292 3902 c7 -11 33 -37 58 -58 88 -76 116 -115 137 -189 19 -67 19
-73 3 -145 -19 -84 -86 -231 -192 -423 -39 -71 -84 -167 -101 -215 l-29 -86
43 -264 c24 -145 46 -267 49 -272 3 -4 165 -4 360 0 195 5 397 6 448 3 l92 -6
0 794 0 794 -427 43 c-236 23 -434 42 -441 42 -11 0 -11 -3 0 -18z"/>
<path d="M3490 3895 c-66 -13 -122 -31 -335 -105 -157 -54 -316 -90 -407 -91
-69 -1 -71 -2 -33 -11 79 -19 268 -3 420 35 138 35 518 156 553 176 25 15
-118 12 -198 -4z"/>
<path d="M3920 3686 c-31 -18 -48 -79 -57 -207 l-6 -96 34 -36 c51 -54 75 -56
134 -9 60 48 128 164 118 202 -9 37 -50 77 -125 121 -36 21 -68 39 -70 39 -2
-1 -14 -7 -28 -14z"/>
<path d="M0 1647 l0 -534 32 -7 c71 -15 386 -25 503 -16 134 10 172 17 395 66
134 29 184 42 259 70 8 3 -38 33 -110 73 -226 123 -405 241 -589 388 -114 91
-326 298 -416 406 l-74 88 0 -534z"/>
<path d="M4301 2068 c1 -47 25 -163 33 -162 4 1 51 36 103 79 94 77 95 78 72
91 -15 8 -59 13 -116 14 -90 0 -93 -1 -92 -22z"/>
<path d="M3057 1845 c-74 -22 -112 -49 -112 -79 0 -9 187 -76 212 -76 10 0 13
23 13 90 0 105 7 101 -113 65z"/>
<path d="M4945 925 c-749 -178 -1235 -268 -2052 -380 -802 -111 -977 -130
-1578 -170 -126 -9 -277 -20 -335 -25 -166 -16 -433 -29 -717 -37 l-263 -6 0
-154 0 -153 2580 0 2580 0 0 485 c0 456 -1 485 -17 484 -10 -1 -99 -21 -198
-44z"/>
</g>
</svg>
