<svg xmlns="http://www.w3.org/2000/svg" viewBox="0 0 1440 128">
  <path d="M1441 128.043v-.021h-.055c.019.006.037.014.055.021z"/>
  <path fill="#FFF" d="M505.316 69.838C423.074 77.531 254.635 85.154 0 92.711v35.311h1440.945c-82.925-33.224-189.941-59.059-321.051-77.506C923.188 22.84 628.68 58.299 505.316 69.838z"/>
  <path fill="#D7D5D5" d="M1440 128.043c-82.933-33.234-189.968-59.076-321.105-77.527C922.188 22.84 627.68 58.299 504.316 69.838 422.074 77.531 253.635 85.154-1 92.711V75.809c154.096 5.293 254.165 6.469 300.207 3.525 235.334-10.887 341.722-32.459 377.398-38.701C895.762 3.377 1119.095.746 1191 .746c92.023 0 175.023 4.143 249 12.43v114.867z"/>
</svg>