<svg height="45" viewBox="0 0 42 45" width="42" xmlns="http://www.w3.org/2000/svg"><g fill="#fff" transform=""><circle cx="21" cy="20" r="1"/><circle cx="21" cy="24" r="1"/><path d="m35.964266 9.87101537c.5242096-.72527485.8339131-1.61077463.8339131-2.56667493v-2.86541575c0-2.4476708-2.0232529-4.43892469-4.5102571-4.43892469h-.6204785c-2.4870043 0-4.5102571 1.99125389-4.5102571 4.43892469v2.86532786c0 .95299991.3077387 1.83595085.8290907 2.55999523h-2.9946929c.521352-.72404438.8291801-1.60699532.8291801-2.55999523v-2.86532786c0-2.4476708-2.0232529-4.43892469-4.5102571-4.43892469h-.6204785c-2.4870043 0-4.5102571 1.99125389-4.5102571 4.43892469v2.86532786c0 .95299991.307828 1.83595085.8293586 2.55999523h-2.9946929c.5212627-.72404438.8290015-1.60699532.8290015-2.55999523v-2.86532786c-.0000893-2.4476708-2.0233422-4.43892469-4.5103464-4.43892469h-.62047854c-2.48700426 0-4.51025711 1.99125389-4.51025711 4.43892469v2.86532786c0 .9559003.30961413 1.84140008.8339131 2.56667493-3.35217347.13816432-6.03626985 2.85240792-6.03626985 6.17028552v9.1597151c0 1.9037147 1.57968395 3.4525263 3.5215816 3.4525263.0195574 0 .03875758-.0016699.05804707-.0029004v13.2179848c0 1.7267026 1.42733273 3.1314612 3.181783 3.1314612h1.03404152c.86633015 0 1.65291256-.3425104 2.22722131-.8971893.5743981.5546789 1.3609805.8971893 2.2272213.8971893h1.0340415c.8665088 0 1.6519303-.3440046 2.2263283-.8989471.5744874.5554699 1.3612484.8989471 2.228293.8989471h1.0340415c.8663301 0 1.6529125-.3425104 2.2272213-.8971893.574398.5546789 1.3609805.8971893 2.2273106.8971893h1.0341308c.8670446 0 1.6538949-.3434772 2.228293-.8989471.5742194.5549425 1.3596409.8989471 2.226239.8989471h1.0341308c.8662408 0 1.6529125-.3425104 2.2272213-.8971893.574398.5546789 1.3609805.8971893 2.2273106.8971893h1.0341308c1.7544503 0 3.181783-1.4047586 3.181783-3.1314612v-13.2179848c.0192895.0011426.0384897.0029004.0580471.0029004 1.941719 0 3.5215816-1.5488116 3.5215816-3.4525263v-9.1596272c.0005358-3.3179655-2.6835606-6.0321212-6.035734-6.17028553zm-6.8979563-5.43209068c0-1.41161409 1.1669247-2.55999524 2.6011338-2.55999524h.6204785c1.434209 0 2.6011337 1.14838115 2.6011337 2.55999524v2.86532786c0 1.41161408-1.1669247 2.55999523-2.6011337 2.55999523h-.6204785c-1.4342091 0-2.6011338-1.14838115-2.6011338-2.55999523zm-10.9774148 0c0-1.41161409 1.1668354-2.55999524 2.6011338-2.55999524h.6204785c1.434209 0 2.6011337 1.14838115 2.6011337 2.55999524v2.86532786c0 1.41161408-1.1669247 2.55999523-2.6011337 2.55999523h-.6204785c-1.4342984 0-2.6011338-1.14838115-2.6011338-2.55999523zm5.1190369 7.30434041-2.2076639 3.5652902-2.2076639-3.5652902zm-16.09645166-7.30434041c0-1.41161409 1.16683535-2.55999524 2.60113372-2.55999524h.62047854c1.4342983 0 2.6011337 1.14838115 2.6011337 2.55999524v2.86532786c0 1.41161408-1.1668354 2.55999523-2.6011337 2.55999523h-.62047854c-1.43429837 0-2.60113372-1.14838115-2.60113372-2.55999523zm-2.57728978 13.83357191c-.52724597 0-.95456169.4205575-.95456169.9394648v.0002636 7.5652003c-.01928949-.0011425-.03848967-.0029003-.05804707-.0029003-.88910246 0-1.61245822-.7059389-1.61245822-1.5735969v-9.1597151c0-2.3699754 1.97172492-4.2980358 4.39523462-4.2980358h6.4551911c-1.1020906 1.1126096-1.782045 2.6287259-1.782045 4.2980358v9.1597151c0 .3041022.0407223.5989758.116362.8801385l-1.0690483.532794-4.53615505-2.270483v-5.1310647-.0003515c.0000893-.5189073-.42731572-.9394648-.95447239-.9394648zm10.02285314 23.5960422c0 .6908217-.5709153 1.2527075-1.272749 1.2527075h-1.0340415c-.7017444 0-1.2727489-.5618858-1.2727489-1.2526196v-10.3262897c0-.5189073-.4273157-.9394647-.9545617-.9394647-.52715666 0-.95456168.4205574-.95456168.9394647v10.3262897c0 .6907338-.57091523 1.2526196-1.27274892 1.2526196h-1.03422013c-.70174439 0-1.27274892-.5618858-1.27274892-1.2526196v-15.4172762l4.10240948 2.0534806c.13591944.0680274.28434133.1020412.43267387.1020412.1477968 0 .2955936-.0337501.4312451-.1013381l1.6173699-.8060465c.6321772.5903625 1.4865407.9540546 2.4264567.9540546.0195574 0 .0387576-.0016699.0580471-.0029004v13.2178969zm10.9773255.0000879c0 .6907338-.5709153 1.2526196-1.272749 1.2526196h-1.0341308c-.7018337 0-1.2727489-.5618858-1.2727489-1.2526196v-10.3262897c0-.5189073-.427405-.9394647-.9545617-.9394647-.527246 0-.9545617.4205574-.9545617.9394647v10.3262897c0 .6907338-.5709152 1.2526196-1.2727489 1.2526196h-1.0340415c-.7018337 0-1.272749-.5618858-1.272749-1.2526196v-15.4072567l4.1020523 2.0441642c.1356516.0675001.2834483.1013381.4312451.1013381.1484219 0 .2967544-.0340138.4326739-.1020412l4.1023202-2.0535685-.0000893 15.4173641zm.9545617-23.5961301c-.5270674 0-.9545617.4205575-.9545617.9394648v.0002636 5.1310647l-4.5360658 2.2705709-4.5322257-2.2585298v-5.1431058-.0002636c0-.5189073-.4273157-.9394648-.9545616-.9394648-.527246 0-.9545617.4205575-.9545617.9394648v.0002636 7.5652003c-.0192895-.0011425-.0384897-.0029003-.0580471-.0029003-.8891025 0-1.6124582-.7059389-1.6124582-1.5735969v-9.1597151c0-2.1397894 1.6075465-3.9188749 3.7035815-4.2444224l3.5950781 5.8058903c.1732482.2798443.4821479.4505282.8150701.4505282.3329223 0 .641822-.1706839.8150701-.4505282l3.5950781-5.8058903c2.096035.3254596 3.7035815 2.1045451 3.7035815 4.2444224v9.1597151c0 .867658-.7232664 1.5735969-1.6124582 1.5735969-.0195574 0-.0387576.0016699-.0580471.0029003v-7.5652003-.0002636c.0000893-.5189073-.4273157-.9394648-.9544723-.9394648zm10.0228531 23.5961301c0 .6907338-.5709153 1.2526196-1.272749 1.2526196h-1.0341308c-.7018337 0-1.2727489-.5618858-1.2727489-1.2526196v-10.3262897c0-.5189073-.427405-.9394647-.9545617-.9394647-.5270674 0-.9545617.4205574-.9545617.9394647v10.3262897c0 .6907338-.5709152 1.2526196-1.2727489 1.2526196h-1.0341308c-.7018337 0-1.272749-.5618858-1.272749-1.2526196v-13.2180727c.0192895.0011426.0384897.0029004.0580471.0029004.939916 0 1.7942795-.3636042 2.4264567-.9540546l1.6173699.8060465c.1356515.0675001.2834483.1013381.4312451.1013381.1484219 0 .2967544-.0340138.4326739-.1020412l4.1024095-2.0535685v15.417452zm1.9671704-15.0940139c-.0195574 0-.0387576.00167-.058047.0029004v-7.5652003-.0003515c0-.5189073-.4274051-.9394648-.9545617-.9394648-.5270674 0-.9545617.4205575-.9545617.9394648v.0002636 5.1310647l-4.5360658 2.2705709-1.0691376-.532794c.0757291-.2810748.116362-.5760363.116362-.8801385v-9.1597151c0-1.6693099-.6800437-3.1854262-1.7821342-4.2980358h6.455191c2.423599 0 4.3952346 1.9280604 4.3952346 4.2980358v9.159803h.0000893c.0000893.867658-.7231771 1.5735968-1.6123689 1.5735968z"/></g></svg>