<?xml version="1.0" encoding="utf-8"?><svg height="89" viewBox="0 0 89 89" width="89" xmlns="http://www.w3.org/2000/svg"><g fill="none" transform=""><path d="m76.0806452 45.9354839v-35.8870968h-7.7717994l-17.2258065 17.2258064h-24.6113989l-9.2458339 15.0249181v-42.2991116h-2.8709678v5.74193548h-5.74193547v2.87096775h5.74193547v5.74193547h-5.74193547v2.8709678h5.74193547v5.7419354h-5.74193547v2.8709678h5.74193547v5.7419355h-5.74193547v2.8709677h5.74193547v5.7419355h-5.74193547v2.8709677h5.74193547v2.8709678h-14.3548387v43.0645161h89v-43.0645161zm-2.8709678 0h-2.8709677v-33.0161291h2.8709677zm-20.0967742-3.9314595v-12.6999669l2.8709678-2.8709678v17.1094537c-.9147004-.5796606-1.8707551-1.0997432-2.8709678-1.538519zm-2.8709677-1.0093246c-.9329244-.2586394-1.8917828-.4548969-2.8709678-.5873709v-10.2621676h2.8709678zm-5.7419355-.8011514c-.9763813 0-1.9296323.0876149-2.8709677.2137805v-10.2621676h2.8709677zm-5.7419355.8011514c-.9861943.2740597-1.9464544.6041929-2.8709677 1.0093246v-11.8588631h2.8709677zm-5.7419355 2.5478436c-1.0191375.6462482-1.976594 1.3752048-2.8709677 2.17916v-15.5765421h2.8709677zm11.483871-.4780273c10.2895035 0 18.6612903 8.3717868 18.6612903 18.6612904 0 10.2895035-8.3717868 18.6612903-18.6612903 18.6612903s-18.6612903-8.3717868-18.6612903-18.6612903c0-10.2895036 8.3717868-18.6612904 18.6612903-18.6612904zm14.5903478 2.8709678c-.0778022-.0714939-.1563052-.1422868-.2355091-.2137805v-22.1595814l2.8709678-2.8709678v25.2443297zm5.5064264-28.1152974 2.8709677-2.8709677v30.9862651h-2.8709677zm-37.3225807 13.6286857v14.4866117h-2.8709677v-9.8212891zm-8.9157006 14.4866117 3.1737652-5.1559665v5.1559665zm67.7705394 40.1935484h-83.25806456v-37.3225807h24.44317816c-2.7153634 3.6027281-4.346404 8.0689894-4.346404 12.9193549 0 11.8728815 9.6593766 21.532258 21.5322581 21.532258s21.5322581-9.6593765 21.5322581-21.532258c0-4.8503655-1.6310406-9.3166268-4.346404-12.9193549h24.4431782z" fill="#bf0d3e"/><path d="m8.8 54.8h4.2v-2.8h-7v7h2.8z" fill="#bf0d3e"/><path d="m8.8 76h-2.8v7h7v-2.8h-4.2z" fill="#bf0d3e"/><path d="m80.2 59h2.8v-7h-7v2.8h4.2z" fill="#bf0d3e"/><path d="m80.2 80.2h-4.2v2.8h7v-7h-2.8z" fill="#bf0d3e"/><path d="m44.5 65.75c-.8276366 0-1.5-.6363932-1.5-1.4166667h-3c0 1.8441568 1.2583009 3.4026287 3 3.9892172v1.6774495h3v-1.6774495c1.7416991-.5865885 3-2.1450604 3-3.9892172 0-2.3428955-2.0192871-4.25-4.5-4.25-.8276366 0-1.5-.6363932-1.5-1.4166666 0-.7802735.6723634-1.4166667 1.5-1.4166667s1.5.6363932 1.5 1.4166667h3c0-1.8441568-1.2583009-3.4026287-3-3.9892172v-1.6774495h-3v1.6774495c-1.7416991.5865885-3 2.1450604-3 3.9892172 0 2.3428955 2.0192871 4.25 4.5 4.25.8276366 0 1.5.6363932 1.5 1.4166666 0 .7802735-.6723634 1.4166667-1.5 1.4166667z" fill="#64a70b"/><g fill="#bf0d3e"><path d="m45 78c8.8217329 0 16-7.1782671 16-16s-7.1782671-16-16-16-16 7.1782671-16 16 7.1782671 16 16 16zm0-29.0909091c7.21875 0 13.0909091 5.8735796 13.0909091 13.0909091s-5.8721591 13.0909091-13.0909091 13.0909091-13.0909091-5.8735796-13.0909091-13.0909091 5.8721591-13.0909091 13.0909091-13.0909091z"/><path d="m69.1111111 4.81985294v2.23897059h2.8888889v-7.05882353h-7.2222222v2.82352941h2.2907986l-18.7777778 18.35294119h-28.2907986v2.8235294h29.4869792z"/><path d="m80 66h3v3h-3z"/><path d="m75 66h3v3h-3z"/><path d="m69 66h3v3h-3z"/><path d="m17 66h3v3h-3z"/><path d="m11 66h3v3h-3z"/><path d="m6 66h3v3h-3z"/></g></g></svg>