<?xml version="1.0" encoding="utf-8"?><svg height="94" viewBox="0 0 92 94" width="92" xmlns="http://www.w3.org/2000/svg"><g fill="none" transform=""><g fill="#046a38"><path d="m2.75880519 48.7944359c-.66192207 0-1.19480519.5398974-1.19480519 1.2051282 0 .6664359.53288312 1.2051282 1.19480519 1.2051282h13.04607791 57.813039c.0095584.0012051.0191169 0 .0250909 0h9.3541299c.6643116 0 1.1948052-.5386923 1.1948052-1.2051282 0-.6652308-.5304936-1.2051282-1.1948052-1.2051282h-8.7232728l-7.7017143-12.1754103c.0191169.0012052.0334546.0096411.0513767.0096411.0633246 0 .1242597-.0048205.1828052-.0144616 8.1533506-1.2750256 14.0712207-8.2491025 14.0712207-16.5837692 0-9.2541795-7.4651428-16.78261539-16.6412467-16.78261539-5.6729351 0-10.8882598 2.89592308-13.9457662 7.63930769l-6.5379741-10.33035897c-.2246233-.35671795-.5723117-.57605128-1.0430649-.5555641-.4205714.01205128-.8029091.24705128-1.0084156.61823077l-9.513039 17.2236923c-.7431688-3.9347436-4.1746493-6.9198461-8.2895584-6.9198461-.7144935 0-1.4158441.0891794-2.0980779.2663333-1.3226494-3.06223078-4.3371429-5.10974361-7.7088831-5.10974361-4.65496107 0-8.44010393 3.82025642-8.44010393 8.51423081 0 1.0520769.19355844 2.0824615.56753247 3.0501795-3.1268052.545923-5.51163636 3.3032564-5.51163636 6.6113333 0 3.3394102 2.40633766 6.1148205 5.65381818 6.6041025.14815584.0674872.31303896.1036411.48509091.1036411h15.77620783c.8901298 0 1.7432207-.1602821 2.5544935-.4205898l-10.0781819 18.2504616zm4.44109091-20.2401282c-.07527272-.0253077-.15532467-.0385641-.23657142-.047-2.20322078-.2096923-3.86161039-2.0366667-3.86161039-4.2504872 0-2.3704872 1.91288311-4.2998974 4.26067532-4.2998974.22820779 0 .44805195.037359.66909091.0735128.47075325.0759231.95106493-.1446154 1.20316883-.5579744.2532987-.4133589.23537662-.9387948-.0454026-1.3340769-.74675324-1.0508718-1.14103896-2.275282-1.14103896-3.5418718 0-3.3659231 2.71459741-6.10397434 6.05168831-6.10397434 2.716987 0 5.1101818 1.86312824 5.8187013 4.53128204.0884156.3362308.3202078.6182308.6296623.7712821.3094546.1530512.6726754.1638974.9904935.0253077.7515325-.3229744 1.5472728-.4844616 2.3657143-.4844616 3.3370909 0 6.0504935 2.7392564 6.0504935 6.1051795 0 1.2810513-.4074285 2.5199231-1.1768831 3.5840513-.1075324.1482308-.178026.3205641-.2114805.5001282-.514961 2.9152051-3.0121039 5.0314102-5.9441558 5.0314102zm57.0376104-22.89502565c7.8558441 0 14.2516364 6.44864105 14.2516364 14.37235895 0 7.0210769-5.1806754 13.1274616-12.0484156 14.2000257-.4277403.0686923-.7539221.3687692-.908052.7471795l-10.8356883-17.1333077c-.0035844-.0012052-.0035844-.0024103-.0035844-.0036154 0-.0012052-.0023896-.0012052-.0023896-.0024103l-2.9607273-4.6783077c2.5031169-4.62769228 7.2799481-7.50192305 12.5072208-7.50192305zm-21.4192727-2.10174359 9.2322597 14.58928204-2.8472208 1.88-4.6011948-4.4927179c-.043013-.0421795-.0991688-.0602564-.1457662-.094-.0657143-.047-.1254546-.0964103-.1995325-.1277436-.0716883-.0325385-.1457662-.0482052-.2222337-.0662821-.074078-.0168718-.1433767-.0349487-.2174546-.037359-.0788571-.0048205-.1541299.0108462-.2305974.0241026-.0752727.0120513-.1457662.0204872-.2174545.047-.0752728.027718-.1397922.0711026-.2114806.1144872-.0501818.0313333-.1063376.0445897-.152935.0831538l-5.4459221 4.577077-2.7898701-1.9233847zm-9.2143377 16.68500004 3.355013 2.312641c.037039.0253077.0812467.0385641.1230649.0590513.037039.019282.0728831.0385641.1111169.0542307.1433766.0578462.2903377.0964103.4396883.0964103h.0011948.0011948c.0011948 0 .0035844-.0012051.0047793-.0012051.1194805-.0012052.2341818-.0253077.3476883-.0602564.0322597-.0096411.0633246-.0228975.0931948-.0349488.1003636-.0409743.195948-.094.2831688-.1626923.0107532-.0084359.0250909-.0108461.0358442-.0216923l5.3132987-4.4662051 4.5163636 4.4071538c.0023896.0036154.0071688.0048206.011948.0084359.1003637.0964103.2186494.168718.3405195.2229488.0274805.0132564.0585455.0241025.086026.0337435.1242597.0421795.2568831.0735129.3871169.074718h.0023896.0023896c.1374026 0 .2736104-.0325385.4062338-.0819487.0394285-.0144616.0740779-.0325385.1147013-.0530257.0442078-.0216923.0908052-.0337436.1326233-.0626666l3.619065-2.3897693 18.0989091 28.6157693h-20.3833767v-6.2859487l2.1219741 1.8161282c.2246234.1916153.4994285.2856153.7718441.2856153.3405195 0 .675065-.1446153.9164156-.4266153.4229611-.5085641.3668052-1.269-.1374026-1.6992308l-3.6680519-3.1381539v-3.4117179l2.0538701 2.0728205c.232987.2337949.5388571.3531026.8447273.3531026.3058701 0 .6117402-.1193077.8447272-.3531026.4671689-.4724103.4671689-1.2340513 0-1.7040513l-3.7433246-3.7756666v-2.9826924l2.0072727 2.2752821c.2353766.2687436.5627532.4037179.8913247.4037179.2795844 0 .5675324-.1000256.7933506-.3036923.4946494-.4410769.5388572-1.203923.1003637-1.7004359l-4.0934026-4.6445641c-.0119481-.0084359-.0238961-.0120512-.0274806-.0204871-.0633246-.0686923-.1421818-.1144872-.2174545-.1663077-.0537662-.0349487-.1027533-.0807436-.1612987-.1084616-.0143377-.0048205-.0238961-.0132564-.0298701-.0180769-.0681039-.0277179-.1374026-.0289231-.2078961-.0433846-.074078-.0156667-.1397922-.0397692-.2174546-.0421795-.0788571-.0024103-.1541299.0180769-.2282078.0313333-.0764675.0120513-.146961.0168718-.2246234.0433847-.0143376.0048205-.0250909.0060256-.0394285.0120512-.0740779.0289231-.1254546.0807436-.1887792.1241282-.0489871.0313334-.1051429.047-.1493507.0867693-.0095584.0084359-.011948.019282-.0215065.0277179-.0095584.0084359-.0250909.0132564-.0298701.0216923l-4.6035844 4.643359c-.4671689.4724103-.4671689 1.2328462 0 1.7040513.232987.235.5388571.3531025.8447272.3531025.3058702 0 .6129351-.1181025.8447273-.3531025l2.564052-2.5862051v3.1887692l-4.1877922 3.6394872c-.5006234.4338461-.5579741 1.1954871-.1254546 1.6992307.2365714.2759744.5723117.4193847.9056623.4193847.276 0 .5543897-.0964103.779013-.2916411l2.6285715-2.2849231v3.6503334l-4.1268572 3.1381538c-.5269091.4013077-.6320519 1.155718-.2353766 1.6871795.2341818.3145385.5926234.4784359.9558441.4784359.2497143 0 .503013-.0771282.7192728-.2422308l2.6907013-2.0426923v6.4691282h-12.0496104v-2.6741794l2.1243636 1.8161282c.2246234.1928205.4994286.2868205.7718442.2868205.3393247 0 .6762597-.1458205.9128311-.4266154.4265455-.5085641.3656104-1.2714103-.1374026-1.7004359l-3.6704415-3.1369487v-3.4129231l2.0538701 2.0728205c.232987.2337949.5388572.3531026.8447273.3531026s.6117403-.1193077.8447273-.3531026c.4671688-.4724102.4671688-1.2328461 0-1.7040513l-3.7433247-3.7768718v-2.9826923l2.0060779 2.2752821c.2353766.2687436.5639481.4037179.8925195.4037179.281974 0 .5663377-.1000256.7933506-.3036923.4934546-.4410769.5376624-1.2039231.0991689-1.701641l-4.0934026-4.6445641c-.0083637-.0084359-.0203117-.0120513-.0274805-.0204872-.0609351-.066282-.1362078-.1108718-.2102858-.160282-.0573506-.037359-.1075324-.0867693-.1696623-.1156924-.011948-.0048205-.0203117-.0120512-.0298701-.0156666-.0609351-.0253077-.1254546-.0253077-.1887792-.0397692-.0776624-.018077-.1541299-.0445898-.2353767-.0457949-.0728831-.0024103-.140987.0180769-.2150649.0289231-.0776623.0120512-.1577143.0168718-.232987.0457948-.0143377.0048205-.0262857.0060257-.0406234.0120513-.0716883.027718-.1242597.0807436-.1875844.1229231-.048987.0325384-.1039481.047-.1493507.0879743-.0095584.0084359-.011948.0192821-.0215065.027718-.0095584.0084359-.0227013.0132564-.0298701.0216923l-4.6047792 4.6445641c-.4671688.4724103-.4671688 1.2328462 0 1.7040513.232987.235.5388571.3531026.8447273.3531026.3058701 0 .612935-.1181026.8447272-.3531026l2.564052-2.5862051v3.1887692l-4.188987 3.6394872c-.5006234.432641-.557974 1.1954871-.1254546 1.6992307.2365715.2759744.5723117.4193847.9056624.4193847.276 0 .5543896-.0964103.779013-.2916411l2.6297662-2.284923v3.6503333l-4.128052 3.1369487c-.526909.4001026-.6320519 1.1545128-.2353766 1.6871795.2341818.3157436.5926234.4784359.9558442.4784359.2497143 0 .5018182-.0771282.7192727-.2422308l2.6907013-2.0426923v2.857359h-16.3855584z"/><path d="m6.42327273 62.0134872c.30706493 0 .61293506-.1181026.84472727-.3531026l3.3335065-3.3611025 3.0348052 3.0598205c.232987.235.5388571.3531025.8447273.3531025.3058701 0 .612935-.1181025.8447272-.3531025l3.760052-3.7913334 3.4601558 3.4900513c.232987.235.5388572.3531026.8447273.3531026s.6129351-.1181026.8447273-.3531026c.4683636-.47.4683636-1.2304359 0-1.7040513l-4.306078-4.343282c-.4683636-.4724103-1.2222857-.4724103-1.6894545 0l-3.7600519 3.7913333-3.0348052-3.0598205c-.4671689-.4736154-1.2210909-.4736154-1.68945458 0l-4.17823377 4.2131282c-.46716883.4748205-.46716883 1.2304359 0 1.7040513.23537662.2362051.54244156.3543077.84592208.3543077z"/><path d="m63.9388052 87.2765897c.3082597 0 .6153247-.1193076.8447273-.3531025l3.3347013-3.3611026 3.0336104 3.0598205c.2317922.2337949.5376623.3531026.8447272.3531026.3058702 0 .6141299-.1193077.8435325-.3531026l3.7612467-3.7913333 3.4601559 3.4900513c.2317922.2337948.5376623.3531025.8435325.3531025.3070649 0 .6153246-.1193077.8447272-.3531025.4707533-.4724103.4707533-1.2304359 0-1.7040513l-4.3060779-4.3432821c-.4695584-.4724102-1.2222857-.4724102-1.6894545 0l-3.7588572 3.7913334-3.0336104-3.0622308c-.4707532-.4712051-1.2198961-.4712051-1.6894545 0l-4.1794286 4.2155385c-.4683636.4748205-.4683636 1.231641 0 1.7040513.232987.2374102.540052.3543076.8459221.3543076z"/><path d="m73.6167273 93.2865641c.3058701 0 .6117402-.1181026.8447272-.3531026l3.3323117-3.3623077 3.036 3.0610257c.2305974.235.5388572.3531026.8447273.3531026s.6117403-.1181026.8447273-.3531026l3.7576623-3.7913333 3.4625455 3.4900512c.2305974.235.5388571.3531026.8447272.3531026.3058702 0 .6117403-.1181026.8447273-.3531026.4671688-.4712051.4671688-1.2304359 0-1.7028461l-4.3072727-4.3432821c-.4671688-.4736154-1.2198961-.4736154-1.6894546 0l-3.7576623 3.7913334-3.036-3.0622308c-.4695584-.4712051-1.2222857-.4712051-1.6894545 0l-4.177039 4.2155385c-.4695584.4724102-.4695584 1.2304359 0 1.7028461.2341818.2374103.5388571.3543077.8447273.3543077z"/></g><path d="m43.7740779 79.6601795c23.3237922 0 23.3237922-2.5584872 23.3237922-3.3972564v-6.2570257c.043013-.1446153.043013-.2759743.043013-.376 0-.7977948-.0167273-3.1417692-19.9890909-3.3779743l1.3561039-1.372641c.0298701.0024102.0585455.0216923.086026.0216923.46 0 .92-.1759488 1.2688831-.5278462l4.1447792-4.1805897c.7001559-.7074103.7001559-1.851077 0-2.556077-.7001558-.7062051-1.834026-.7062051-2.5341818 0l-4.1471688 4.1757693c-.3739741.3772051-.5316883.8785384-.5077922 1.3654102l-3.0252468 3.0525898c-15.8132467 0-20.8887792 1.1798205-22.5208831 2.1981538-.0107533 0-.0191169-.0060256-.0286753-.0060256-.6607273 0-1.1948052.5386923-1.1948052 1.2051282v6.063c0 .3735897.1768311.6893333.4396883.9134872.184.7411538 1.4134545 1.9752051 9.5715844 2.6271794l-4.6896104 4.7313334c-.7001558.7037949-.7001558 1.8498718 0 2.5560769.3500779.3531026.8088831.5278462 1.2676883.5278462.46 0 .9188052-.1759488 1.2688831-.5278462l5.0313247-5.0747949c.3727792-.376.5316883-.8737179.508987-1.3654102l.600987-.6073846c2.6739741.1156923 5.8772468.1892051 9.7257143.1892051zm-7.4065974-2.5404103 4.0826494-4.1191282c1.0681558.0120513 2.1781298.0241026 3.3621818.0241026 12.3459221 0 18.1574545-.7206667 20.8923636-1.5184615v4.2083076c-1.7730909.6808975-9.4604675 1.531718-20.9341818 1.531718-2.6847273.0036154-5.1543896-.047-7.403013-.1265385zm25.8723117-7.4983077c-3.4816623.5218206-9.9192727.9882052-18.4238961.9882052-.3345455 0-.6619221-.0036154-.9892987-.0060257l1.9523117-1.9679743c8.0243117.0349487 14.1106493.4868718 17.4608831.9857948zm-20.8529351-.9725384-1.9033246 1.9209743c-6.3659221-.1253333-11.2287793-.5206153-14.0927273-.9436153 3.139948-.4687949 8.6922078-.8978206 15.9960519-.977359zm-18.9531948 6.7149743v-4.0130769c2.0311689.695359 6.1998442 1.3605898 14.6996883 1.5847436l-3.9990129 4.0359744c-5.7804676-.3217693-9.4998961-.8676923-10.4569351-1.3220257-.0621299-.1072564-.1493507-.2024615-.2437403-.2856154z" fill="#64a70b"/></g></svg>