<?xml version="1.0" encoding="utf-8"?><svg height="43" viewBox="0 0 32 43" width="32" xmlns="http://www.w3.org/2000/svg"><path d="m29.291266 16.9556163c-.1550102-.5336272-.4697893-1.102222-.7026591-1.6000446-2.7865394-6.15112775-8.8750704-8.3555717-13.7912542-8.3555717-6.58120234 0-13.82962709 4.0534464-14.7973527 12.4085531v1.7069933c0 .0712371.0267294.7111619.06469729 1.0312639.54248522 3.9818373 3.96313908 8.2136554 6.51782128 12.1954928 2.74847032 4.2661347 5.60041583 8.4627993 8.42593563 12.6576969 1.7422706-2.7375132 3.4782638-5.5110169 5.1808453-8.1776649.4640182-.7825851 1.002656-1.5647051 1.4671805-2.3116716.3096155-.4973577.9011046-.9947154 1.1713348-1.4574775 2.748369-4.6219482 7.1721852-9.2796079 7.1721852-13.8664955v-1.884342c.0001012-.4972647-.6709686-2.2395045-.708734-2.3467322zm-14.0024005 9.0443837c-1.9523491 0-4.0893371-.8676699-5.144139-3.2638883-.15715249-.3814332-.1444822-1.1458437-.1444822-1.215864v-1.0763683c0-3.0547357 2.9182546-4.4438794 5.4570134-4.4438794 3.1254752 0 5.5427423 2.2224846 5.5427423 5.0004087 0 2.7778333-2.5856594 4.9995913-5.7111345 4.9995913z" fill="none" stroke="#ffa300" stroke-width="2" transform="translate(1 -6)"/></svg>