<?xml version="1.0" encoding="utf-8"?><svg height="96" viewBox="0 0 96 96" width="96" xmlns="http://www.w3.org/2000/svg"><g fill="none" transform=""><g fill="#64a70b"><path d="m33.6 32h3.2v3.2h-3.2z"/><path d="m33.6 38.4h3.2v3.2h-3.2z"/><path d="m33.6 44.8h3.2v3.2h-3.2z"/><path d="m33.6 51.2h3.2v3.2h-3.2z"/><path d="m40 32h3.2v3.2h-3.2z"/><path d="m40 38.4h3.2v3.2h-3.2z"/><path d="m40 44.8h3.2v3.2h-3.2z"/><path d="m40 51.2h3.2v3.2h-3.2z"/><path d="m46.4 32h3.2v3.2h-3.2z"/><path d="m46.4 38.4h3.2v3.2h-3.2z"/><path d="m46.4 44.8h3.2v3.2h-3.2z"/><path d="m46.4 51.2h3.2v3.2h-3.2z"/><path d="m52.8 32h3.2v3.2h-3.2z"/><path d="m40 25.6h3.2v3.2h-3.2z"/><path d="m46.4 25.6h3.2v3.2h-3.2z"/><path d="m52.8 25.6h3.2v3.2h-3.2z"/><path d="m52.8 38.4h3.2v3.2h-3.2z"/><path d="m52.8 44.8h3.2v3.2h-3.2z"/><path d="m52.8 51.2h3.2v3.2h-3.2z"/><path d="m59.2 32h3.2v3.2h-3.2z"/><path d="m59.2 38.4h3.2v3.2h-3.2z"/><path d="m59.2 44.8h3.2v3.2h-3.2z"/><path d="m59.2 51.2h3.2v3.2h-3.2z"/></g><path d="m94.4018 24c-.0006 0-.0012 0-.0018 0h-24v-22.4c.0006-.8832-.715-1.5994-1.5982-1.6-.0006 0-.0012 0-.0018 0h-41.6c-.8832-.0006-1.5994.715-1.6 1.5982v.0018 22.4h-24c-.8832-.0006-1.5994.715-1.6 1.5982v.0018 57.6c-.0006.8832.715 1.5994 1.5982 1.6h.0018 3.3446c-.0928.5284-.1412 1.0636-.1446 1.6v8c-.0006.8832.715 1.5994 1.5982 1.6h.0018 83.2c.8832.0006 1.5994-.715 1.6-1.5982 0-.0006 0-.0012 0-.0018v-8c-.0032-.5364-.0516-1.0716-.1446-1.6h3.3446c.8832.0006 1.5994-.715 1.6-1.5982 0-.0006 0-.0012 0-.0018v-57.6c.0006-.8832-.715-1.5994-1.5982-1.6zm-25.6018 44.8c0 1.7674-1.4326 3.2-3.2 3.2s-3.2-1.4326-3.2-3.2 1.4326-3.2 3.2-3.2c1.7664.0022 3.1978 1.4336 3.2 3.2zm-38.4-3.2c1.7674 0 3.2 1.4326 3.2 3.2s-1.4326 3.2-3.2 3.2-3.2-1.4326-3.2-3.2c.0022-1.7664 1.4336-3.1978 3.2-3.2zm-9.6 27.2h-12.8v-6.4c0-3.5346 2.8654-6.4 6.4-6.4s6.4 2.8654 6.4 6.4zm-9.6-19.2c0-1.7674 1.4326-3.2 3.2-3.2s3.2 1.4326 3.2 3.2-1.4326 3.2-3.2 3.2c-1.7664-.0022-3.1978-1.4336-3.2-3.2zm9.8424 5.885c-.6034-.582-1.28-1.0828-2.0128-1.4898 2.4404-2.5568 2.3462-6.608-.2106-9.0486s-6.608-2.3462-9.0486.2106c-2.3606 2.473-2.3606 6.3648 0 8.8378-1.5272.8476-2.796 2.0934-3.6716 3.6048h-2.8988v-54.3998h22.4v37.4112c-2.1972 2.4654-2.123 6.2078.1704 8.584-2.4 1.3274-4.1198 3.6154-4.728 6.2898zm15.7576 13.315h-12.8v-11.2c0-3.5346 2.8654-6.4 6.4-6.4s6.4 2.8654 6.4 6.4zm19.2 0h-16v-11.2c0-4.4182 3.5818-8 8-8s8 3.5818 8 8zm-12.8-27.2c0-2.651 2.149-4.8 4.8-4.8s4.8 2.149 4.8 4.8-2.149 4.8-4.8 4.8c-2.6498-.0028-4.7972-2.1502-4.8-4.8zm14.5444 10.499c-1.0714-1.8888-2.6654-3.4278-4.5906-4.432 3.3794-2.8464 3.8114-7.8934.9652-11.2728-2.8464-3.3794-7.8934-3.8114-11.2728-.9652-3.3794 2.8464-3.8114 7.8934-.9652 11.2728.2936.3486.6164.6714.9652.9652-1.9252 1.0042-3.5192 2.5432-4.5906 4.432-.8412-1.2-1.9444-2.193-3.226-2.9038 2.453-2.5094 2.4074-6.5324-.1022-8.9854-1.6158-1.5796-3.9488-2.182-6.1274-1.5826v-59.4272h38.4v59.4272c-.5214-.1438-1.0592-.2202-1.6-.2272-3.5252-.0094-6.3906 2.8408-6.4 6.3662-.0044 1.6496.6302 3.237 1.7704 4.429-1.2816.7108-2.3848 1.7038-3.226 2.9038zm14.2556 10.301v6.4h-12.8v-11.2c0-3.5346 2.8654-6.4 6.4-6.4s6.4 2.8654 6.4 6.4zm16 6.4h-12.8v-6.4c0-3.5346 2.8654-6.4 6.4-6.4s6.4 2.8654 6.4 6.4zm-9.6-19.2c0-1.7674 1.4326-3.2 3.2-3.2s3.2 1.4326 3.2 3.2-1.4326 3.2-3.2 3.2c-1.7664-.0022-3.1978-1.4336-3.2-3.2zm14.4002 8h-2.899c-.8756-1.5114-2.1444-2.7572-3.6716-3.6048 2.4404-2.5568 2.3462-6.608-.2106-9.0486-2.5568-2.4404-6.608-2.3462-9.0486.2106-2.3606 2.473-2.3606 6.3648 0 8.8378-.7328.407-1.4096.9078-2.0128 1.4898-.608-2.6744-2.328-4.9624-4.728-6.2898 2.2934-2.3762 2.3678-6.1186.1706-8.584v-37.411h22.4z" fill="#ffa300"/><path d="m75.2 36.8h3.2v25.6h-3.2z" fill="#64a70b"/><path d="m84.8 36.8h3.2v25.6h-3.2z" fill="#64a70b"/><path d="m8 36.8h3.2v25.6h-3.2z" fill="#64a70b"/><path d="m17.6 36.8h3.2v25.6h-3.2z" fill="#64a70b"/><path d="m57.6018 6.4c-.0006 0-.0012 0-.0018 0h-19.2c-.8832-.0006-1.5994.715-1.6 1.5982v.0018 12.8c-.0006.8832.715 1.5994 1.5982 1.6h.0018 19.2c.8832.0006 1.5994-.715 1.6-1.5982 0-.0006 0-.0012 0-.0018v-12.8c.0006-.8832-.715-1.5994-1.5982-1.6zm-1.6018 12.8h-16v-9.6h16z" fill="#64a70b"/></g></svg>